# MagicaVoxel @ Ephtracy

# group
o 

# material
mtllib 4_Tile-17.mtl
usemtl palette

# normals
vn -1 0 0
vn 1 0 0
vn 0 0 1
vn 0 0 -1
vn 0 -1 0
vn 0 1 0

# texcoords
vt 0.693359 0.5
vt 0.740234 0.5

# verts
v -0.55 -0.1 0.55
v -0.55 -0.1 -0.55
v -0.55 0 0.55
v -0.55 0 0.05
v -0.55 0 -0.05
v -0.55 0 -0.55
v -0.55 0.1 0.55
v -0.55 0.1 0.05
v -0.55 0.1 -0.05
v -0.55 0.1 -0.55
v -0.35 0 0.15
v -0.35 0 0.05
v -0.35 0.1 0.15
v -0.35 0.1 0.05
v -0.25 0 0.05
v -0.25 0 -0.35
v -0.25 0.1 0.05
v -0.25 0.1 -0.35
v -0.05 0 0.15
v -0.05 0 -0.15
v -0.05 0.1 0.15
v -0.05 0.1 -0.15
v 0.05 0 0.55
v 0.05 0 0.45
v 0.05 0 -0.35
v 0.05 0 -0.55
v 0.05 0.1 0.55
v 0.05 0.1 0.45
v 0.05 0.1 -0.35
v 0.05 0.1 -0.55
v 0.25 0 -0.05
v 0.25 0 -0.25
v 0.25 0.1 -0.05
v 0.25 0.1 -0.25
v 0.45 0 0.45
v 0.45 0 0.15
v 0.45 0.1 0.45
v 0.45 0.1 0.15
v -0.45 0 0.25
v -0.45 0 0.05
v -0.45 0.1 0.25
v -0.45 0.1 0.05
v -0.35 0 -0.05
v -0.35 0 -0.45
v -0.35 0.1 -0.05
v -0.35 0.1 -0.45
v -0.15 0 0.15
v -0.15 0 -0.25
v -0.15 0.1 0.15
v -0.15 0.1 -0.25
v -0.05 0 0.55
v -0.05 0 0.35
v -0.05 0 -0.45
v -0.05 0 -0.55
v -0.05 0.1 0.55
v -0.05 0.1 0.35
v -0.05 0.1 -0.45
v -0.05 0.1 -0.55
v 0.15 0 0.05
v 0.15 0 -0.15
v 0.15 0.1 0.05
v 0.15 0.1 -0.15
v 0.35 0 0.35
v 0.35 0 0.25
v 0.35 0.1 0.35
v 0.35 0.1 0.25
v 0.55 -0.1 0.55
v 0.55 -0.1 -0.55
v 0.55 0 0.55
v 0.55 0 0.05
v 0.55 0 -0.05
v 0.55 0 -0.55
v 0.55 0.1 0.55
v 0.55 0.1 0.05
v 0.55 0.1 -0.05
v 0.55 0.1 -0.55
v -0.55 -0.1 0.55
v -0.55 0 0.55
v -0.55 0.1 0.55
v -0.05 0 0.55
v -0.05 0.1 0.55
v 0.05 0 0.55
v 0.05 0.1 0.55
v 0.55 -0.1 0.55
v 0.55 0 0.55
v 0.55 0.1 0.55
v -0.05 0 0.35
v -0.05 0.1 0.35
v 0.35 0 0.35
v 0.35 0.1 0.35
v -0.35 0 0.15
v -0.35 0.1 0.15
v -0.15 0 0.15
v -0.15 0.1 0.15
v -0.05 0 0.15
v -0.05 0.1 0.15
v 0.45 0 0.15
v 0.45 0.1 0.15
v -0.55 0 -0.05
v -0.55 0.1 -0.05
v -0.35 0 -0.05
v -0.35 0.1 -0.05
v 0.25 0 -0.05
v 0.25 0.1 -0.05
v 0.55 0 -0.05
v 0.55 0.1 -0.05
v -0.15 0 -0.25
v -0.15 0.1 -0.25
v 0.25 0 -0.25
v 0.25 0.1 -0.25
v -0.35 0 -0.45
v -0.35 0.1 -0.45
v -0.05 0 -0.45
v -0.05 0.1 -0.45
v 0.05 0 0.45
v 0.05 0.1 0.45
v 0.45 0 0.45
v 0.45 0.1 0.45
v -0.45 0 0.25
v -0.45 0.1 0.25
v 0.35 0 0.25
v 0.35 0.1 0.25
v -0.55 0 0.05
v -0.55 0.1 0.05
v -0.45 0 0.05
v -0.45 0.1 0.05
v -0.35 0 0.05
v -0.35 0.1 0.05
v -0.25 0 0.05
v -0.25 0.1 0.05
v 0.15 0 0.05
v 0.15 0.1 0.05
v 0.55 0 0.05
v 0.55 0.1 0.05
v -0.05 0 -0.15
v -0.05 0.1 -0.15
v 0.15 0 -0.15
v 0.15 0.1 -0.15
v -0.25 0 -0.35
v -0.25 0.1 -0.35
v 0.05 0 -0.35
v 0.05 0.1 -0.35
v -0.55 -0.1 -0.55
v -0.55 0 -0.55
v -0.55 0.1 -0.55
v -0.05 0 -0.55
v -0.05 0.1 -0.55
v 0.05 0 -0.55
v 0.05 0.1 -0.55
v 0.55 -0.1 -0.55
v 0.55 0 -0.55
v 0.55 0.1 -0.55
v -0.55 -0.1 0.55
v 0.55 -0.1 0.55
v -0.55 -0.1 -0.55
v 0.55 -0.1 -0.55
v -0.05 0 0.55
v 0.05 0 0.55
v 0.05 0 0.45
v 0.45 0 0.45
v -0.05 0 0.35
v 0.35 0 0.35
v -0.45 0 0.25
v 0.35 0 0.25
v -0.35 0 0.15
v -0.15 0 0.15
v -0.05 0 0.15
v 0.45 0 0.15
v -0.55 0 0.05
v -0.45 0 0.05
v -0.35 0 0.05
v -0.25 0 0.05
v 0.15 0 0.05
v 0.55 0 0.05
v -0.55 0 -0.05
v -0.35 0 -0.05
v 0.25 0 -0.05
v 0.55 0 -0.05
v -0.05 0 -0.15
v 0.15 0 -0.15
v -0.15 0 -0.25
v 0.25 0 -0.25
v -0.25 0 -0.35
v 0.05 0 -0.35
v -0.35 0 -0.45
v -0.05 0 -0.45
v -0.05 0 -0.55
v 0.05 0 -0.55
v -0.55 0.1 0.55
v -0.05 0.1 0.55
v 0.05 0.1 0.55
v 0.55 0.1 0.55
v 0.05 0.1 0.45
v 0.45 0.1 0.45
v -0.05 0.1 0.35
v 0.35 0.1 0.35
v -0.45 0.1 0.25
v 0.35 0.1 0.25
v -0.35 0.1 0.15
v -0.15 0.1 0.15
v -0.05 0.1 0.15
v 0.45 0.1 0.15
v -0.55 0.1 0.05
v -0.45 0.1 0.05
v -0.35 0.1 0.05
v -0.25 0.1 0.05
v 0.15 0.1 0.05
v 0.55 0.1 0.05
v -0.55 0.1 -0.05
v -0.35 0.1 -0.05
v 0.25 0.1 -0.05
v 0.55 0.1 -0.05
v -0.05 0.1 -0.15
v 0.15 0.1 -0.15
v -0.15 0.1 -0.25
v 0.25 0.1 -0.25
v -0.25 0.1 -0.35
v 0.05 0.1 -0.35
v -0.35 0.1 -0.45
v -0.05 0.1 -0.45
v -0.55 0.1 -0.55
v -0.05 0.1 -0.55
v 0.05 0.1 -0.55
v 0.55 0.1 -0.55

# faces
f 3/2/1 2/2/1 1/2/1
f 4/2/1 2/2/1 3/2/1
f 5/2/1 2/2/1 4/2/1
f 6/2/1 2/2/1 5/2/1
f 7/1/1 4/1/1 3/1/1
f 8/1/1 4/1/1 7/1/1
f 9/1/1 6/1/1 5/1/1
f 10/1/1 6/1/1 9/1/1
f 13/1/1 12/1/1 11/1/1
f 14/1/1 12/1/1 13/1/1
f 17/1/1 16/1/1 15/1/1
f 18/1/1 16/1/1 17/1/1
f 21/1/1 20/1/1 19/1/1
f 22/1/1 20/1/1 21/1/1
f 27/1/1 24/1/1 23/1/1
f 28/1/1 24/1/1 27/1/1
f 29/1/1 26/1/1 25/1/1
f 30/1/1 26/1/1 29/1/1
f 33/1/1 32/1/1 31/1/1
f 34/1/1 32/1/1 33/1/1
f 37/1/1 36/1/1 35/1/1
f 38/1/1 36/1/1 37/1/1
f 39/1/2 40/1/2 41/1/2
f 41/1/2 40/1/2 42/1/2
f 43/1/2 44/1/2 45/1/2
f 45/1/2 44/1/2 46/1/2
f 47/1/2 48/1/2 49/1/2
f 49/1/2 48/1/2 50/1/2
f 51/1/2 52/1/2 55/1/2
f 55/1/2 52/1/2 56/1/2
f 53/1/2 54/1/2 57/1/2
f 57/1/2 54/1/2 58/1/2
f 59/1/2 60/1/2 61/1/2
f 61/1/2 60/1/2 62/1/2
f 63/1/2 64/1/2 65/1/2
f 65/1/2 64/1/2 66/1/2
f 67/2/2 68/2/2 69/2/2
f 69/2/2 68/2/2 70/2/2
f 70/2/2 68/2/2 71/2/2
f 71/2/2 68/2/2 72/2/2
f 69/1/2 70/1/2 73/1/2
f 73/1/2 70/1/2 74/1/2
f 71/1/2 72/1/2 75/1/2
f 75/1/2 72/1/2 76/1/2
f 80/2/3 78/2/3 77/2/3
f 80/1/3 79/1/3 78/1/3
f 81/1/3 79/1/3 80/1/3
f 82/2/3 80/2/3 77/2/3
f 84/2/3 82/2/3 77/2/3
f 85/1/3 83/1/3 82/1/3
f 85/2/3 82/2/3 84/2/3
f 86/1/3 83/1/3 85/1/3
f 89/1/3 88/1/3 87/1/3
f 90/1/3 88/1/3 89/1/3
f 93/1/3 92/1/3 91/1/3
f 94/1/3 92/1/3 93/1/3
f 97/1/3 96/1/3 95/1/3
f 98/1/3 96/1/3 97/1/3
f 101/1/3 100/1/3 99/1/3
f 102/1/3 100/1/3 101/1/3
f 105/1/3 104/1/3 103/1/3
f 106/1/3 104/1/3 105/1/3
f 109/1/3 108/1/3 107/1/3
f 110/1/3 108/1/3 109/1/3
f 113/1/3 112/1/3 111/1/3
f 114/1/3 112/1/3 113/1/3
f 115/1/4 116/1/4 117/1/4
f 117/1/4 116/1/4 118/1/4
f 119/1/4 120/1/4 121/1/4
f 121/1/4 120/1/4 122/1/4
f 123/1/4 124/1/4 125/1/4
f 125/1/4 124/1/4 126/1/4
f 127/1/4 128/1/4 129/1/4
f 129/1/4 128/1/4 130/1/4
f 131/1/4 132/1/4 133/1/4
f 133/1/4 132/1/4 134/1/4
f 135/1/4 136/1/4 137/1/4
f 137/1/4 136/1/4 138/1/4
f 139/1/4 140/1/4 141/1/4
f 141/1/4 140/1/4 142/1/4
f 143/2/4 144/2/4 146/2/4
f 144/1/4 145/1/4 146/1/4
f 146/1/4 145/1/4 147/1/4
f 143/2/4 146/2/4 148/2/4
f 143/2/4 148/2/4 150/2/4
f 148/1/4 149/1/4 151/1/4
f 150/2/4 148/2/4 151/2/4
f 151/1/4 149/1/4 152/1/4
f 155/2/5 154/2/5 153/2/5
f 156/2/5 154/2/5 155/2/5
f 157/2/6 158/2/6 159/2/6
f 157/2/6 159/2/6 161/2/6
f 159/2/6 160/2/6 161/2/6
f 161/2/6 160/2/6 162/2/6
f 162/2/6 160/2/6 164/2/6
f 163/2/6 164/2/6 165/2/6
f 165/2/6 164/2/6 166/2/6
f 166/2/6 164/2/6 167/2/6
f 164/2/6 160/2/6 168/2/6
f 167/2/6 164/2/6 168/2/6
f 163/2/6 165/2/6 170/2/6
f 170/2/6 165/2/6 171/2/6
f 171/2/6 172/2/6 175/2/6
f 169/2/6 170/2/6 175/2/6
f 170/2/6 171/2/6 175/2/6
f 175/2/6 172/2/6 176/2/6
f 173/2/6 174/2/6 177/2/6
f 177/2/6 174/2/6 178/2/6
f 166/2/6 167/2/6 179/2/6
f 173/2/6 177/2/6 180/2/6
f 166/2/6 179/2/6 181/2/6
f 179/2/6 180/2/6 181/2/6
f 180/2/6 177/2/6 182/2/6
f 181/2/6 180/2/6 182/2/6
f 176/2/6 172/2/6 183/2/6
f 176/2/6 183/2/6 185/2/6
f 183/2/6 184/2/6 185/2/6
f 185/2/6 184/2/6 186/2/6
f 186/2/6 184/2/6 187/2/6
f 187/2/6 184/2/6 188/2/6
f 191/1/6 192/1/6 193/1/6
f 193/1/6 192/1/6 194/1/6
f 189/1/6 190/1/6 195/1/6
f 189/1/6 195/1/6 197/1/6
f 195/1/6 196/1/6 197/1/6
f 197/1/6 196/1/6 198/1/6
f 194/1/6 192/1/6 202/1/6
f 189/1/6 197/1/6 203/1/6
f 203/1/6 197/1/6 204/1/6
f 199/1/6 200/1/6 205/1/6
f 205/1/6 200/1/6 206/1/6
f 201/1/6 202/1/6 207/1/6
f 202/1/6 192/1/6 208/1/6
f 207/1/6 202/1/6 208/1/6
f 201/1/6 207/1/6 213/1/6
f 213/1/6 207/1/6 214/1/6
f 206/1/6 200/1/6 215/1/6
f 211/1/6 212/1/6 216/1/6
f 206/1/6 215/1/6 217/1/6
f 215/1/6 216/1/6 217/1/6
f 217/1/6 216/1/6 218/1/6
f 209/1/6 210/1/6 219/1/6
f 209/1/6 219/1/6 221/1/6
f 219/1/6 220/1/6 221/1/6
f 221/1/6 220/1/6 222/1/6
f 218/1/6 216/1/6 223/1/6
f 216/1/6 212/1/6 224/1/6
f 223/1/6 216/1/6 224/1/6
