# MagicaVoxel @ Ephtracy

# group
o 

# material
mtllib 2_Teste_Tiles-8.mtl
usemtl palette

# normals
vn -1 0 0
vn 1 0 0
vn 0 0 1
vn 0 0 -1
vn 0 -1 0
vn 0 1 0

# texcoords
vt 0.783203 0.5
vt 0.939453 0.5

# verts
v -0.55 -0.1 0.55
v -0.55 -0.1 -0.55
v -0.55 0 0.55
v -0.55 0 0.05
v -0.55 0 -0.25
v -0.55 0 -0.55
v -0.55 0.1 0.55
v -0.55 0.1 0.05
v -0.55 0.1 -0.25
v -0.55 0.1 -0.55
v -0.45 0 0.05
v -0.45 0 -0.15
v -0.45 0.1 0.05
v -0.45 0.1 -0.15
v -0.35 0 0.45
v -0.35 0 0.35
v -0.35 0.1 0.45
v -0.35 0.1 0.35
v -0.25 0 -0.15
v -0.25 0 -0.35
v -0.25 0.1 -0.15
v -0.25 0.1 -0.35
v 0.05 0 0.55
v 0.05 0 0.45
v 0.05 0.1 0.55
v 0.05 0.1 0.45
v 0.15 0 -0.15
v 0.15 0 -0.45
v 0.15 0.1 -0.15
v 0.15 0.1 -0.45
v 0.35 0 0.35
v 0.35 0 -0.15
v 0.35 0.1 0.35
v 0.35 0.1 -0.15
v -0.45 0 0.55
v -0.45 0 0.25
v -0.45 0.1 0.55
v -0.45 0.1 0.25
v -0.35 0 -0.25
v -0.35 0 -0.45
v -0.35 0.1 -0.25
v -0.35 0.1 -0.45
v 0.05 0 -0.05
v 0.05 0 -0.35
v 0.05 0.1 -0.05
v 0.05 0.1 -0.35
v 0.25 0 0.25
v 0.25 0 -0.05
v 0.25 0.1 0.25
v 0.25 0.1 -0.05
v 0.55 -0.1 0.55
v 0.55 -0.1 -0.55
v 0.55 0 0.55
v 0.55 0 -0.55
v 0.55 0.1 0.55
v 0.55 0.1 -0.55
v -0.55 -0.1 0.55
v -0.55 0 0.55
v -0.55 0.1 0.55
v -0.45 0 0.55
v -0.45 0.1 0.55
v 0.05 0 0.55
v 0.05 0.1 0.55
v 0.55 -0.1 0.55
v 0.55 0 0.55
v 0.55 0.1 0.55
v -0.35 0 0.45
v -0.35 0.1 0.45
v 0.05 0 0.45
v 0.05 0.1 0.45
v -0.45 0 0.25
v -0.45 0.1 0.25
v 0.25 0 0.25
v 0.25 0.1 0.25
v 0.15 0 -0.15
v 0.15 0.1 -0.15
v 0.35 0 -0.15
v 0.35 0.1 -0.15
v -0.55 0 -0.25
v -0.55 0.1 -0.25
v -0.35 0 -0.25
v -0.35 0.1 -0.25
v -0.35 0 -0.45
v -0.35 0.1 -0.45
v 0.15 0 -0.45
v 0.15 0.1 -0.45
v -0.35 0 0.35
v -0.35 0.1 0.35
v 0.35 0 0.35
v 0.35 0.1 0.35
v -0.55 0 0.05
v -0.55 0.1 0.05
v -0.45 0 0.05
v -0.45 0.1 0.05
v 0.05 0 -0.05
v 0.05 0.1 -0.05
v 0.25 0 -0.05
v 0.25 0.1 -0.05
v -0.45 0 -0.15
v -0.45 0.1 -0.15
v -0.25 0 -0.15
v -0.25 0.1 -0.15
v -0.25 0 -0.35
v -0.25 0.1 -0.35
v 0.05 0 -0.35
v 0.05 0.1 -0.35
v -0.55 -0.1 -0.55
v -0.55 0 -0.55
v -0.55 0.1 -0.55
v 0.55 -0.1 -0.55
v 0.55 0 -0.55
v 0.55 0.1 -0.55
v -0.55 -0.1 0.55
v 0.55 -0.1 0.55
v -0.55 -0.1 -0.55
v 0.55 -0.1 -0.55
v -0.45 0 0.55
v 0.05 0 0.55
v -0.35 0 0.45
v 0.05 0 0.45
v -0.35 0 0.35
v 0.35 0 0.35
v -0.45 0 0.25
v 0.25 0 0.25
v -0.55 0 0.05
v -0.45 0 0.05
v 0.05 0 -0.05
v 0.25 0 -0.05
v -0.45 0 -0.15
v -0.25 0 -0.15
v 0.15 0 -0.15
v 0.35 0 -0.15
v -0.55 0 -0.25
v -0.35 0 -0.25
v -0.25 0 -0.35
v 0.05 0 -0.35
v -0.35 0 -0.45
v 0.15 0 -0.45
v -0.55 0.1 0.55
v -0.45 0.1 0.55
v 0.05 0.1 0.55
v 0.55 0.1 0.55
v -0.35 0.1 0.45
v 0.05 0.1 0.45
v -0.35 0.1 0.35
v 0.35 0.1 0.35
v -0.45 0.1 0.25
v 0.25 0.1 0.25
v -0.55 0.1 0.05
v -0.45 0.1 0.05
v 0.05 0.1 -0.05
v 0.25 0.1 -0.05
v -0.45 0.1 -0.15
v -0.25 0.1 -0.15
v 0.15 0.1 -0.15
v 0.35 0.1 -0.15
v -0.55 0.1 -0.25
v -0.35 0.1 -0.25
v -0.25 0.1 -0.35
v 0.05 0.1 -0.35
v -0.35 0.1 -0.45
v 0.15 0.1 -0.45
v -0.55 0.1 -0.55
v 0.55 0.1 -0.55

# faces
f 3/1/1 2/1/1 1/1/1
f 4/1/1 2/1/1 3/1/1
f 5/1/1 2/1/1 4/1/1
f 6/1/1 2/1/1 5/1/1
f 7/2/1 4/2/1 3/2/1
f 8/2/1 4/2/1 7/2/1
f 9/2/1 6/2/1 5/2/1
f 10/2/1 6/2/1 9/2/1
f 13/2/1 12/2/1 11/2/1
f 14/2/1 12/2/1 13/2/1
f 17/2/1 16/2/1 15/2/1
f 18/2/1 16/2/1 17/2/1
f 21/2/1 20/2/1 19/2/1
f 22/2/1 20/2/1 21/2/1
f 25/2/1 24/2/1 23/2/1
f 26/2/1 24/2/1 25/2/1
f 29/2/1 28/2/1 27/2/1
f 30/2/1 28/2/1 29/2/1
f 33/2/1 32/2/1 31/2/1
f 34/2/1 32/2/1 33/2/1
f 35/2/2 36/2/2 37/2/2
f 37/2/2 36/2/2 38/2/2
f 39/2/2 40/2/2 41/2/2
f 41/2/2 40/2/2 42/2/2
f 43/2/2 44/2/2 45/2/2
f 45/2/2 44/2/2 46/2/2
f 47/2/2 48/2/2 49/2/2
f 49/2/2 48/2/2 50/2/2
f 51/1/2 52/1/2 53/1/2
f 53/1/2 52/1/2 54/1/2
f 53/2/2 54/2/2 55/2/2
f 55/2/2 54/2/2 56/2/2
f 60/1/3 58/1/3 57/1/3
f 60/2/3 59/2/3 58/2/3
f 61/2/3 59/2/3 60/2/3
f 62/1/3 60/1/3 57/1/3
f 64/1/3 62/1/3 57/1/3
f 65/2/3 63/2/3 62/2/3
f 65/1/3 62/1/3 64/1/3
f 66/2/3 63/2/3 65/2/3
f 69/2/3 68/2/3 67/2/3
f 70/2/3 68/2/3 69/2/3
f 73/2/3 72/2/3 71/2/3
f 74/2/3 72/2/3 73/2/3
f 77/2/3 76/2/3 75/2/3
f 78/2/3 76/2/3 77/2/3
f 81/2/3 80/2/3 79/2/3
f 82/2/3 80/2/3 81/2/3
f 85/2/3 84/2/3 83/2/3
f 86/2/3 84/2/3 85/2/3
f 87/2/4 88/2/4 89/2/4
f 89/2/4 88/2/4 90/2/4
f 91/2/4 92/2/4 93/2/4
f 93/2/4 92/2/4 94/2/4
f 95/2/4 96/2/4 97/2/4
f 97/2/4 96/2/4 98/2/4
f 99/2/4 100/2/4 101/2/4
f 101/2/4 100/2/4 102/2/4
f 103/2/4 104/2/4 105/2/4
f 105/2/4 104/2/4 106/2/4
f 107/1/4 108/1/4 110/1/4
f 108/2/4 109/2/4 111/2/4
f 110/1/4 108/1/4 111/1/4
f 111/2/4 109/2/4 112/2/4
f 115/1/5 114/1/5 113/1/5
f 116/1/5 114/1/5 115/1/5
f 117/1/6 118/1/6 119/1/6
f 119/1/6 118/1/6 120/1/6
f 117/1/6 119/1/6 121/1/6
f 117/1/6 121/1/6 123/1/6
f 121/1/6 122/1/6 123/1/6
f 123/1/6 122/1/6 124/1/6
f 124/1/6 122/1/6 128/1/6
f 125/1/6 126/1/6 129/1/6
f 127/1/6 128/1/6 131/1/6
f 128/1/6 122/1/6 132/1/6
f 131/1/6 128/1/6 132/1/6
f 129/1/6 130/1/6 133/1/6
f 125/1/6 129/1/6 133/1/6
f 133/1/6 130/1/6 134/1/6
f 134/1/6 130/1/6 135/1/6
f 127/1/6 131/1/6 136/1/6
f 134/1/6 135/1/6 137/1/6
f 135/1/6 136/1/6 137/1/6
f 136/1/6 131/1/6 138/1/6
f 137/1/6 136/1/6 138/1/6
f 141/2/6 142/2/6 144/2/6
f 143/2/6 144/2/6 145/2/6
f 144/2/6 142/2/6 146/2/6
f 145/2/6 144/2/6 146/2/6
f 139/2/6 140/2/6 147/2/6
f 139/2/6 147/2/6 149/2/6
f 147/2/6 148/2/6 149/2/6
f 149/2/6 148/2/6 150/2/6
f 150/2/6 148/2/6 151/2/6
f 151/2/6 148/2/6 152/2/6
f 150/2/6 151/2/6 153/2/6
f 153/2/6 151/2/6 154/2/6
f 146/2/6 142/2/6 156/2/6
f 154/2/6 151/2/6 159/2/6
f 159/2/6 151/2/6 160/2/6
f 157/2/6 158/2/6 161/2/6
f 155/2/6 156/2/6 162/2/6
f 157/2/6 161/2/6 163/2/6
f 161/2/6 162/2/6 163/2/6
f 162/2/6 156/2/6 164/2/6
f 163/2/6 162/2/6 164/2/6
f 156/2/6 142/2/6 164/2/6
