# MagicaVoxel @ Ephtracy

# group
o 

# material
mtllib 2_Teste_Tiles-6.mtl
usemtl palette

# normals
vn -1 0 0
vn 1 0 0
vn 0 0 1
vn 0 0 -1
vn 0 -1 0
vn 0 1 0

# texcoords
vt 0.783203 0.5
vt 0.939453 0.5

# verts
v -0.55 -0.1 0.55
v -0.55 -0.1 -0.55
v -0.55 0 0.55
v -0.55 0 0.05
v -0.55 0 -0.05
v -0.55 0 -0.55
v -0.55 0.1 0.55
v -0.55 0.1 0.05
v -0.55 0.1 -0.05
v -0.55 0.1 -0.55
v -0.35 0 0.25
v -0.35 0 -0.05
v -0.35 0.1 0.25
v -0.35 0.1 -0.05
v -0.15 0 0.35
v -0.15 0 0.05
v -0.15 0 -0.25
v -0.15 0 -0.35
v -0.15 0.1 0.35
v -0.15 0.1 0.05
v -0.15 0.1 -0.25
v -0.15 0.1 -0.35
v 0.05 0 0.05
v 0.05 0 -0.05
v 0.05 0 -0.35
v 0.05 0 -0.55
v 0.05 0.1 0.05
v 0.05 0.1 -0.05
v 0.05 0.1 -0.35
v 0.05 0.1 -0.55
v 0.25 0 0.15
v 0.25 0 -0.25
v 0.25 0.1 0.15
v 0.25 0.1 -0.25
v -0.45 0 0.35
v -0.45 0 0.05
v -0.45 0.1 0.35
v -0.45 0.1 0.05
v -0.25 0 0.25
v -0.25 0 -0.05
v -0.25 0 -0.15
v -0.25 0 -0.45
v -0.25 0.1 0.25
v -0.25 0.1 -0.05
v -0.25 0.1 -0.15
v -0.25 0.1 -0.45
v -0.05 0 0.15
v -0.05 0 0.05
v -0.05 0 -0.45
v -0.05 0 -0.55
v -0.05 0.1 0.15
v -0.05 0.1 0.05
v -0.05 0.1 -0.45
v -0.05 0.1 -0.55
v 0.15 0 0.05
v 0.15 0 -0.15
v 0.15 0.1 0.05
v 0.15 0.1 -0.15
v 0.55 -0.1 0.55
v 0.55 -0.1 -0.55
v 0.55 0 0.55
v 0.55 0 -0.55
v 0.55 0.1 0.55
v 0.55 0.1 -0.55
v -0.55 -0.1 0.55
v -0.55 0 0.55
v -0.55 0.1 0.55
v 0.55 -0.1 0.55
v 0.55 0 0.55
v 0.55 0.1 0.55
v -0.35 0 0.25
v -0.35 0.1 0.25
v -0.25 0 0.25
v -0.25 0.1 0.25
v 0.05 0 0.05
v 0.05 0.1 0.05
v 0.15 0 0.05
v 0.15 0.1 0.05
v -0.55 0 -0.05
v -0.55 0.1 -0.05
v -0.35 0 -0.05
v -0.35 0.1 -0.05
v -0.25 0 -0.05
v -0.25 0.1 -0.05
v 0.05 0 -0.05
v 0.05 0.1 -0.05
v -0.15 0 -0.25
v -0.15 0.1 -0.25
v 0.25 0 -0.25
v 0.25 0.1 -0.25
v -0.25 0 -0.45
v -0.25 0.1 -0.45
v -0.05 0 -0.45
v -0.05 0.1 -0.45
v -0.45 0 0.35
v -0.45 0.1 0.35
v -0.15 0 0.35
v -0.15 0.1 0.35
v -0.05 0 0.15
v -0.05 0.1 0.15
v 0.25 0 0.15
v 0.25 0.1 0.15
v -0.55 0 0.05
v -0.55 0.1 0.05
v -0.45 0 0.05
v -0.45 0.1 0.05
v -0.15 0 0.05
v -0.15 0.1 0.05
v -0.05 0 0.05
v -0.05 0.1 0.05
v -0.25 0 -0.15
v -0.25 0.1 -0.15
v 0.15 0 -0.15
v 0.15 0.1 -0.15
v -0.15 0 -0.35
v -0.15 0.1 -0.35
v 0.05 0 -0.35
v 0.05 0.1 -0.35
v -0.55 -0.1 -0.55
v -0.55 0 -0.55
v -0.55 0.1 -0.55
v -0.05 0 -0.55
v -0.05 0.1 -0.55
v 0.05 0 -0.55
v 0.05 0.1 -0.55
v 0.55 -0.1 -0.55
v 0.55 0 -0.55
v 0.55 0.1 -0.55
v -0.55 -0.1 0.55
v 0.55 -0.1 0.55
v -0.55 -0.1 -0.55
v 0.55 -0.1 -0.55
v -0.45 0 0.35
v -0.15 0 0.35
v -0.35 0 0.25
v -0.25 0 0.25
v -0.05 0 0.15
v 0.25 0 0.15
v -0.55 0 0.05
v -0.45 0 0.05
v -0.15 0 0.05
v -0.05 0 0.05
v 0.05 0 0.05
v 0.15 0 0.05
v -0.55 0 -0.05
v -0.35 0 -0.05
v -0.25 0 -0.05
v 0.05 0 -0.05
v -0.25 0 -0.15
v 0.15 0 -0.15
v -0.15 0 -0.25
v 0.25 0 -0.25
v -0.15 0 -0.35
v 0.05 0 -0.35
v -0.25 0 -0.45
v -0.05 0 -0.45
v -0.05 0 -0.55
v 0.05 0 -0.55
v -0.55 0.1 0.55
v 0.55 0.1 0.55
v -0.45 0.1 0.35
v -0.15 0.1 0.35
v -0.35 0.1 0.25
v -0.25 0.1 0.25
v -0.05 0.1 0.15
v 0.25 0.1 0.15
v -0.55 0.1 0.05
v -0.45 0.1 0.05
v -0.15 0.1 0.05
v -0.05 0.1 0.05
v 0.05 0.1 0.05
v 0.15 0.1 0.05
v -0.55 0.1 -0.05
v -0.35 0.1 -0.05
v -0.25 0.1 -0.05
v 0.05 0.1 -0.05
v -0.25 0.1 -0.15
v 0.15 0.1 -0.15
v -0.15 0.1 -0.25
v 0.25 0.1 -0.25
v -0.15 0.1 -0.35
v 0.05 0.1 -0.35
v -0.25 0.1 -0.45
v -0.05 0.1 -0.45
v -0.55 0.1 -0.55
v -0.05 0.1 -0.55
v 0.05 0.1 -0.55
v 0.55 0.1 -0.55

# faces
f 3/1/1 2/1/1 1/1/1
f 4/1/1 2/1/1 3/1/1
f 5/1/1 2/1/1 4/1/1
f 6/1/1 2/1/1 5/1/1
f 7/2/1 4/2/1 3/2/1
f 8/2/1 4/2/1 7/2/1
f 9/2/1 6/2/1 5/2/1
f 10/2/1 6/2/1 9/2/1
f 13/2/1 12/2/1 11/2/1
f 14/2/1 12/2/1 13/2/1
f 19/2/1 16/2/1 15/2/1
f 20/2/1 16/2/1 19/2/1
f 21/2/1 18/2/1 17/2/1
f 22/2/1 18/2/1 21/2/1
f 27/2/1 24/2/1 23/2/1
f 28/2/1 24/2/1 27/2/1
f 29/2/1 26/2/1 25/2/1
f 30/2/1 26/2/1 29/2/1
f 33/2/1 32/2/1 31/2/1
f 34/2/1 32/2/1 33/2/1
f 35/2/2 36/2/2 37/2/2
f 37/2/2 36/2/2 38/2/2
f 39/2/2 40/2/2 43/2/2
f 43/2/2 40/2/2 44/2/2
f 41/2/2 42/2/2 45/2/2
f 45/2/2 42/2/2 46/2/2
f 47/2/2 48/2/2 51/2/2
f 51/2/2 48/2/2 52/2/2
f 49/2/2 50/2/2 53/2/2
f 53/2/2 50/2/2 54/2/2
f 55/2/2 56/2/2 57/2/2
f 57/2/2 56/2/2 58/2/2
f 59/1/2 60/1/2 61/1/2
f 61/1/2 60/1/2 62/1/2
f 61/2/2 62/2/2 63/2/2
f 63/2/2 62/2/2 64/2/2
f 68/1/3 66/1/3 65/1/3
f 69/2/3 67/2/3 66/2/3
f 69/1/3 66/1/3 68/1/3
f 70/2/3 67/2/3 69/2/3
f 73/2/3 72/2/3 71/2/3
f 74/2/3 72/2/3 73/2/3
f 77/2/3 76/2/3 75/2/3
f 78/2/3 76/2/3 77/2/3
f 81/2/3 80/2/3 79/2/3
f 82/2/3 80/2/3 81/2/3
f 85/2/3 84/2/3 83/2/3
f 86/2/3 84/2/3 85/2/3
f 89/2/3 88/2/3 87/2/3
f 90/2/3 88/2/3 89/2/3
f 93/2/3 92/2/3 91/2/3
f 94/2/3 92/2/3 93/2/3
f 95/2/4 96/2/4 97/2/4
f 97/2/4 96/2/4 98/2/4
f 99/2/4 100/2/4 101/2/4
f 101/2/4 100/2/4 102/2/4
f 103/2/4 104/2/4 105/2/4
f 105/2/4 104/2/4 106/2/4
f 107/2/4 108/2/4 109/2/4
f 109/2/4 108/2/4 110/2/4
f 111/2/4 112/2/4 113/2/4
f 113/2/4 112/2/4 114/2/4
f 115/2/4 116/2/4 117/2/4
f 117/2/4 116/2/4 118/2/4
f 119/1/4 120/1/4 122/1/4
f 120/2/4 121/2/4 122/2/4
f 122/2/4 121/2/4 123/2/4
f 119/1/4 122/1/4 124/1/4
f 119/1/4 124/1/4 126/1/4
f 124/2/4 125/2/4 127/2/4
f 126/1/4 124/1/4 127/1/4
f 127/2/4 125/2/4 128/2/4
f 131/1/5 130/1/5 129/1/5
f 132/1/5 130/1/5 131/1/5
f 133/1/6 134/1/6 135/1/6
f 135/1/6 134/1/6 136/1/6
f 133/1/6 135/1/6 140/1/6
f 136/1/6 134/1/6 141/1/6
f 137/1/6 138/1/6 142/1/6
f 142/1/6 138/1/6 143/1/6
f 143/1/6 138/1/6 144/1/6
f 139/1/6 140/1/6 145/1/6
f 140/1/6 135/1/6 146/1/6
f 145/1/6 140/1/6 146/1/6
f 136/1/6 141/1/6 147/1/6
f 141/1/6 142/1/6 147/1/6
f 142/1/6 143/1/6 147/1/6
f 147/1/6 143/1/6 148/1/6
f 144/1/6 138/1/6 150/1/6
f 149/1/6 150/1/6 151/1/6
f 150/1/6 138/1/6 152/1/6
f 151/1/6 150/1/6 152/1/6
f 149/1/6 151/1/6 153/1/6
f 149/1/6 153/1/6 155/1/6
f 153/1/6 154/1/6 155/1/6
f 155/1/6 154/1/6 156/1/6
f 156/1/6 154/1/6 157/1/6
f 157/1/6 154/1/6 158/1/6
f 159/2/6 160/2/6 161/2/6
f 161/2/6 160/2/6 162/2/6
f 162/2/6 160/2/6 165/2/6
f 165/2/6 160/2/6 166/2/6
f 159/2/6 161/2/6 167/2/6
f 167/2/6 161/2/6 168/2/6
f 162/2/6 165/2/6 169/2/6
f 169/2/6 165/2/6 170/2/6
f 163/2/6 164/2/6 174/2/6
f 174/2/6 164/2/6 175/2/6
f 171/2/6 172/2/6 176/2/6
f 174/2/6 175/2/6 177/2/6
f 175/2/6 176/2/6 177/2/6
f 173/2/6 174/2/6 177/2/6
f 176/2/6 172/2/6 178/2/6
f 177/2/6 176/2/6 178/2/6
f 166/2/6 160/2/6 180/2/6
f 179/2/6 180/2/6 181/2/6
f 181/2/6 180/2/6 182/2/6
f 173/2/6 177/2/6 183/2/6
f 173/2/6 183/2/6 185/2/6
f 183/2/6 184/2/6 185/2/6
f 185/2/6 184/2/6 186/2/6
f 182/2/6 180/2/6 187/2/6
f 180/2/6 160/2/6 188/2/6
f 187/2/6 180/2/6 188/2/6
