# MagicaVoxel @ Ephtracy

# group
o 

# material
mtllib Base_Teste_Tiles-2.mtl
usemtl palette

# normals
vn -1 0 0
vn 1 0 0
vn 0 0 1
vn 0 0 -1
vn 0 -1 0
vn 0 1 0

# texcoords
vt 0.783203 0.5
vt 0.845703 0.5
vt 0.876953 0.5

# verts
v -0.55 -0.1 0.55
v -0.55 -0.1 -0.55
v -0.55 0 0.55
v -0.55 0 0.05
v -0.55 0 -0.05
v -0.55 0 -0.55
v -0.55 0.1 0.55
v -0.55 0.1 0.05
v -0.55 0.1 -0.05
v -0.55 0.1 -0.55
v -0.15 0 0.05
v -0.15 0 -0.05
v -0.15 0.1 0.05
v -0.15 0.1 -0.05
v 0.15 0 0.05
v 0.15 0 -0.05
v 0.15 0.1 0.05
v 0.15 0.1 -0.05
v 0.55 -0.1 0.55
v 0.55 -0.1 -0.55
v 0.55 0 0.55
v 0.55 0 0.05
v 0.55 0 -0.05
v 0.55 0 -0.55
v 0.55 0.1 0.55
v 0.55 0.1 0.05
v 0.55 0.1 -0.05
v 0.55 0.1 -0.55
v -0.55 -0.1 0.55
v -0.55 0 0.55
v -0.55 0.1 0.55
v 0.55 -0.1 0.55
v 0.55 0 0.55
v 0.55 0.1 0.55
v -0.55 0 -0.05
v -0.55 0.1 -0.05
v -0.15 0 -0.05
v -0.15 0.1 -0.05
v 0.15 0 -0.05
v 0.15 0.1 -0.05
v 0.55 0 -0.05
v 0.55 0.1 -0.05
v -0.55 0 0.05
v -0.55 0.1 0.05
v -0.15 0 0.05
v -0.15 0.1 0.05
v 0.15 0 0.05
v 0.15 0.1 0.05
v 0.55 0 0.05
v 0.55 0.1 0.05
v -0.55 -0.1 -0.55
v -0.55 0 -0.55
v -0.55 0.1 -0.55
v 0.55 -0.1 -0.55
v 0.55 0 -0.55
v 0.55 0.1 -0.55
v -0.55 -0.1 0.55
v 0.55 -0.1 0.55
v -0.55 -0.1 -0.55
v 0.55 -0.1 -0.55
v -0.55 0 0.05
v -0.15 0 0.05
v 0.15 0 0.05
v 0.55 0 0.05
v -0.55 0 -0.05
v -0.15 0 -0.05
v 0.15 0 -0.05
v 0.55 0 -0.05
v -0.55 0.1 0.55
v 0.55 0.1 0.55
v -0.15 0.1 0.15
v 0.15 0.1 0.15
v -0.55 0.1 0.05
v -0.15 0.1 0.05
v 0.15 0.1 0.05
v 0.55 0.1 0.05
v -0.55 0.1 -0.05
v -0.15 0.1 -0.05
v 0.15 0.1 -0.05
v 0.55 0.1 -0.05
v -0.15 0.1 -0.15
v 0.15 0.1 -0.15
v -0.55 0.1 -0.55
v 0.55 0.1 -0.55

# faces
f 3/1/1 2/1/1 1/1/1
f 4/1/1 2/1/1 3/1/1
f 5/1/1 2/1/1 4/1/1
f 6/1/1 2/1/1 5/1/1
f 7/2/1 4/2/1 3/2/1
f 8/2/1 4/2/1 7/2/1
f 9/2/1 6/2/1 5/2/1
f 10/2/1 6/2/1 9/2/1
f 13/3/1 12/3/1 11/3/1
f 14/3/1 12/3/1 13/3/1
f 15/3/2 16/3/2 17/3/2
f 17/3/2 16/3/2 18/3/2
f 19/1/2 20/1/2 21/1/2
f 21/1/2 20/1/2 22/1/2
f 22/1/2 20/1/2 23/1/2
f 23/1/2 20/1/2 24/1/2
f 21/2/2 22/2/2 25/2/2
f 25/2/2 22/2/2 26/2/2
f 23/2/2 24/2/2 27/2/2
f 27/2/2 24/2/2 28/2/2
f 32/1/3 30/1/3 29/1/3
f 33/2/3 31/2/3 30/2/3
f 33/1/3 30/1/3 32/1/3
f 34/2/3 31/2/3 33/2/3
f 37/2/3 36/2/3 35/2/3
f 38/2/3 36/2/3 37/2/3
f 41/2/3 40/2/3 39/2/3
f 42/2/3 40/2/3 41/2/3
f 43/2/4 44/2/4 45/2/4
f 45/2/4 44/2/4 46/2/4
f 47/2/4 48/2/4 49/2/4
f 49/2/4 48/2/4 50/2/4
f 51/1/4 52/1/4 54/1/4
f 52/2/4 53/2/4 55/2/4
f 54/1/4 52/1/4 55/1/4
f 55/2/4 53/2/4 56/2/4
f 59/1/5 58/1/5 57/1/5
f 60/1/5 58/1/5 59/1/5
f 61/1/6 62/1/6 65/1/6
f 65/1/6 62/1/6 66/1/6
f 63/1/6 64/1/6 67/1/6
f 67/1/6 64/1/6 68/1/6
f 69/2/6 70/2/6 71/2/6
f 71/2/6 70/2/6 72/2/6
f 69/2/6 71/2/6 73/2/6
f 71/3/6 72/3/6 74/3/6
f 73/2/6 71/2/6 74/2/6
f 72/2/6 70/2/6 75/2/6
f 74/3/6 72/3/6 75/3/6
f 75/2/6 70/2/6 76/2/6
f 74/3/6 75/3/6 78/3/6
f 78/3/6 75/3/6 79/3/6
f 77/2/6 78/2/6 81/2/6
f 78/3/6 79/3/6 81/3/6
f 79/2/6 80/2/6 82/2/6
f 81/3/6 79/3/6 82/3/6
f 77/2/6 81/2/6 83/2/6
f 81/2/6 82/2/6 83/2/6
f 82/2/6 80/2/6 84/2/6
f 83/2/6 82/2/6 84/2/6
