# MagicaVoxel @ Ephtracy

# group
o 

# material
mtllib Cabeca-1.mtl
usemtl palette

# normals
vn -1 0 0
vn 1 0 0
vn 0 0 1
vn 0 0 -1
vn 0 -1 0
vn 0 1 0

# texcoords
vt 0.224609 0.5
vt 0.478516 0.5
vt 0.572266 0.5

# verts
v -0.25 -0.2 0.15
v -0.25 -0.2 -0.15
v -0.25 -0.1 0.15
v -0.25 -0.1 0.05
v -0.25 -0.1 -0.05
v -0.25 -0.1 -0.15
v -0.25 0 0.15
v -0.25 0 0.05
v -0.25 0 -0.05
v -0.25 0 -0.15
v -0.25 0.1 0.15
v -0.25 0.1 0.05
v -0.25 0.1 -0.05
v -0.25 0.1 -0.15
v -0.25 0.2 0.15
v -0.25 0.2 -0.15
v -0.05 0 0.25
v -0.05 0 0.15
v -0.05 0 -0.15
v -0.05 0 -0.25
v -0.05 0.1 0.25
v -0.05 0.1 0.15
v -0.05 0.1 -0.15
v -0.05 0.1 -0.25
v 0.05 0.1 0.25
v 0.05 0.1 0.15
v 0.05 0.1 -0.15
v 0.05 0.1 -0.25
v 0.05 0.2 0.25
v 0.05 0.2 0.15
v 0.05 0.2 -0.15
v 0.05 0.2 -0.25
v 0.05 -0.2 0.15
v 0.05 -0.2 -0.15
v 0.05 -0.1 0.15
v 0.05 -0.1 -0.15
v 0.05 0 0.25
v 0.05 0 0.15
v 0.05 0 -0.15
v 0.05 0 -0.25
v 0.05 0.1 0.25
v 0.05 0.1 0.15
v 0.05 0.1 -0.15
v 0.05 0.1 -0.25
v 0.05 0.2 0.15
v 0.05 0.2 -0.15
v 0.15 0.1 0.25
v 0.15 0.1 0.15
v 0.15 0.1 -0.15
v 0.15 0.1 -0.25
v 0.15 0.2 0.25
v 0.15 0.2 0.15
v 0.15 0.2 -0.15
v 0.15 0.2 -0.25
v -0.05 0 0.25
v -0.05 0.1 0.25
v 0.05 0 0.25
v 0.05 0.1 0.25
v 0.05 0.2 0.25
v 0.15 0.1 0.25
v 0.15 0.2 0.25
v -0.25 -0.2 0.15
v -0.25 -0.1 0.15
v -0.25 0 0.15
v -0.25 0.1 0.15
v -0.25 0.2 0.15
v -0.15 -0.1 0.15
v -0.15 0 0.15
v -0.15 0.1 0.15
v -0.05 -0.1 0.15
v -0.05 0 0.15
v -0.05 0.1 0.15
v 0.05 -0.2 0.15
v 0.05 -0.1 0.15
v 0.05 0 0.15
v 0.05 0.1 0.15
v 0.05 0.2 0.15
v 0.05 0.1 -0.15
v 0.05 0.2 -0.15
v 0.15 0.1 -0.15
v 0.15 0.2 -0.15
v 0.05 0.1 0.15
v 0.05 0.2 0.15
v 0.15 0.1 0.15
v 0.15 0.2 0.15
v -0.25 -0.2 -0.15
v -0.25 -0.1 -0.15
v -0.25 0 -0.15
v -0.25 0.1 -0.15
v -0.25 0.2 -0.15
v -0.15 -0.1 -0.15
v -0.15 0 -0.15
v -0.15 0.1 -0.15
v -0.05 -0.1 -0.15
v -0.05 0 -0.15
v -0.05 0.1 -0.15
v 0.05 -0.2 -0.15
v 0.05 -0.1 -0.15
v 0.05 0 -0.15
v 0.05 0.1 -0.15
v 0.05 0.2 -0.15
v -0.05 0 -0.25
v -0.05 0.1 -0.25
v 0.05 0 -0.25
v 0.05 0.1 -0.25
v 0.05 0.2 -0.25
v 0.15 0.1 -0.25
v 0.15 0.2 -0.25
v -0.25 -0.2 0.15
v 0.05 -0.2 0.15
v -0.25 -0.2 -0.15
v 0.05 -0.2 -0.15
v -0.05 0 0.25
v 0.05 0 0.25
v -0.05 0 0.15
v 0.05 0 0.15
v -0.05 0 -0.15
v 0.05 0 -0.15
v -0.05 0 -0.25
v 0.05 0 -0.25
v 0.05 0.1 0.25
v 0.15 0.1 0.25
v 0.05 0.1 0.15
v 0.15 0.1 0.15
v 0.05 0.1 -0.15
v 0.15 0.1 -0.15
v 0.05 0.1 -0.25
v 0.15 0.1 -0.25
v -0.05 0.1 0.25
v 0.05 0.1 0.25
v -0.05 0.1 0.15
v 0.05 0.1 0.15
v -0.05 0.1 -0.15
v 0.05 0.1 -0.15
v -0.05 0.1 -0.25
v 0.05 0.1 -0.25
v 0.05 0.2 0.25
v 0.15 0.2 0.25
v -0.25 0.2 0.15
v 0.05 0.2 0.15
v 0.15 0.2 0.15
v -0.25 0.2 -0.15
v 0.05 0.2 -0.15
v 0.15 0.2 -0.15
v 0.05 0.2 -0.25
v 0.15 0.2 -0.25

# faces
f 3/2/1 2/2/1 1/2/1
f 4/2/1 2/2/1 3/2/1
f 5/2/1 2/2/1 4/2/1
f 6/2/1 2/2/1 5/2/1
f 7/1/1 4/1/1 3/1/1
f 8/2/1 5/2/1 4/2/1
f 8/1/1 4/1/1 7/1/1
f 9/1/1 6/1/1 5/1/1
f 9/2/1 5/2/1 8/2/1
f 10/1/1 6/1/1 9/1/1
f 11/2/1 8/2/1 7/2/1
f 12/3/1 9/3/1 8/3/1
f 12/2/1 8/2/1 11/2/1
f 13/2/1 10/2/1 9/2/1
f 13/3/1 9/3/1 12/3/1
f 14/2/1 10/2/1 13/2/1
f 15/3/1 12/3/1 11/3/1
f 15/3/1 13/3/1 12/3/1
f 15/3/1 14/3/1 13/3/1
f 16/3/1 14/3/1 15/3/1
f 21/2/1 18/2/1 17/2/1
f 22/2/1 18/2/1 21/2/1
f 23/2/1 20/2/1 19/2/1
f 24/2/1 20/2/1 23/2/1
f 29/2/1 26/2/1 25/2/1
f 30/2/1 26/2/1 29/2/1
f 31/2/1 28/2/1 27/2/1
f 32/2/1 28/2/1 31/2/1
f 33/2/2 34/2/2 35/2/2
f 35/2/2 34/2/2 36/2/2
f 35/3/2 36/3/2 38/3/2
f 38/3/2 36/3/2 39/3/2
f 37/2/2 38/2/2 41/2/2
f 38/3/2 39/3/2 42/3/2
f 41/2/2 38/2/2 42/2/2
f 39/2/2 40/2/2 43/2/2
f 42/3/2 39/3/2 43/3/2
f 43/2/2 40/2/2 44/2/2
f 42/3/2 43/3/2 45/3/2
f 45/3/2 43/3/2 46/3/2
f 47/2/2 48/2/2 51/2/2
f 51/2/2 48/2/2 52/2/2
f 49/2/2 50/2/2 53/2/2
f 53/2/2 50/2/2 54/2/2
f 57/2/3 56/2/3 55/2/3
f 58/2/3 56/2/3 57/2/3
f 60/2/3 59/2/3 58/2/3
f 61/2/3 59/2/3 60/2/3
f 67/2/3 63/2/3 62/2/3
f 67/1/3 64/1/3 63/1/3
f 68/2/3 65/2/3 64/2/3
f 68/1/3 64/1/3 67/1/3
f 69/3/3 66/3/3 65/3/3
f 69/2/3 65/2/3 68/2/3
f 70/2/3 68/2/3 67/2/3
f 70/2/3 67/2/3 62/2/3
f 71/3/3 69/3/3 68/3/3
f 71/2/3 68/2/3 70/2/3
f 72/3/3 66/3/3 69/3/3
f 72/3/3 69/3/3 71/3/3
f 73/2/3 70/2/3 62/2/3
f 74/3/3 71/3/3 70/3/3
f 74/2/3 70/2/3 73/2/3
f 75/3/3 71/3/3 74/3/3
f 76/3/3 66/3/3 72/3/3
f 77/3/3 66/3/3 76/3/3
f 80/2/3 79/2/3 78/2/3
f 81/2/3 79/2/3 80/2/3
f 82/2/4 83/2/4 84/2/4
f 84/2/4 83/2/4 85/2/4
f 86/2/4 87/2/4 91/2/4
f 87/1/4 88/1/4 91/1/4
f 88/2/4 89/2/4 92/2/4
f 91/1/4 88/1/4 92/1/4
f 89/3/4 90/3/4 93/3/4
f 92/2/4 89/2/4 93/2/4
f 91/2/4 92/2/4 94/2/4
f 86/2/4 91/2/4 94/2/4
f 92/3/4 93/3/4 95/3/4
f 94/2/4 92/2/4 95/2/4
f 93/3/4 90/3/4 96/3/4
f 95/3/4 93/3/4 96/3/4
f 86/2/4 94/2/4 97/2/4
f 94/3/4 95/3/4 98/3/4
f 97/2/4 94/2/4 98/2/4
f 98/3/4 95/3/4 99/3/4
f 96/3/4 90/3/4 100/3/4
f 100/3/4 90/3/4 101/3/4
f 102/2/4 103/2/4 104/2/4
f 104/2/4 103/2/4 105/2/4
f 105/2/4 106/2/4 107/2/4
f 107/2/4 106/2/4 108/2/4
f 111/2/5 110/2/5 109/2/5
f 112/2/5 110/2/5 111/2/5
f 115/2/5 114/2/5 113/2/5
f 116/2/5 114/2/5 115/2/5
f 119/2/5 118/2/5 117/2/5
f 120/2/5 118/2/5 119/2/5
f 123/2/5 122/2/5 121/2/5
f 124/2/5 122/2/5 123/2/5
f 127/2/5 126/2/5 125/2/5
f 128/2/5 126/2/5 127/2/5
f 129/2/6 130/2/6 131/2/6
f 131/2/6 130/2/6 132/2/6
f 133/2/6 134/2/6 135/2/6
f 135/2/6 134/2/6 136/2/6
f 137/2/6 138/2/6 140/2/6
f 140/2/6 138/2/6 141/2/6
f 139/3/6 140/3/6 142/3/6
f 142/3/6 140/3/6 143/3/6
f 143/2/6 144/2/6 145/2/6
f 145/2/6 144/2/6 146/2/6
