# MagicaVoxel @ Ephtracy

# group
o 

# material
mtllib Cabeca_test--1.mtl
usemtl palette

# normals
vn -1 0 0
vn 1 0 0
vn 0 0 1
vn 0 0 -1
vn 0 -1 0
vn 0 1 0

# texcoords
vt 0.509766 0.5
vt 0.783203 0.5

# verts
v -0.3 -0.35 0.2
v -0.3 -0.35 -0.2
v -0.3 -0.25 0.2
v -0.3 -0.25 0.1
v -0.3 -0.25 -0.1
v -0.3 -0.25 -0.2
v -0.3 -0.15 0.2
v -0.3 -0.15 0.1
v -0.3 -0.15 -0.1
v -0.3 -0.15 -0.2
v -0.3 -0.05 0.2
v -0.3 -0.05 0.1
v -0.3 -0.05 -0.1
v -0.3 -0.05 -0.2
v -0.3 0.05 0.2
v -0.3 0.05 0.1
v -0.3 0.05 -0.1
v -0.3 0.05 -0.2
v -0.3 0.15 0.2
v -0.3 0.15 0.1
v -0.3 0.15 -0.1
v -0.3 0.15 -0.2
v -0.3 0.25 0.2
v -0.3 0.25 0.1
v -0.3 0.25 -0.1
v -0.3 0.25 -0.2
v -0.3 0.35 0.2
v -0.3 0.35 -0.2
v 0.1 -0.35 0.2
v 0.1 -0.35 -0.2
v 0.1 0.35 0.2
v 0.1 0.35 -0.2
v -0.3 -0.35 0.2
v -0.3 -0.25 0.2
v -0.3 -0.15 0.2
v -0.3 -0.05 0.2
v -0.3 0.05 0.2
v -0.3 0.15 0.2
v -0.3 0.25 0.2
v -0.3 0.35 0.2
v -0.2 -0.25 0.2
v -0.2 -0.15 0.2
v -0.2 -0.05 0.2
v -0.2 0.05 0.2
v -0.2 0.15 0.2
v -0.2 0.25 0.2
v 0.1 -0.35 0.2
v 0.1 0.35 0.2
v -0.3 -0.35 -0.2
v -0.3 -0.25 -0.2
v -0.3 -0.15 -0.2
v -0.3 -0.05 -0.2
v -0.3 0.05 -0.2
v -0.3 0.15 -0.2
v -0.3 0.25 -0.2
v -0.3 0.35 -0.2
v -0.2 -0.25 -0.2
v -0.2 -0.15 -0.2
v -0.2 -0.05 -0.2
v -0.2 0.05 -0.2
v -0.2 0.15 -0.2
v -0.2 0.25 -0.2
v 0.1 -0.35 -0.2
v 0.1 0.35 -0.2
v -0.3 -0.35 0.2
v 0.1 -0.35 0.2
v -0.3 -0.35 -0.2
v 0.1 -0.35 -0.2
v -0.3 0.35 0.2
v 0.1 0.35 0.2
v -0.3 0.35 -0.2
v 0.1 0.35 -0.2

# faces
f 3/1/1 2/1/1 1/1/1
f 4/1/1 2/1/1 3/1/1
f 5/1/1 2/1/1 4/1/1
f 6/1/1 2/1/1 5/1/1
f 7/2/1 4/2/1 3/2/1
f 8/1/1 5/1/1 4/1/1
f 8/2/1 4/2/1 7/2/1
f 9/2/1 6/2/1 5/2/1
f 9/1/1 5/1/1 8/1/1
f 10/2/1 6/2/1 9/2/1
f 11/1/1 8/1/1 7/1/1
f 11/1/1 9/1/1 8/1/1
f 11/1/1 10/1/1 9/1/1
f 12/1/1 10/1/1 11/1/1
f 13/1/1 10/1/1 12/1/1
f 14/1/1 10/1/1 13/1/1
f 15/2/1 12/2/1 11/2/1
f 16/1/1 13/1/1 12/1/1
f 16/2/1 12/2/1 15/2/1
f 17/2/1 14/2/1 13/2/1
f 17/1/1 13/1/1 16/1/1
f 18/2/1 14/2/1 17/2/1
f 19/1/1 16/1/1 15/1/1
f 19/1/1 17/1/1 16/1/1
f 19/1/1 18/1/1 17/1/1
f 20/1/1 18/1/1 19/1/1
f 21/1/1 18/1/1 20/1/1
f 22/1/1 18/1/1 21/1/1
f 23/2/1 20/2/1 19/2/1
f 24/1/1 21/1/1 20/1/1
f 24/2/1 20/2/1 23/2/1
f 25/2/1 22/2/1 21/2/1
f 25/1/1 21/1/1 24/1/1
f 26/2/1 22/2/1 25/2/1
f 27/1/1 24/1/1 23/1/1
f 27/1/1 25/1/1 24/1/1
f 27/1/1 26/1/1 25/1/1
f 28/1/1 26/1/1 27/1/1
f 29/1/2 30/1/2 31/1/2
f 31/1/2 30/1/2 32/1/2
f 41/1/3 34/1/3 33/1/3
f 41/2/3 35/2/3 34/2/3
f 42/1/3 36/1/3 35/1/3
f 42/2/3 35/2/3 41/2/3
f 43/2/3 37/2/3 36/2/3
f 43/1/3 36/1/3 42/1/3
f 44/1/3 38/1/3 37/1/3
f 44/2/3 37/2/3 43/2/3
f 45/2/3 39/2/3 38/2/3
f 45/1/3 38/1/3 44/1/3
f 46/1/3 40/1/3 39/1/3
f 46/2/3 39/2/3 45/2/3
f 47/1/3 45/1/3 44/1/3
f 47/1/3 44/1/3 43/1/3
f 47/1/3 46/1/3 45/1/3
f 47/1/3 43/1/3 42/1/3
f 47/1/3 42/1/3 41/1/3
f 47/1/3 41/1/3 33/1/3
f 48/1/3 40/1/3 46/1/3
f 48/1/3 46/1/3 47/1/3
f 49/1/4 50/1/4 57/1/4
f 50/2/4 51/2/4 57/2/4
f 51/1/4 52/1/4 58/1/4
f 57/2/4 51/2/4 58/2/4
f 52/2/4 53/2/4 59/2/4
f 58/1/4 52/1/4 59/1/4
f 53/1/4 54/1/4 60/1/4
f 59/2/4 53/2/4 60/2/4
f 54/2/4 55/2/4 61/2/4
f 60/1/4 54/1/4 61/1/4
f 55/1/4 56/1/4 62/1/4
f 61/2/4 55/2/4 62/2/4
f 60/1/4 61/1/4 63/1/4
f 59/1/4 60/1/4 63/1/4
f 61/1/4 62/1/4 63/1/4
f 58/1/4 59/1/4 63/1/4
f 57/1/4 58/1/4 63/1/4
f 49/1/4 57/1/4 63/1/4
f 62/1/4 56/1/4 64/1/4
f 63/1/4 62/1/4 64/1/4
f 67/1/5 66/1/5 65/1/5
f 68/1/5 66/1/5 67/1/5
f 69/1/6 70/1/6 71/1/6
f 71/1/6 70/1/6 72/1/6
