# MagicaVoxel @ Ephtracy

# group
o 

# material
mtllib Cabeca-4.mtl
usemtl palette

# normals
vn -1 0 0
vn 1 0 0
vn 0 0 1
vn 0 0 -1
vn 0 -1 0
vn 0 1 0

# texcoords
vt 0.345703 0.5
vt 0.388672 0.5
vt 0.478516 0.5

# verts
v -0.35 -0.3 0.25
v -0.35 -0.3 0.15
v -0.35 -0.3 -0.15
v -0.35 -0.3 -0.25
v -0.35 -0.2 0.35
v -0.35 -0.2 0.25
v -0.35 -0.2 0.15
v -0.35 -0.2 -0.15
v -0.35 -0.2 -0.25
v -0.35 -0.2 -0.35
v -0.35 -0.1 0.35
v -0.35 -0.1 -0.35
v -0.35 0 0.25
v -0.35 0 -0.25
v -0.35 0.1 0.25
v -0.35 0.1 -0.25
v -0.25 -0.3 0.35
v -0.25 -0.3 0.25
v -0.25 -0.3 0.15
v -0.25 -0.3 -0.15
v -0.25 -0.3 -0.25
v -0.25 -0.3 -0.35
v -0.25 -0.2 0.35
v -0.25 -0.2 0.25
v -0.25 -0.2 0.15
v -0.25 -0.2 -0.15
v -0.25 -0.2 -0.25
v -0.25 -0.2 -0.35
v -0.25 -0.1 0.25
v -0.25 -0.1 0.15
v -0.25 -0.1 0.05
v -0.25 -0.1 -0.05
v -0.25 -0.1 -0.15
v -0.25 -0.1 -0.25
v -0.25 0 0.25
v -0.25 0 0.15
v -0.25 0 0.05
v -0.25 0 -0.05
v -0.25 0 -0.15
v -0.25 0 -0.25
v -0.25 0.1 0.25
v -0.25 0.1 -0.25
v -0.25 0.2 0.25
v -0.25 0.2 -0.25
v -0.15 0.2 0.15
v -0.15 0.2 -0.15
v -0.15 0.3 0.15
v -0.15 0.3 -0.15
v -0.05 -0.1 0.35
v -0.05 -0.1 0.25
v -0.05 -0.1 -0.25
v -0.05 -0.1 -0.35
v -0.05 0 0.35
v -0.05 0 0.25
v -0.05 0 -0.25
v -0.05 0 -0.35
v 0.05 0 0.35
v 0.05 0 0.25
v 0.05 0 -0.25
v 0.05 0 -0.35
v 0.05 0.2 0.35
v 0.05 0.2 0.25
v 0.05 0.2 0.15
v 0.05 0.2 -0.15
v 0.05 0.2 -0.25
v 0.05 0.2 -0.35
v 0.05 0.3 0.25
v 0.05 0.3 0.15
v 0.05 0.3 -0.15
v 0.05 0.3 -0.25
v 0.05 -0.3 0.35
v 0.05 -0.3 0.25
v 0.05 -0.3 -0.25
v 0.05 -0.3 -0.35
v 0.05 -0.2 0.35
v 0.05 -0.2 0.25
v 0.05 -0.2 -0.25
v 0.05 -0.2 -0.35
v 0.25 -0.3 0.25
v 0.25 -0.3 0.15
v 0.25 -0.3 -0.15
v 0.25 -0.3 -0.25
v 0.25 -0.2 0.25
v 0.25 -0.2 0.15
v 0.25 -0.2 -0.15
v 0.25 -0.2 -0.25
v 0.35 -0.3 0.15
v 0.35 -0.3 -0.15
v 0.35 -0.2 0.35
v 0.35 -0.2 0.15
v 0.35 -0.2 -0.15
v 0.35 -0.2 -0.35
v 0.35 0.2 0.35
v 0.35 0.2 0.25
v 0.35 0.2 -0.25
v 0.35 0.2 -0.35
v 0.35 0.3 0.25
v 0.35 0.3 -0.25
v -0.35 -0.2 0.35
v -0.35 -0.1 0.35
v -0.25 -0.3 0.35
v -0.25 -0.2 0.35
v -0.05 -0.1 0.35
v -0.05 0 0.35
v 0.05 -0.3 0.35
v 0.05 -0.2 0.35
v 0.05 0 0.35
v 0.05 0.2 0.35
v 0.35 -0.2 0.35
v 0.35 0.2 0.35
v -0.35 -0.3 0.25
v -0.35 -0.2 0.25
v -0.35 0 0.25
v -0.35 0.1 0.25
v -0.25 -0.3 0.25
v -0.25 -0.2 0.25
v -0.25 -0.1 0.25
v -0.25 0 0.25
v -0.25 0.1 0.25
v -0.25 0.2 0.25
v -0.05 -0.1 0.25
v -0.05 0 0.25
v 0.05 -0.3 0.25
v 0.05 -0.2 0.25
v 0.05 0 0.25
v 0.05 0.2 0.25
v 0.05 0.3 0.25
v 0.25 -0.3 0.25
v 0.25 -0.2 0.25
v 0.35 0.2 0.25
v 0.35 0.3 0.25
v -0.15 0.2 0.15
v -0.15 0.3 0.15
v 0.05 0.2 0.15
v 0.05 0.3 0.15
v 0.25 -0.3 0.15
v 0.25 -0.2 0.15
v 0.35 -0.3 0.15
v 0.35 -0.2 0.15
v -0.35 -0.3 -0.15
v -0.35 -0.2 -0.15
v -0.25 -0.3 -0.15
v -0.25 -0.2 -0.15
v -0.35 -0.3 0.15
v -0.35 -0.2 0.15
v -0.25 -0.3 0.15
v -0.25 -0.2 0.15
v -0.15 0.2 -0.15
v -0.15 0.3 -0.15
v 0.05 0.2 -0.15
v 0.05 0.3 -0.15
v 0.25 -0.3 -0.15
v 0.25 -0.2 -0.15
v 0.35 -0.3 -0.15
v 0.35 -0.2 -0.15
v -0.35 -0.3 -0.25
v -0.35 -0.2 -0.25
v -0.35 0 -0.25
v -0.35 0.1 -0.25
v -0.25 -0.3 -0.25
v -0.25 -0.2 -0.25
v -0.25 -0.1 -0.25
v -0.25 0 -0.25
v -0.25 0.1 -0.25
v -0.25 0.2 -0.25
v -0.05 -0.1 -0.25
v -0.05 0 -0.25
v 0.05 -0.3 -0.25
v 0.05 -0.2 -0.25
v 0.05 0 -0.25
v 0.05 0.2 -0.25
v 0.05 0.3 -0.25
v 0.25 -0.3 -0.25
v 0.25 -0.2 -0.25
v 0.35 0.2 -0.25
v 0.35 0.3 -0.25
v -0.35 -0.2 -0.35
v -0.35 -0.1 -0.35
v -0.25 -0.3 -0.35
v -0.25 -0.2 -0.35
v -0.05 -0.1 -0.35
v -0.05 0 -0.35
v 0.05 -0.3 -0.35
v 0.05 -0.2 -0.35
v 0.05 0 -0.35
v 0.05 0.2 -0.35
v 0.35 -0.2 -0.35
v 0.35 0.2 -0.35
v -0.25 -0.3 0.35
v 0.05 -0.3 0.35
v -0.35 -0.3 0.25
v -0.25 -0.3 0.25
v 0.05 -0.3 0.25
v 0.25 -0.3 0.25
v -0.35 -0.3 0.15
v -0.25 -0.3 0.15
v -0.15 -0.3 0.15
v 0.25 -0.3 0.15
v 0.35 -0.3 0.15
v -0.05 -0.3 0.05
v 0.15 -0.3 0.05
v -0.35 -0.3 -0.15
v -0.25 -0.3 -0.15
v -0.15 -0.3 -0.15
v -0.05 -0.3 -0.15
v 0.15 -0.3 -0.15
v 0.25 -0.3 -0.15
v 0.35 -0.3 -0.15
v -0.35 -0.3 -0.25
v -0.25 -0.3 -0.25
v 0.05 -0.3 -0.25
v 0.25 -0.3 -0.25
v -0.25 -0.3 -0.35
v 0.05 -0.3 -0.35
v -0.35 -0.2 0.35
v -0.25 -0.2 0.35
v 0.05 -0.2 0.35
v 0.35 -0.2 0.35
v -0.35 -0.2 0.25
v -0.25 -0.2 0.25
v 0.05 -0.2 0.25
v 0.25 -0.2 0.25
v -0.35 -0.2 0.15
v -0.25 -0.2 0.15
v 0.25 -0.2 0.15
v 0.35 -0.2 0.15
v -0.35 -0.2 -0.15
v -0.25 -0.2 -0.15
v 0.25 -0.2 -0.15
v 0.35 -0.2 -0.15
v -0.35 -0.2 -0.25
v -0.25 -0.2 -0.25
v 0.05 -0.2 -0.25
v 0.25 -0.2 -0.25
v -0.35 -0.2 -0.35
v -0.25 -0.2 -0.35
v 0.05 -0.2 -0.35
v 0.35 -0.2 -0.35
v -0.35 0 0.25
v -0.25 0 0.25
v -0.25 0 0.15
v -0.25 0 0.05
v -0.25 0 -0.05
v -0.25 0 -0.15
v -0.35 0 -0.25
v -0.25 0 -0.25
v -0.35 -0.1 0.35
v -0.05 -0.1 0.35
v -0.25 -0.1 0.25
v -0.05 -0.1 0.25
v -0.25 -0.1 0.15
v -0.25 -0.1 0.05
v -0.25 -0.1 -0.05
v -0.25 -0.1 -0.15
v -0.25 -0.1 -0.25
v -0.05 -0.1 -0.25
v -0.35 -0.1 -0.35
v -0.05 -0.1 -0.35
v -0.05 0 0.35
v 0.05 0 0.35
v -0.05 0 0.25
v 0.05 0 0.25
v -0.05 0 -0.25
v 0.05 0 -0.25
v -0.05 0 -0.35
v 0.05 0 -0.35
v -0.35 0.1 0.25
v -0.25 0.1 0.25
v -0.35 0.1 -0.25
v -0.25 0.1 -0.25
v 0.05 0.2 0.35
v 0.35 0.2 0.35
v -0.25 0.2 0.25
v 0.05 0.2 0.25
v 0.35 0.2 0.25
v -0.15 0.2 0.15
v 0.05 0.2 0.15
v -0.15 0.2 -0.15
v 0.05 0.2 -0.15
v -0.25 0.2 -0.25
v 0.05 0.2 -0.25
v 0.35 0.2 -0.25
v 0.05 0.2 -0.35
v 0.35 0.2 -0.35
v 0.05 0.3 0.25
v 0.35 0.3 0.25
v -0.15 0.3 0.15
v 0.05 0.3 0.15
v -0.15 0.3 -0.15
v 0.05 0.3 -0.15
v 0.05 0.3 -0.25
v 0.35 0.3 -0.25

# faces
f 6/1/1 2/1/1 1/1/1
f 7/1/1 2/1/1 6/1/1
f 8/1/1 4/1/1 3/1/1
f 9/1/1 4/1/1 8/1/1
f 11/1/1 7/1/1 6/1/1
f 11/1/1 10/1/1 9/1/1
f 11/1/1 9/1/1 8/1/1
f 11/1/1 8/1/1 7/1/1
f 11/1/1 6/1/1 5/1/1
f 12/1/1 10/1/1 11/1/1
f 15/1/1 14/1/1 13/1/1
f 16/1/1 14/1/1 15/1/1
f 23/1/1 18/1/1 17/1/1
f 24/1/1 18/1/1 23/1/1
f 25/3/1 20/3/1 19/3/1
f 26/3/1 20/3/1 25/3/1
f 27/1/1 22/1/1 21/1/1
f 28/1/1 22/1/1 27/1/1
f 35/3/1 30/3/1 29/3/1
f 36/2/1 31/2/1 30/2/1
f 36/3/1 30/3/1 35/3/1
f 37/3/1 32/3/1 31/3/1
f 37/2/1 31/2/1 36/2/1
f 38/2/1 33/2/1 32/2/1
f 38/3/1 32/3/1 37/3/1
f 39/3/1 34/3/1 33/3/1
f 39/2/1 33/2/1 38/2/1
f 40/3/1 34/3/1 39/3/1
f 43/3/1 42/3/1 41/3/1
f 44/3/1 42/3/1 43/3/1
f 47/1/1 46/1/1 45/1/1
f 48/1/1 46/1/1 47/1/1
f 53/1/1 50/1/1 49/1/1
f 54/1/1 50/1/1 53/1/1
f 55/1/1 52/1/1 51/1/1
f 56/1/1 52/1/1 55/1/1
f 61/1/1 58/1/1 57/1/1
f 62/1/1 58/1/1 61/1/1
f 65/1/1 60/1/1 59/1/1
f 66/1/1 60/1/1 65/1/1
f 67/1/1 63/1/1 62/1/1
f 68/1/1 63/1/1 67/1/1
f 69/1/1 65/1/1 64/1/1
f 70/1/1 65/1/1 69/1/1
f 71/1/2 72/1/2 75/1/2
f 75/1/2 72/1/2 76/1/2
f 73/1/2 74/1/2 77/1/2
f 77/1/2 74/1/2 78/1/2
f 79/1/2 80/1/2 83/1/2
f 83/1/2 80/1/2 84/1/2
f 81/1/2 82/1/2 85/1/2
f 85/1/2 82/1/2 86/1/2
f 87/1/2 88/1/2 90/1/2
f 90/1/2 88/1/2 91/1/2
f 89/1/2 90/1/2 93/1/2
f 91/1/2 92/1/2 93/1/2
f 90/1/2 91/1/2 93/1/2
f 93/1/2 92/1/2 94/1/2
f 94/1/2 92/1/2 95/1/2
f 95/1/2 92/1/2 96/1/2
f 94/1/2 95/1/2 97/1/2
f 97/1/2 95/1/2 98/1/2
f 102/1/3 100/1/3 99/1/3
f 103/1/3 100/1/3 102/1/3
f 103/1/3 102/1/3 101/1/3
f 105/1/3 103/1/3 101/1/3
f 105/1/3 104/1/3 103/1/3
f 106/1/3 104/1/3 105/1/3
f 107/1/3 104/1/3 106/1/3
f 109/1/3 108/1/3 107/1/3
f 109/1/3 107/1/3 106/1/3
f 110/1/3 108/1/3 109/1/3
f 115/1/3 112/1/3 111/1/3
f 116/1/3 112/1/3 115/1/3
f 118/1/3 114/1/3 113/1/3
f 119/1/3 114/1/3 118/1/3
f 121/3/3 120/3/3 119/3/3
f 121/3/3 119/3/3 118/3/3
f 121/3/3 118/3/3 117/3/3
f 122/3/3 120/3/3 121/3/3
f 125/3/3 120/3/3 122/3/3
f 126/3/3 120/3/3 125/3/3
f 128/1/3 124/1/3 123/1/3
f 129/1/3 124/1/3 128/1/3
f 130/1/3 127/1/3 126/1/3
f 131/1/3 127/1/3 130/1/3
f 134/1/3 133/1/3 132/1/3
f 135/1/3 133/1/3 134/1/3
f 138/1/3 137/1/3 136/1/3
f 139/1/3 137/1/3 138/1/3
f 142/1/3 141/1/3 140/1/3
f 143/1/3 141/1/3 142/1/3
f 144/1/4 145/1/4 146/1/4
f 146/1/4 145/1/4 147/1/4
f 148/1/4 149/1/4 150/1/4
f 150/1/4 149/1/4 151/1/4
f 152/1/4 153/1/4 154/1/4
f 154/1/4 153/1/4 155/1/4
f 156/1/4 157/1/4 160/1/4
f 160/1/4 157/1/4 161/1/4
f 158/1/4 159/1/4 163/1/4
f 163/1/4 159/1/4 164/1/4
f 164/3/4 165/3/4 166/3/4
f 163/3/4 164/3/4 166/3/4
f 162/3/4 163/3/4 166/3/4
f 166/3/4 165/3/4 167/3/4
f 167/3/4 165/3/4 170/3/4
f 170/3/4 165/3/4 171/3/4
f 168/1/4 169/1/4 173/1/4
f 173/1/4 169/1/4 174/1/4
f 171/1/4 172/1/4 175/1/4
f 175/1/4 172/1/4 176/1/4
f 177/1/4 178/1/4 180/1/4
f 180/1/4 178/1/4 181/1/4
f 179/1/4 180/1/4 181/1/4
f 179/1/4 181/1/4 183/1/4
f 181/1/4 182/1/4 183/1/4
f 183/1/4 182/1/4 184/1/4
f 184/1/4 182/1/4 185/1/4
f 185/1/4 186/1/4 187/1/4
f 184/1/4 185/1/4 187/1/4
f 187/1/4 186/1/4 188/1/4
f 192/1/5 190/1/5 189/1/5
f 193/1/5 190/1/5 192/1/5
f 195/1/5 192/1/5 191/1/5
f 195/1/5 194/1/5 193/1/5
f 195/1/5 193/1/5 192/1/5
f 196/1/5 194/1/5 195/1/5
f 197/1/5 194/1/5 196/1/5
f 198/1/5 194/1/5 197/1/5
f 200/1/5 199/1/5 198/1/5
f 200/1/5 198/1/5 197/1/5
f 201/1/5 199/1/5 200/1/5
f 203/3/5 197/3/5 196/3/5
f 204/1/5 200/1/5 197/1/5
f 204/3/5 197/3/5 203/3/5
f 205/3/5 201/3/5 200/3/5
f 205/1/5 200/1/5 204/1/5
f 206/1/5 199/1/5 201/1/5
f 206/3/5 201/3/5 205/3/5
f 207/1/5 199/1/5 206/1/5
f 208/1/5 199/1/5 207/1/5
f 209/1/5 205/1/5 204/1/5
f 209/1/5 203/1/5 202/1/5
f 209/1/5 207/1/5 206/1/5
f 209/1/5 206/1/5 205/1/5
f 209/1/5 204/1/5 203/1/5
f 210/1/5 207/1/5 209/1/5
f 211/1/5 207/1/5 210/1/5
f 212/1/5 207/1/5 211/1/5
f 213/1/5 211/1/5 210/1/5
f 214/1/5 211/1/5 213/1/5
f 219/1/5 216/1/5 215/1/5
f 220/1/5 216/1/5 219/1/5
f 221/1/5 218/1/5 217/1/5
f 222/1/5 218/1/5 221/1/5
f 225/1/5 218/1/5 222/1/5
f 226/1/5 218/1/5 225/1/5
f 227/1/5 224/1/5 223/1/5
f 228/1/5 224/1/5 227/1/5
f 234/1/5 230/1/5 229/1/5
f 235/1/5 232/1/5 231/1/5
f 236/1/5 232/1/5 235/1/5
f 237/1/5 234/1/5 233/1/5
f 238/1/5 230/1/5 234/1/5
f 238/1/5 234/1/5 237/1/5
f 241/1/5 240/1/5 239/1/5
f 242/1/5 241/1/5 239/1/5
f 243/1/5 242/1/5 239/1/5
f 244/1/5 243/1/5 239/1/5
f 245/1/5 244/1/5 239/1/5
f 246/1/5 244/1/5 245/1/5
f 247/1/6 248/1/6 249/1/6
f 249/1/6 248/1/6 250/1/6
f 247/1/6 249/1/6 251/1/6
f 247/1/6 251/1/6 252/1/6
f 247/1/6 252/1/6 253/1/6
f 247/1/6 253/1/6 254/1/6
f 247/1/6 254/1/6 255/1/6
f 247/1/6 255/1/6 257/1/6
f 255/1/6 256/1/6 257/1/6
f 257/1/6 256/1/6 258/1/6
f 259/1/6 260/1/6 261/1/6
f 261/1/6 260/1/6 262/1/6
f 263/1/6 264/1/6 265/1/6
f 265/1/6 264/1/6 266/1/6
f 267/1/6 268/1/6 269/1/6
f 269/1/6 268/1/6 270/1/6
f 271/1/6 272/1/6 274/1/6
f 274/1/6 272/1/6 275/1/6
f 273/3/6 274/3/6 276/3/6
f 276/3/6 274/3/6 277/3/6
f 273/3/6 276/3/6 278/3/6
f 273/3/6 278/3/6 280/3/6
f 278/3/6 279/3/6 280/3/6
f 280/3/6 279/3/6 281/3/6
f 281/1/6 282/1/6 283/1/6
f 283/1/6 282/1/6 284/1/6
f 285/1/6 286/1/6 288/1/6
f 287/1/6 288/1/6 289/1/6
f 288/1/6 286/1/6 290/1/6
f 289/1/6 288/1/6 290/1/6
f 290/1/6 286/1/6 291/1/6
f 291/1/6 286/1/6 292/1/6
