# MagicaVoxel @ Ephtracy

# group
o 

# material
mtllib Cabeca_teste-0.mtl
usemtl palette

# normals
vn -1 0 0
vn 1 0 0
vn 0 0 1
vn 0 0 -1
vn 0 -1 0
vn 0 1 0

# texcoords
vt 0.478516 0.5
vt 0.693359 0.5

# verts
v -0.3 -0.4 0.2
v -0.3 -0.4 -0.2
v -0.3 -0.3 0.2
v -0.3 -0.3 0.1
v -0.3 -0.3 -0.1
v -0.3 -0.3 -0.2
v -0.3 -0.2 0.2
v -0.3 -0.2 0.1
v -0.3 -0.2 -0.1
v -0.3 -0.2 -0.2
v -0.3 -0.1 0.2
v -0.3 -0.1 -0.2
v 0.1 -0.4 0.2
v 0.1 -0.4 -0.2
v 0.1 -0.1 0.2
v 0.1 -0.1 -0.2
v -0.3 -0.4 0.2
v -0.3 -0.3 0.2
v -0.3 -0.2 0.2
v -0.3 -0.1 0.2
v -0.2 -0.3 0.2
v -0.2 -0.2 0.2
v 0.1 -0.4 0.2
v 0.1 -0.1 0.2
v -0.3 -0.4 -0.2
v -0.3 -0.3 -0.2
v -0.3 -0.2 -0.2
v -0.3 -0.1 -0.2
v -0.2 -0.3 -0.2
v -0.2 -0.2 -0.2
v 0.1 -0.4 -0.2
v 0.1 -0.1 -0.2
v -0.3 -0.4 0.2
v 0.1 -0.4 0.2
v -0.3 -0.4 -0.2
v 0.1 -0.4 -0.2
v -0.3 -0.1 0.2
v 0.1 -0.1 0.2
v -0.3 -0.1 -0.2
v 0.1 -0.1 -0.2

# faces
f 3/1/1 2/1/1 1/1/1
f 4/1/1 2/1/1 3/1/1
f 5/1/1 2/1/1 4/1/1
f 6/1/1 2/1/1 5/1/1
f 7/2/1 4/2/1 3/2/1
f 8/1/1 5/1/1 4/1/1
f 8/2/1 4/2/1 7/2/1
f 9/2/1 6/2/1 5/2/1
f 9/1/1 5/1/1 8/1/1
f 10/2/1 6/2/1 9/2/1
f 11/1/1 8/1/1 7/1/1
f 11/1/1 9/1/1 8/1/1
f 11/1/1 10/1/1 9/1/1
f 12/1/1 10/1/1 11/1/1
f 13/1/2 14/1/2 15/1/2
f 15/1/2 14/1/2 16/1/2
f 21/1/3 18/1/3 17/1/3
f 21/2/3 19/2/3 18/2/3
f 22/1/3 20/1/3 19/1/3
f 22/2/3 19/2/3 21/2/3
f 23/1/3 21/1/3 17/1/3
f 23/1/3 22/1/3 21/1/3
f 24/1/3 20/1/3 22/1/3
f 24/1/3 22/1/3 23/1/3
f 25/1/4 26/1/4 29/1/4
f 26/2/4 27/2/4 29/2/4
f 27/1/4 28/1/4 30/1/4
f 29/2/4 27/2/4 30/2/4
f 25/1/4 29/1/4 31/1/4
f 29/1/4 30/1/4 31/1/4
f 30/1/4 28/1/4 32/1/4
f 31/1/4 30/1/4 32/1/4
f 35/1/5 34/1/5 33/1/5
f 36/1/5 34/1/5 35/1/5
f 37/1/6 38/1/6 39/1/6
f 39/1/6 38/1/6 40/1/6
