# MagicaVoxel @ Ephtracy

# group
o 

# material
mtllib Cabeca-2.mtl
usemtl palette

# normals
vn -1 0 0
vn 1 0 0
vn 0 0 1
vn 0 0 -1
vn 0 -1 0
vn 0 1 0

# texcoords
vt 0.369141 0.5
vt 0.388672 0.5
vt 0.720703 0.5
vt 0.783203 0.5

# verts
v -0.35 -0.3 0.05
v -0.35 -0.3 -0.05
v -0.35 -0.2 0.05
v -0.35 -0.2 -0.05
v -0.35 -0.1 0.05
v -0.35 -0.1 -0.05
v -0.35 0 0.15
v -0.35 0 0.05
v -0.35 0 -0.05
v -0.35 0 -0.15
v -0.35 0.1 0.15
v -0.35 0.1 -0.15
v -0.25 -0.3 0.15
v -0.25 -0.3 0.05
v -0.25 -0.3 -0.05
v -0.25 -0.3 -0.15
v -0.25 -0.2 0.15
v -0.25 -0.2 0.05
v -0.25 -0.2 -0.05
v -0.25 -0.2 -0.15
v -0.25 -0.1 0.15
v -0.25 -0.1 0.05
v -0.25 -0.1 -0.05
v -0.25 -0.1 -0.15
v -0.25 0 0.25
v -0.25 0 0.15
v -0.25 0 0.05
v -0.25 0 -0.05
v -0.25 0 -0.15
v -0.25 0 -0.25
v -0.25 0.1 0.25
v -0.25 0.1 0.15
v -0.25 0.1 -0.15
v -0.25 0.1 -0.25
v -0.25 0.2 0.15
v -0.25 0.2 -0.15
v -0.15 -0.2 0.25
v -0.15 -0.2 0.15
v -0.15 -0.2 -0.15
v -0.15 -0.2 -0.25
v -0.15 -0.1 0.15
v -0.15 -0.1 -0.15
v -0.15 0 0.25
v -0.15 0 0.15
v -0.15 0 -0.15
v -0.15 0 -0.25
v -0.15 0.1 0.25
v -0.15 0.1 0.15
v -0.15 0.1 -0.15
v -0.15 0.1 -0.25
v -0.15 0.2 0.25
v -0.15 0.2 0.15
v -0.15 0.2 -0.15
v -0.15 0.2 -0.25
v -0.15 0.3 0.15
v -0.15 0.3 -0.15
v -0.05 -0.3 0.25
v -0.05 -0.3 0.15
v -0.05 -0.3 -0.15
v -0.05 -0.3 -0.25
v -0.05 -0.2 0.35
v -0.05 -0.2 0.25
v -0.05 -0.2 0.15
v -0.05 -0.2 -0.15
v -0.05 -0.2 -0.25
v -0.05 -0.2 -0.35
v -0.05 0.1 0.35
v -0.05 0.1 0.25
v -0.05 0.1 -0.25
v -0.05 0.1 -0.35
v 0.05 -0.3 0.25
v 0.05 -0.3 0.15
v 0.05 -0.3 -0.15
v 0.05 -0.3 -0.25
v 0.05 -0.2 0.35
v 0.05 -0.2 0.25
v 0.05 -0.2 0.15
v 0.05 -0.2 -0.15
v 0.05 -0.2 -0.25
v 0.05 -0.2 -0.35
v 0.05 0 0.25
v 0.05 0 0.15
v 0.05 0 -0.15
v 0.05 0 -0.25
v 0.05 0.1 0.35
v 0.05 0.1 0.25
v 0.05 0.1 -0.25
v 0.05 0.1 -0.35
v 0.05 0.2 0.25
v 0.05 0.2 0.15
v 0.05 0.2 -0.15
v 0.05 0.2 -0.25
v 0.05 0.3 0.15
v 0.05 0.3 -0.15
v 0.15 -0.3 0.15
v 0.15 -0.3 0.05
v 0.15 -0.3 -0.05
v 0.15 -0.3 -0.15
v 0.15 -0.2 0.25
v 0.15 -0.2 0.15
v 0.15 -0.2 0.05
v 0.15 -0.2 -0.05
v 0.15 -0.2 -0.15
v 0.15 -0.2 -0.25
v 0.15 0 0.25
v 0.15 0 0.15
v 0.15 0 -0.15
v 0.15 0 -0.25
v 0.15 0.1 0.15
v 0.15 0.1 0.05
v 0.15 0.1 -0.05
v 0.15 0.1 -0.15
v 0.15 0.2 0.15
v 0.15 0.2 0.05
v 0.15 0.2 -0.05
v 0.15 0.2 -0.15
v 0.25 -0.3 0.05
v 0.25 -0.3 -0.05
v 0.25 -0.2 0.15
v 0.25 -0.2 0.05
v 0.25 -0.2 -0.05
v 0.25 -0.2 -0.15
v 0.25 0.1 0.15
v 0.25 0.1 0.05
v 0.25 0.1 -0.05
v 0.25 0.1 -0.15
v 0.25 0.2 0.05
v 0.25 0.2 -0.05
v -0.05 -0.2 0.35
v -0.05 0.1 0.35
v 0.05 -0.2 0.35
v 0.05 0.1 0.35
v -0.25 0 0.25
v -0.25 0.1 0.25
v -0.15 -0.2 0.25
v -0.15 0 0.25
v -0.15 0.1 0.25
v -0.15 0.2 0.25
v -0.05 -0.3 0.25
v -0.05 -0.2 0.25
v -0.05 0.1 0.25
v 0.05 -0.3 0.25
v 0.05 -0.2 0.25
v 0.05 0 0.25
v 0.05 0.1 0.25
v 0.05 0.2 0.25
v 0.15 -0.2 0.25
v 0.15 0 0.25
v -0.35 0 0.15
v -0.35 0.1 0.15
v -0.25 -0.3 0.15
v -0.25 -0.2 0.15
v -0.25 -0.1 0.15
v -0.25 0 0.15
v -0.25 0.1 0.15
v -0.25 0.2 0.15
v -0.15 -0.2 0.15
v -0.15 -0.1 0.15
v -0.15 0 0.15
v -0.15 0.1 0.15
v -0.15 0.2 0.15
v -0.15 0.3 0.15
v -0.05 -0.3 0.15
v -0.05 -0.2 0.15
v 0.05 -0.3 0.15
v 0.05 -0.2 0.15
v 0.05 0 0.15
v 0.05 0.2 0.15
v 0.05 0.3 0.15
v 0.15 -0.3 0.15
v 0.15 -0.2 0.15
v 0.15 0 0.15
v 0.15 0.1 0.15
v 0.15 0.2 0.15
v 0.25 -0.2 0.15
v 0.25 0.1 0.15
v -0.35 -0.3 0.05
v -0.35 -0.2 0.05
v -0.35 -0.1 0.05
v -0.35 0 0.05
v -0.25 -0.3 0.05
v -0.25 -0.2 0.05
v -0.25 -0.1 0.05
v -0.25 0 0.05
v 0.15 -0.3 0.05
v 0.15 -0.2 0.05
v 0.15 0.1 0.05
v 0.15 0.2 0.05
v 0.25 -0.3 0.05
v 0.25 -0.2 0.05
v 0.25 0.1 0.05
v 0.25 0.2 0.05
v -0.35 -0.3 -0.05
v -0.35 -0.2 -0.05
v -0.35 -0.1 -0.05
v -0.35 0 -0.05
v -0.25 -0.3 -0.05
v -0.25 -0.2 -0.05
v -0.25 -0.1 -0.05
v -0.25 0 -0.05
v 0.15 -0.3 -0.05
v 0.15 -0.2 -0.05
v 0.15 0.1 -0.05
v 0.15 0.2 -0.05
v 0.25 -0.3 -0.05
v 0.25 -0.2 -0.05
v 0.25 0.1 -0.05
v 0.25 0.2 -0.05
v -0.35 0 -0.15
v -0.35 0.1 -0.15
v -0.25 -0.3 -0.15
v -0.25 -0.2 -0.15
v -0.25 -0.1 -0.15
v -0.25 0 -0.15
v -0.25 0.1 -0.15
v -0.25 0.2 -0.15
v -0.15 -0.2 -0.15
v -0.15 -0.1 -0.15
v -0.15 0 -0.15
v -0.15 0.1 -0.15
v -0.15 0.2 -0.15
v -0.15 0.3 -0.15
v -0.05 -0.3 -0.15
v -0.05 -0.2 -0.15
v 0.05 -0.3 -0.15
v 0.05 -0.2 -0.15
v 0.05 0 -0.15
v 0.05 0.2 -0.15
v 0.05 0.3 -0.15
v 0.15 -0.3 -0.15
v 0.15 -0.2 -0.15
v 0.15 0 -0.15
v 0.15 0.1 -0.15
v 0.15 0.2 -0.15
v 0.25 -0.2 -0.15
v 0.25 0.1 -0.15
v -0.25 0 -0.25
v -0.25 0.1 -0.25
v -0.15 -0.2 -0.25
v -0.15 0 -0.25
v -0.15 0.1 -0.25
v -0.15 0.2 -0.25
v -0.05 -0.3 -0.25
v -0.05 -0.2 -0.25
v -0.05 0.1 -0.25
v 0.05 -0.3 -0.25
v 0.05 -0.2 -0.25
v 0.05 0 -0.25
v 0.05 0.1 -0.25
v 0.05 0.2 -0.25
v 0.15 -0.2 -0.25
v 0.15 0 -0.25
v -0.05 -0.2 -0.35
v -0.05 0.1 -0.35
v 0.05 -0.2 -0.35
v 0.05 0.1 -0.35
v -0.05 -0.3 0.25
v 0.05 -0.3 0.25
v -0.25 -0.3 0.15
v -0.05 -0.3 0.15
v 0.05 -0.3 0.15
v 0.15 -0.3 0.15
v -0.35 -0.3 0.05
v -0.25 -0.3 0.05
v 0.15 -0.3 0.05
v 0.25 -0.3 0.05
v -0.35 -0.3 -0.05
v -0.25 -0.3 -0.05
v 0.15 -0.3 -0.05
v 0.25 -0.3 -0.05
v -0.25 -0.3 -0.15
v -0.05 -0.3 -0.15
v 0.05 -0.3 -0.15
v 0.15 -0.3 -0.15
v -0.05 -0.3 -0.25
v 0.05 -0.3 -0.25
v -0.05 -0.2 0.35
v 0.05 -0.2 0.35
v -0.15 -0.2 0.25
v -0.05 -0.2 0.25
v 0.05 -0.2 0.25
v 0.15 -0.2 0.25
v -0.15 -0.2 0.15
v -0.05 -0.2 0.15
v 0.05 -0.2 0.15
v 0.15 -0.2 0.15
v 0.25 -0.2 0.15
v 0.15 -0.2 0.05
v 0.25 -0.2 0.05
v 0.15 -0.2 -0.05
v 0.25 -0.2 -0.05
v -0.15 -0.2 -0.15
v -0.05 -0.2 -0.15
v 0.05 -0.2 -0.15
v 0.15 -0.2 -0.15
v 0.25 -0.2 -0.15
v -0.15 -0.2 -0.25
v -0.05 -0.2 -0.25
v 0.05 -0.2 -0.25
v 0.15 -0.2 -0.25
v -0.05 -0.2 -0.35
v 0.05 -0.2 -0.35
v -0.35 -0.1 0.05
v -0.25 -0.1 0.05
v -0.35 -0.1 -0.05
v -0.25 -0.1 -0.05
v -0.25 0 0.25
v -0.15 0 0.25
v -0.35 0 0.15
v -0.25 0 0.15
v -0.15 0 0.15
v -0.35 0 0.05
v -0.25 0 0.05
v -0.35 0 -0.05
v -0.25 0 -0.05
v -0.35 0 -0.15
v -0.25 0 -0.15
v -0.15 0 -0.15
v -0.25 0 -0.25
v -0.15 0 -0.25
v -0.35 -0.2 0.05
v -0.25 -0.2 0.05
v -0.35 -0.2 -0.05
v -0.25 -0.2 -0.05
v 0.05 0 0.25
v 0.15 0 0.25
v 0.05 0 0.15
v 0.15 0 0.15
v 0.05 0 -0.15
v 0.15 0 -0.15
v 0.05 0 -0.25
v 0.15 0 -0.25
v -0.05 0.1 0.35
v 0.05 0.1 0.35
v -0.25 0.1 0.25
v -0.15 0.1 0.25
v -0.05 0.1 0.25
v 0.05 0.1 0.25
v -0.35 0.1 0.15
v -0.25 0.1 0.15
v -0.15 0.1 0.15
v 0.15 0.1 0.15
v 0.25 0.1 0.15
v 0.15 0.1 0.05
v 0.25 0.1 0.05
v 0.15 0.1 -0.05
v 0.25 0.1 -0.05
v -0.35 0.1 -0.15
v -0.25 0.1 -0.15
v -0.15 0.1 -0.15
v 0.15 0.1 -0.15
v 0.25 0.1 -0.15
v -0.25 0.1 -0.25
v -0.15 0.1 -0.25
v -0.05 0.1 -0.25
v 0.05 0.1 -0.25
v -0.05 0.1 -0.35
v 0.05 0.1 -0.35
v -0.15 0.2 0.25
v 0.05 0.2 0.25
v -0.25 0.2 0.15
v -0.15 0.2 0.15
v 0.05 0.2 0.15
v 0.15 0.2 0.15
v 0.15 0.2 0.05
v 0.25 0.2 0.05
v 0.15 0.2 -0.05
v 0.25 0.2 -0.05
v -0.25 0.2 -0.15
v -0.15 0.2 -0.15
v 0.05 0.2 -0.15
v 0.15 0.2 -0.15
v -0.15 0.2 -0.25
v 0.05 0.2 -0.25
v -0.15 0.3 0.15
v 0.05 0.3 0.15
v -0.15 0.3 -0.15
v 0.05 0.3 -0.15

# faces
f 3/3/1 2/3/1 1/3/1
f 4/3/1 2/3/1 3/3/1
f 8/1/1 6/1/1 5/1/1
f 9/1/1 6/1/1 8/1/1
f 11/1/1 9/1/1 8/1/1
f 11/1/1 10/1/1 9/1/1
f 11/1/1 8/1/1 7/1/1
f 12/1/1 10/1/1 11/1/1
f 17/4/1 14/4/1 13/4/1
f 18/4/1 14/4/1 17/4/1
f 19/4/1 16/4/1 15/4/1
f 20/4/1 16/4/1 19/4/1
f 21/2/1 18/2/1 17/2/1
f 22/4/1 19/4/1 18/4/1
f 22/2/1 18/2/1 21/2/1
f 23/2/1 20/2/1 19/2/1
f 23/4/1 19/4/1 22/4/1
f 24/2/1 20/2/1 23/2/1
f 26/4/1 22/4/1 21/4/1
f 27/4/1 22/4/1 26/4/1
f 28/4/1 24/4/1 23/4/1
f 29/4/1 24/4/1 28/4/1
f 31/1/1 26/1/1 25/1/1
f 32/1/1 26/1/1 31/1/1
f 33/1/1 30/1/1 29/1/1
f 34/1/1 30/1/1 33/1/1
f 35/1/1 33/1/1 32/1/1
f 36/1/1 33/1/1 35/1/1
f 41/1/1 38/1/1 37/1/1
f 42/1/1 40/1/1 39/1/1
f 43/1/1 41/1/1 37/1/1
f 44/1/1 41/1/1 43/1/1
f 45/1/1 40/1/1 42/1/1
f 46/1/1 40/1/1 45/1/1
f 51/1/1 48/1/1 47/1/1
f 52/1/1 48/1/1 51/1/1
f 53/1/1 50/1/1 49/1/1
f 54/1/1 50/1/1 53/1/1
f 55/1/1 53/1/1 52/1/1
f 56/1/1 53/1/1 55/1/1
f 62/1/1 58/1/1 57/1/1
f 63/1/1 58/1/1 62/1/1
f 64/1/1 60/1/1 59/1/1
f 65/1/1 60/1/1 64/1/1
f 67/1/1 62/1/1 61/1/1
f 68/1/1 62/1/1 67/1/1
f 69/1/1 66/1/1 65/1/1
f 70/1/1 66/1/1 69/1/1
f 71/1/2 72/1/2 76/1/2
f 76/1/2 72/1/2 77/1/2
f 73/1/2 74/1/2 78/1/2
f 78/1/2 74/1/2 79/1/2
f 75/1/2 76/1/2 81/1/2
f 79/1/2 80/1/2 84/1/2
f 81/1/2 82/1/2 85/1/2
f 75/1/2 81/1/2 85/1/2
f 85/1/2 82/1/2 86/1/2
f 83/1/2 84/1/2 87/1/2
f 84/1/2 80/1/2 87/1/2
f 87/1/2 80/1/2 88/1/2
f 86/1/2 82/1/2 89/1/2
f 89/1/2 82/1/2 90/1/2
f 83/1/2 87/1/2 91/1/2
f 91/1/2 87/1/2 92/1/2
f 90/1/2 91/1/2 93/1/2
f 93/1/2 91/1/2 94/1/2
f 95/1/2 96/1/2 100/1/2
f 100/1/2 96/1/2 101/1/2
f 97/1/2 98/1/2 102/1/2
f 102/1/2 98/1/2 103/1/2
f 99/1/2 100/1/2 105/1/2
f 105/1/2 100/1/2 106/1/2
f 103/1/2 104/1/2 107/1/2
f 107/1/2 104/1/2 108/1/2
f 109/1/2 110/1/2 113/1/2
f 113/1/2 110/1/2 114/1/2
f 111/1/2 112/1/2 115/1/2
f 115/1/2 112/1/2 116/1/2
f 117/1/2 118/1/2 120/1/2
f 120/1/2 118/1/2 121/1/2
f 119/1/2 120/1/2 123/1/2
f 121/1/2 122/1/2 123/1/2
f 120/1/2 121/1/2 123/1/2
f 123/1/2 122/1/2 124/1/2
f 124/1/2 122/1/2 125/1/2
f 125/1/2 122/1/2 126/1/2
f 124/1/2 125/1/2 127/1/2
f 127/1/2 125/1/2 128/1/2
f 131/1/3 130/1/3 129/1/3
f 132/1/3 130/1/3 131/1/3
f 136/1/3 134/1/3 133/1/3
f 137/1/3 134/1/3 136/1/3
f 140/1/3 136/1/3 135/1/3
f 140/1/3 138/1/3 137/1/3
f 140/1/3 137/1/3 136/1/3
f 141/1/3 138/1/3 140/1/3
f 142/1/3 140/1/3 139/1/3
f 143/1/3 140/1/3 142/1/3
f 145/1/3 138/1/3 141/1/3
f 146/1/3 138/1/3 145/1/3
f 147/1/3 144/1/3 143/1/3
f 148/1/3 144/1/3 147/1/3
f 154/1/3 150/1/3 149/1/3
f 155/1/3 150/1/3 154/1/3
f 157/2/3 153/2/3 152/2/3
f 157/4/3 152/4/3 151/4/3
f 158/4/3 154/4/3 153/4/3
f 158/2/3 153/2/3 157/2/3
f 159/4/3 154/4/3 158/4/3
f 160/1/3 156/1/3 155/1/3
f 161/1/3 156/1/3 160/1/3
f 163/4/3 157/4/3 151/4/3
f 164/4/3 157/4/3 163/4/3
f 168/1/3 162/1/3 161/1/3
f 169/1/3 162/1/3 168/1/3
f 170/1/3 166/1/3 165/1/3
f 171/1/3 166/1/3 170/1/3
f 172/1/3 168/1/3 167/1/3
f 173/1/3 168/1/3 172/1/3
f 174/1/3 168/1/3 173/1/3
f 175/1/3 172/1/3 171/1/3
f 175/1/3 173/1/3 172/1/3
f 176/1/3 173/1/3 175/1/3
f 181/3/3 178/3/3 177/3/3
f 182/3/3 178/3/3 181/3/3
f 183/1/3 180/1/3 179/1/3
f 184/1/3 180/1/3 183/1/3
f 189/1/3 186/1/3 185/1/3
f 190/1/3 186/1/3 189/1/3
f 191/1/3 188/1/3 187/1/3
f 192/1/3 188/1/3 191/1/3
f 193/3/4 194/3/4 197/3/4
f 197/3/4 194/3/4 198/3/4
f 195/1/4 196/1/4 199/1/4
f 199/1/4 196/1/4 200/1/4
f 201/1/4 202/1/4 205/1/4
f 205/1/4 202/1/4 206/1/4
f 203/1/4 204/1/4 207/1/4
f 207/1/4 204/1/4 208/1/4
f 209/1/4 210/1/4 214/1/4
f 214/1/4 210/1/4 215/1/4
f 212/2/4 213/2/4 217/2/4
f 211/4/4 212/4/4 217/4/4
f 213/4/4 214/4/4 218/4/4
f 217/2/4 213/2/4 218/2/4
f 218/4/4 214/4/4 219/4/4
f 215/1/4 216/1/4 220/1/4
f 220/1/4 216/1/4 221/1/4
f 211/4/4 217/4/4 223/4/4
f 223/4/4 217/4/4 224/4/4
f 221/1/4 222/1/4 228/1/4
f 228/1/4 222/1/4 229/1/4
f 225/1/4 226/1/4 230/1/4
f 230/1/4 226/1/4 231/1/4
f 227/1/4 228/1/4 232/1/4
f 232/1/4 228/1/4 233/1/4
f 233/1/4 228/1/4 234/1/4
f 231/1/4 232/1/4 235/1/4
f 232/1/4 233/1/4 235/1/4
f 235/1/4 233/1/4 236/1/4
f 237/1/4 238/1/4 240/1/4
f 240/1/4 238/1/4 241/1/4
f 239/1/4 240/1/4 244/1/4
f 241/1/4 242/1/4 244/1/4
f 240/1/4 241/1/4 244/1/4
f 244/1/4 242/1/4 245/1/4
f 243/1/4 244/1/4 246/1/4
f 246/1/4 244/1/4 247/1/4
f 245/1/4 242/1/4 249/1/4
f 249/1/4 242/1/4 250/1/4
f 247/1/4 248/1/4 251/1/4
f 251/1/4 248/1/4 252/1/4
f 253/1/4 254/1/4 255/1/4
f 255/1/4 254/1/4 256/1/4
f 260/1/5 258/1/5 257/1/5
f 261/1/5 258/1/5 260/1/5
f 264/4/5 260/4/5 259/4/5
f 264/4/5 261/4/5 260/4/5
f 265/1/5 262/1/5 261/1/5
f 267/3/5 264/3/5 263/3/5
f 268/4/5 261/4/5 264/4/5
f 268/3/5 264/3/5 267/3/5
f 269/1/5 266/1/5 265/1/5
f 269/1/5 265/1/5 261/1/5
f 270/1/5 266/1/5 269/1/5
f 271/4/5 261/4/5 268/4/5
f 272/4/5 261/4/5 271/4/5
f 273/1/5 269/1/5 261/1/5
f 273/4/5 261/4/5 272/4/5
f 274/1/5 269/1/5 273/1/5
f 275/1/5 273/1/5 272/1/5
f 276/1/5 273/1/5 275/1/5
f 280/1/5 278/1/5 277/1/5
f 281/1/5 278/1/5 280/1/5
f 283/1/5 280/1/5 279/1/5
f 284/1/5 280/1/5 283/1/5
f 285/1/5 282/1/5 281/1/5
f 286/1/5 282/1/5 285/1/5
f 288/1/5 287/1/5 286/1/5
f 289/1/5 287/1/5 288/1/5
f 295/1/5 291/1/5 290/1/5
f 296/1/5 291/1/5 295/1/5
f 297/1/5 293/1/5 292/1/5
f 298/1/5 293/1/5 297/1/5
f 299/1/5 295/1/5 294/1/5
f 300/1/5 295/1/5 299/1/5
f 301/1/5 299/1/5 298/1/5
f 302/1/5 299/1/5 301/1/5
f 305/1/5 304/1/5 303/1/5
f 306/1/5 304/1/5 305/1/5
f 310/1/5 308/1/5 307/1/5
f 311/1/5 308/1/5 310/1/5
f 312/1/5 310/1/5 309/1/5
f 313/1/5 310/1/5 312/1/5
f 316/1/5 315/1/5 314/1/5
f 317/1/5 315/1/5 316/1/5
f 319/1/5 318/1/5 317/1/5
f 320/1/5 318/1/5 319/1/5
f 321/3/6 322/3/6 323/3/6
f 323/3/6 322/3/6 324/3/6
f 325/1/6 326/1/6 327/1/6
f 327/1/6 326/1/6 328/1/6
f 329/1/6 330/1/6 331/1/6
f 331/1/6 330/1/6 332/1/6
f 333/1/6 334/1/6 337/1/6
f 337/1/6 334/1/6 338/1/6
f 335/1/6 336/1/6 340/1/6
f 340/1/6 336/1/6 341/1/6
f 342/1/6 343/1/6 344/1/6
f 344/1/6 343/1/6 345/1/6
f 339/1/6 340/1/6 348/1/6
f 348/1/6 340/1/6 349/1/6
f 346/1/6 347/1/6 351/1/6
f 351/1/6 347/1/6 352/1/6
f 349/1/6 350/1/6 353/1/6
f 353/1/6 350/1/6 354/1/6
f 355/1/6 356/1/6 357/1/6
f 357/1/6 356/1/6 358/1/6
f 359/1/6 360/1/6 362/1/6
f 362/1/6 360/1/6 363/1/6
f 363/1/6 364/1/6 365/1/6
f 363/1/6 365/1/6 367/1/6
f 365/1/6 366/1/6 367/1/6
f 367/1/6 366/1/6 368/1/6
f 361/1/6 362/1/6 369/1/6
f 369/1/6 362/1/6 370/1/6
f 363/1/6 367/1/6 371/1/6
f 371/1/6 367/1/6 372/1/6
f 370/1/6 371/1/6 373/1/6
f 373/1/6 371/1/6 374/1/6
f 375/1/6 376/1/6 377/1/6
f 377/1/6 376/1/6 378/1/6
