# MagicaVoxel @ Ephtracy

# group
o 

# material
mtllib Corpo-1.mtl
usemtl palette

# normals
vn -1 0 0
vn 1 0 0
vn 0 0 1
vn 0 0 -1
vn 0 -1 0
vn 0 1 0

# texcoords
vt 0.478516 0.5
vt 0.568359 0.5
vt 0.603516 0.5

# verts
v -0.25 0 0.25
v -0.25 0 0.15
v -0.25 0 -0.15
v -0.25 0 -0.25
v -0.25 0.1 0.25
v -0.25 0.1 0.15
v -0.25 0.1 -0.15
v -0.25 0.1 -0.25
v -0.15 -0.2 0.15
v -0.15 -0.2 -0.15
v -0.15 -0.1 0.05
v -0.15 -0.1 -0.05
v -0.15 0 0.15
v -0.15 0 -0.15
v -0.15 0.1 0.15
v -0.15 0.1 0.05
v -0.15 0.1 -0.05
v -0.15 0.1 -0.15
v -0.15 0.2 0.15
v -0.15 0.2 0.05
v -0.15 0.2 -0.05
v -0.15 0.2 -0.15
v -0.05 0 0.25
v -0.05 0 0.15
v -0.05 0 -0.15
v -0.05 0 -0.25
v -0.05 0.1 0.25
v -0.05 0.1 0.15
v -0.05 0.1 -0.15
v -0.05 0.1 -0.25
v 0.05 -0.2 0.15
v 0.05 -0.2 -0.15
v 0.05 -0.1 0.05
v 0.05 -0.1 -0.05
v 0.05 0.1 0.15
v 0.05 0.1 0.05
v 0.05 0.1 -0.05
v 0.05 0.1 -0.15
v 0.05 0.2 0.15
v 0.05 0.2 -0.15
v -0.25 0 0.25
v -0.25 0.1 0.25
v -0.05 0 0.25
v -0.05 0.1 0.25
v -0.15 -0.2 0.15
v -0.15 0 0.15
v -0.15 0.1 0.15
v -0.15 0.2 0.15
v -0.05 0 0.15
v -0.05 0.1 0.15
v 0.05 -0.2 0.15
v 0.05 0.1 0.15
v 0.05 0.2 0.15
v -0.25 0 -0.15
v -0.25 0.1 -0.15
v -0.15 0 -0.15
v -0.15 0.1 -0.15
v -0.25 0 0.15
v -0.25 0.1 0.15
v -0.15 0 0.15
v -0.15 0.1 0.15
v -0.15 -0.2 -0.15
v -0.15 0 -0.15
v -0.15 0.1 -0.15
v -0.15 0.2 -0.15
v -0.05 0 -0.15
v -0.05 0.1 -0.15
v 0.05 -0.2 -0.15
v 0.05 0.1 -0.15
v 0.05 0.2 -0.15
v -0.25 0 -0.25
v -0.25 0.1 -0.25
v -0.05 0 -0.25
v -0.05 0.1 -0.25
v -0.15 -0.2 0.15
v 0.05 -0.2 0.15
v -0.15 -0.2 -0.15
v 0.05 -0.2 -0.15
v -0.25 0 0.25
v -0.05 0 0.25
v -0.25 0 0.15
v -0.15 0 0.15
v -0.05 0 0.15
v -0.25 0 -0.15
v -0.15 0 -0.15
v -0.05 0 -0.15
v -0.25 0 -0.25
v -0.05 0 -0.25
v -0.25 0.1 0.25
v -0.05 0.1 0.25
v -0.25 0.1 0.15
v -0.15 0.1 0.15
v -0.05 0.1 0.15
v -0.25 0.1 -0.15
v -0.15 0.1 -0.15
v -0.05 0.1 -0.15
v -0.25 0.1 -0.25
v -0.05 0.1 -0.25
v -0.15 0.2 0.15
v 0.05 0.2 0.15
v -0.15 0.2 0.05
v -0.05 0.2 0.05
v -0.15 0.2 -0.05
v -0.05 0.2 -0.05
v -0.15 0.2 -0.15
v 0.05 0.2 -0.15

# faces
f 5/1/1 2/1/1 1/1/1
f 6/1/1 2/1/1 5/1/1
f 7/1/1 4/1/1 3/1/1
f 8/1/1 4/1/1 7/1/1
f 11/3/1 10/3/1 9/3/1
f 12/3/1 10/3/1 11/3/1
f 13/3/1 11/3/1 9/3/1
f 14/3/1 10/3/1 12/3/1
f 15/3/1 11/3/1 13/3/1
f 16/2/1 12/2/1 11/2/1
f 16/3/1 11/3/1 15/3/1
f 17/3/1 14/3/1 12/3/1
f 17/2/1 12/2/1 16/2/1
f 18/3/1 14/3/1 17/3/1
f 19/2/1 16/2/1 15/2/1
f 20/1/1 17/1/1 16/1/1
f 20/2/1 16/2/1 19/2/1
f 21/2/1 18/2/1 17/2/1
f 21/1/1 17/1/1 20/1/1
f 22/2/1 18/2/1 21/2/1
f 23/1/2 24/1/2 27/1/2
f 27/1/2 24/1/2 28/1/2
f 25/1/2 26/1/2 29/1/2
f 29/1/2 26/1/2 30/1/2
f 31/3/2 32/3/2 33/3/2
f 33/3/2 32/3/2 34/3/2
f 31/3/2 33/3/2 35/3/2
f 33/2/2 34/2/2 36/2/2
f 35/3/2 33/3/2 36/3/2
f 34/3/2 32/3/2 37/3/2
f 36/2/2 34/2/2 37/2/2
f 37/3/2 32/3/2 38/3/2
f 35/2/2 36/2/2 39/2/2
f 36/2/2 37/2/2 39/2/2
f 37/2/2 38/2/2 39/2/2
f 39/2/2 38/2/2 40/2/2
f 43/1/3 42/1/3 41/1/3
f 44/1/3 42/1/3 43/1/3
f 49/3/3 46/3/3 45/3/3
f 50/2/3 48/2/3 47/2/3
f 51/3/3 49/3/3 45/3/3
f 51/3/3 50/3/3 49/3/3
f 52/2/3 48/2/3 50/2/3
f 52/3/3 50/3/3 51/3/3
f 53/2/3 48/2/3 52/2/3
f 56/1/3 55/1/3 54/1/3
f 57/1/3 55/1/3 56/1/3
f 58/1/4 59/1/4 60/1/4
f 60/1/4 59/1/4 61/1/4
f 62/3/4 63/3/4 66/3/4
f 64/2/4 65/2/4 67/2/4
f 62/3/4 66/3/4 68/3/4
f 66/3/4 67/3/4 68/3/4
f 67/2/4 65/2/4 69/2/4
f 68/3/4 67/3/4 69/3/4
f 69/2/4 65/2/4 70/2/4
f 71/1/4 72/1/4 73/1/4
f 73/1/4 72/1/4 74/1/4
f 77/3/5 76/3/5 75/3/5
f 78/3/5 76/3/5 77/3/5
f 81/1/5 80/1/5 79/1/5
f 82/1/5 80/1/5 81/1/5
f 83/1/5 80/1/5 82/1/5
f 87/1/5 85/1/5 84/1/5
f 87/1/5 86/1/5 85/1/5
f 88/1/5 86/1/5 87/1/5
f 89/1/6 90/1/6 91/1/6
f 91/1/6 90/1/6 92/1/6
f 92/1/6 90/1/6 93/1/6
f 94/1/6 95/1/6 97/1/6
f 95/1/6 96/1/6 97/1/6
f 97/1/6 96/1/6 98/1/6
f 99/2/6 100/2/6 101/2/6
f 101/2/6 100/2/6 102/2/6
f 101/1/6 102/1/6 103/1/6
f 102/2/6 100/2/6 104/2/6
f 103/1/6 102/1/6 104/1/6
f 103/2/6 104/2/6 105/2/6
f 104/2/6 100/2/6 106/2/6
f 105/2/6 104/2/6 106/2/6
