# MagicaVoxel @ Ephtracy

# group
o 

# material
mtllib Corpo_-3.mtl
usemtl palette

# normals
vn -1 0 0
vn 1 0 0
vn 0 0 1
vn 0 0 -1
vn 0 -1 0
vn 0 1 0

# texcoords
vt 0.240234 0.5
vt 0.697266 0.5

# verts
v -0.55 -0.3 0.3
v -0.55 -0.3 -0.3
v -0.55 0.3 0.3
v -0.55 0.3 -0.3
v -0.35 -0.1 0.4
v -0.35 -0.1 0.3
v -0.35 -0.1 -0.3
v -0.35 -0.1 -0.4
v -0.35 0.2 0.4
v -0.35 0.2 0.3
v -0.35 0.2 -0.3
v -0.35 0.2 -0.4
v 0.05 -0.1 0.4
v 0.05 -0.1 0.3
v 0.05 -0.1 -0.3
v 0.05 -0.1 -0.4
v 0.05 0 0.4
v 0.05 0 0.3
v 0.05 0 -0.3
v 0.05 0 -0.4
v 0.05 0.1 0.4
v 0.05 0.1 0.3
v 0.05 0.1 -0.3
v 0.05 0.1 -0.4
v 0.05 0.2 0.4
v 0.05 0.2 0.3
v 0.05 0.2 -0.3
v 0.05 0.2 -0.4
v 0.25 0 0.4
v 0.25 0 0.3
v 0.25 0 -0.3
v 0.25 0 -0.4
v 0.25 0.1 0.4
v 0.25 0.1 0.3
v 0.25 0.1 -0.3
v 0.25 0.1 -0.4
v 0.45 -0.3 0.3
v 0.45 -0.3 -0.3
v 0.45 0 0.2
v 0.45 0 -0.2
v 0.45 0.2 0.2
v 0.45 0.2 -0.2
v 0.45 0.3 0.3
v 0.45 0.3 0.2
v 0.45 0.3 -0.2
v 0.45 0.3 -0.3
v 0.55 0 0.2
v 0.55 0 -0.2
v 0.55 0.1 0.1
v 0.55 0.1 -0.1
v 0.55 0.2 0.2
v 0.55 0.2 0.1
v 0.55 0.2 -0.1
v 0.55 0.2 -0.2
v 0.55 0.3 0.2
v 0.55 0.3 0.1
v 0.55 0.3 -0.1
v 0.55 0.3 -0.2
v 0.65 0.1 0.1
v 0.65 0.1 -0.1
v 0.65 0.3 0.1
v 0.65 0.3 -0.1
v -0.35 -0.1 0.4
v -0.35 0.2 0.4
v -0.15 -0.1 0.4
v -0.15 0 0.4
v -0.15 0.1 0.4
v -0.15 0.2 0.4
v 0.05 -0.1 0.4
v 0.05 0 0.4
v 0.05 0.1 0.4
v 0.05 0.2 0.4
v 0.25 0 0.4
v 0.25 0.1 0.4
v -0.55 -0.3 0.3
v -0.55 0.3 0.3
v -0.35 -0.1 0.3
v -0.35 0.2 0.3
v -0.15 -0.1 0.3
v -0.15 0.2 0.3
v 0.05 -0.1 0.3
v 0.05 0 0.3
v 0.05 0.1 0.3
v 0.05 0.2 0.3
v 0.25 0 0.3
v 0.25 0.1 0.3
v 0.45 -0.3 0.3
v 0.45 0.3 0.3
v 0.45 0 0.2
v 0.45 0.2 0.2
v 0.45 0.3 0.2
v 0.55 0 0.2
v 0.55 0.2 0.2
v 0.55 0.3 0.2
v 0.55 0.1 0.1
v 0.55 0.2 0.1
v 0.55 0.3 0.1
v 0.65 0.1 0.1
v 0.65 0.3 0.1
v 0.55 0.1 -0.1
v 0.55 0.2 -0.1
v 0.55 0.3 -0.1
v 0.65 0.1 -0.1
v 0.65 0.3 -0.1
v 0.45 0 -0.2
v 0.45 0.2 -0.2
v 0.45 0.3 -0.2
v 0.55 0 -0.2
v 0.55 0.2 -0.2
v 0.55 0.3 -0.2
v -0.55 -0.3 -0.3
v -0.55 0.3 -0.3
v -0.35 -0.1 -0.3
v -0.35 0.2 -0.3
v -0.15 -0.1 -0.3
v -0.15 0.2 -0.3
v 0.05 -0.1 -0.3
v 0.05 0 -0.3
v 0.05 0.1 -0.3
v 0.05 0.2 -0.3
v 0.25 0 -0.3
v 0.25 0.1 -0.3
v 0.45 -0.3 -0.3
v 0.45 0.3 -0.3
v -0.35 -0.1 -0.4
v -0.35 0.2 -0.4
v -0.15 -0.1 -0.4
v -0.15 0 -0.4
v -0.15 0.1 -0.4
v -0.15 0.2 -0.4
v 0.05 -0.1 -0.4
v 0.05 0 -0.4
v 0.05 0.1 -0.4
v 0.05 0.2 -0.4
v 0.25 0 -0.4
v 0.25 0.1 -0.4
v -0.55 -0.3 0.3
v 0.45 -0.3 0.3
v -0.55 -0.3 -0.3
v 0.45 -0.3 -0.3
v -0.35 -0.1 0.4
v -0.15 -0.1 0.4
v 0.05 -0.1 0.4
v -0.35 -0.1 0.3
v -0.15 -0.1 0.3
v 0.05 -0.1 0.3
v -0.35 -0.1 -0.3
v -0.15 -0.1 -0.3
v 0.05 -0.1 -0.3
v -0.35 -0.1 -0.4
v -0.15 -0.1 -0.4
v 0.05 -0.1 -0.4
v 0.05 0 0.4
v 0.25 0 0.4
v 0.05 0 0.3
v 0.25 0 0.3
v 0.45 0 0.2
v 0.55 0 0.2
v 0.45 0 -0.2
v 0.55 0 -0.2
v 0.05 0 -0.3
v 0.25 0 -0.3
v 0.05 0 -0.4
v 0.25 0 -0.4
v 0.55 0.1 0.1
v 0.65 0.1 0.1
v 0.55 0.1 -0.1
v 0.65 0.1 -0.1
v 0.05 0.1 0.4
v 0.25 0.1 0.4
v 0.05 0.1 0.3
v 0.25 0.1 0.3
v 0.05 0.1 -0.3
v 0.25 0.1 -0.3
v 0.05 0.1 -0.4
v 0.25 0.1 -0.4
v -0.35 0.2 0.4
v -0.15 0.2 0.4
v 0.05 0.2 0.4
v -0.35 0.2 0.3
v -0.15 0.2 0.3
v 0.05 0.2 0.3
v -0.35 0.2 -0.3
v -0.15 0.2 -0.3
v 0.05 0.2 -0.3
v -0.35 0.2 -0.4
v -0.15 0.2 -0.4
v 0.05 0.2 -0.4
v -0.55 0.3 0.3
v 0.45 0.3 0.3
v 0.45 0.3 0.2
v 0.55 0.3 0.2
v 0.45 0.3 0.1
v 0.55 0.3 0.1
v 0.65 0.3 0.1
v 0.45 0.3 -0.1
v 0.55 0.3 -0.1
v 0.65 0.3 -0.1
v 0.45 0.3 -0.2
v 0.55 0.3 -0.2
v -0.55 0.3 -0.3
v 0.45 0.3 -0.3

# faces
f 3/1/1 2/1/1 1/1/1
f 4/1/1 2/1/1 3/1/1
f 9/1/1 6/1/1 5/1/1
f 10/1/1 6/1/1 9/1/1
f 11/1/1 8/1/1 7/1/1
f 12/1/1 8/1/1 11/1/1
f 13/2/2 14/2/2 17/2/2
f 17/2/2 14/2/2 18/2/2
f 15/2/2 16/2/2 19/2/2
f 19/2/2 16/2/2 20/2/2
f 21/2/2 22/2/2 25/2/2
f 25/2/2 22/2/2 26/2/2
f 23/2/2 24/2/2 27/2/2
f 27/2/2 24/2/2 28/2/2
f 29/2/2 30/2/2 33/2/2
f 33/2/2 30/2/2 34/2/2
f 31/2/2 32/2/2 35/2/2
f 35/2/2 32/2/2 36/2/2
f 37/1/2 38/1/2 39/1/2
f 39/1/2 38/1/2 40/1/2
f 37/1/2 39/1/2 41/1/2
f 40/1/2 38/1/2 42/1/2
f 37/1/2 41/1/2 43/1/2
f 43/1/2 41/1/2 44/1/2
f 42/1/2 38/1/2 45/1/2
f 45/1/2 38/1/2 46/1/2
f 47/1/2 48/1/2 49/1/2
f 49/1/2 48/1/2 50/1/2
f 47/1/2 49/1/2 51/1/2
f 51/1/2 49/1/2 52/1/2
f 50/1/2 48/1/2 53/1/2
f 53/1/2 48/1/2 54/1/2
f 51/2/2 52/2/2 55/2/2
f 55/2/2 52/2/2 56/2/2
f 53/2/2 54/2/2 57/2/2
f 57/2/2 54/2/2 58/2/2
f 59/2/2 60/2/2 61/2/2
f 61/2/2 60/2/2 62/2/2
f 65/1/3 64/1/3 63/1/3
f 66/1/3 64/1/3 65/1/3
f 67/1/3 64/1/3 66/1/3
f 68/1/3 64/1/3 67/1/3
f 69/2/3 66/2/3 65/2/3
f 70/1/3 67/1/3 66/1/3
f 70/2/3 66/2/3 69/2/3
f 71/2/3 68/2/3 67/2/3
f 71/1/3 67/1/3 70/1/3
f 72/2/3 68/2/3 71/2/3
f 73/2/3 71/2/3 70/2/3
f 74/2/3 71/2/3 73/2/3
f 77/1/3 76/1/3 75/1/3
f 78/1/3 76/1/3 77/1/3
f 79/1/3 77/1/3 75/1/3
f 80/1/3 76/1/3 78/1/3
f 81/1/3 79/1/3 75/1/3
f 84/1/3 76/1/3 80/1/3
f 85/1/3 82/1/3 81/1/3
f 86/1/3 84/1/3 83/1/3
f 87/1/3 85/1/3 81/1/3
f 87/1/3 86/1/3 85/1/3
f 87/1/3 81/1/3 75/1/3
f 88/1/3 84/1/3 86/1/3
f 88/1/3 86/1/3 87/1/3
f 88/1/3 76/1/3 84/1/3
f 92/1/3 90/1/3 89/1/3
f 93/2/3 91/2/3 90/2/3
f 93/1/3 90/1/3 92/1/3
f 94/2/3 91/2/3 93/2/3
f 98/2/3 96/2/3 95/2/3
f 98/2/3 97/2/3 96/2/3
f 99/2/3 97/2/3 98/2/3
f 100/2/4 101/2/4 103/2/4
f 101/2/4 102/2/4 103/2/4
f 103/2/4 102/2/4 104/2/4
f 105/1/4 106/1/4 108/1/4
f 106/2/4 107/2/4 109/2/4
f 108/1/4 106/1/4 109/1/4
f 109/2/4 107/2/4 110/2/4
f 111/1/4 112/1/4 113/1/4
f 113/1/4 112/1/4 114/1/4
f 111/1/4 113/1/4 115/1/4
f 114/1/4 112/1/4 116/1/4
f 111/1/4 115/1/4 117/1/4
f 116/1/4 112/1/4 120/1/4
f 117/1/4 118/1/4 121/1/4
f 119/1/4 120/1/4 122/1/4
f 117/1/4 121/1/4 123/1/4
f 121/1/4 122/1/4 123/1/4
f 111/1/4 117/1/4 123/1/4
f 122/1/4 120/1/4 124/1/4
f 123/1/4 122/1/4 124/1/4
f 120/1/4 112/1/4 124/1/4
f 125/1/4 126/1/4 127/1/4
f 127/1/4 126/1/4 128/1/4
f 128/1/4 126/1/4 129/1/4
f 129/1/4 126/1/4 130/1/4
f 127/2/4 128/2/4 131/2/4
f 128/1/4 129/1/4 132/1/4
f 131/2/4 128/2/4 132/2/4
f 129/2/4 130/2/4 133/2/4
f 132/1/4 129/1/4 133/1/4
f 133/2/4 130/2/4 134/2/4
f 132/2/4 133/2/4 135/2/4
f 135/2/4 133/2/4 136/2/4
f 139/1/5 138/1/5 137/1/5
f 140/1/5 138/1/5 139/1/5
f 144/1/5 142/1/5 141/1/5
f 145/2/5 143/2/5 142/2/5
f 145/1/5 142/1/5 144/1/5
f 146/2/5 143/2/5 145/2/5
f 150/1/5 148/1/5 147/1/5
f 151/2/5 149/2/5 148/2/5
f 151/1/5 148/1/5 150/1/5
f 152/2/5 149/2/5 151/2/5
f 155/2/5 154/2/5 153/2/5
f 156/2/5 154/2/5 155/2/5
f 159/1/5 158/1/5 157/1/5
f 160/1/5 158/1/5 159/1/5
f 163/2/5 162/2/5 161/2/5
f 164/2/5 162/2/5 163/2/5
f 167/2/5 166/2/5 165/2/5
f 168/2/5 166/2/5 167/2/5
f 169/2/6 170/2/6 171/2/6
f 171/2/6 170/2/6 172/2/6
f 173/2/6 174/2/6 175/2/6
f 175/2/6 174/2/6 176/2/6
f 177/1/6 178/1/6 180/1/6
f 178/2/6 179/2/6 181/2/6
f 180/1/6 178/1/6 181/1/6
f 181/2/6 179/2/6 182/2/6
f 183/1/6 184/1/6 186/1/6
f 184/2/6 185/2/6 187/2/6
f 186/1/6 184/1/6 187/1/6
f 187/2/6 185/2/6 188/2/6
f 189/1/6 190/1/6 191/1/6
f 189/1/6 191/1/6 193/1/6
f 191/2/6 192/2/6 193/2/6
f 193/2/6 192/2/6 194/2/6
f 189/1/6 193/1/6 196/1/6
f 193/1/6 194/1/6 196/1/6
f 194/2/6 195/2/6 197/2/6
f 196/1/6 194/1/6 197/1/6
f 197/2/6 195/2/6 198/2/6
f 189/1/6 196/1/6 199/1/6
f 196/2/6 197/2/6 199/2/6
f 199/2/6 197/2/6 200/2/6
f 189/1/6 199/1/6 201/1/6
f 201/1/6 199/1/6 202/1/6
