# MagicaVoxel @ Ephtracy

# group
o 

# material
mtllib Corpo-2.mtl
usemtl palette

# normals
vn -1 0 0
vn 1 0 0
vn 0 0 1
vn 0 0 -1
vn 0 -1 0
vn 0 1 0

# texcoords
vt 0.349609 0.5
vt 0.353516 0.5
vt 0.478516 0.5

# verts
v -0.35 -0.1 0.45
v -0.35 -0.1 0.25
v -0.35 -0.1 -0.25
v -0.35 -0.1 -0.45
v -0.35 0.1 0.45
v -0.35 0.1 0.25
v -0.35 0.1 -0.25
v -0.35 0.1 -0.45
v -0.25 0.1 0.35
v -0.25 0.1 0.25
v -0.25 0.1 0.15
v -0.25 0.1 -0.15
v -0.25 0.1 -0.25
v -0.25 0.1 -0.35
v -0.25 0.2 0.35
v -0.25 0.2 0.15
v -0.25 0.2 -0.15
v -0.25 0.2 -0.35
v -0.15 -0.3 0.35
v -0.15 -0.3 -0.35
v -0.15 -0.1 0.35
v -0.15 -0.1 0.25
v -0.15 -0.1 -0.25
v -0.15 -0.1 -0.35
v -0.15 0.1 0.45
v -0.15 0.1 0.35
v -0.15 0.1 0.25
v -0.15 0.1 0.15
v -0.15 0.1 0.05
v -0.15 0.1 -0.05
v -0.15 0.1 -0.15
v -0.15 0.1 -0.25
v -0.15 0.1 -0.35
v -0.15 0.1 -0.45
v -0.15 0.2 0.45
v -0.15 0.2 0.35
v -0.15 0.2 0.15
v -0.15 0.2 0.05
v -0.15 0.2 -0.05
v -0.15 0.2 -0.15
v -0.15 0.2 -0.35
v -0.15 0.2 -0.45
v -0.15 0.3 0.35
v -0.15 0.3 0.15
v -0.15 0.3 -0.15
v -0.15 0.3 -0.35
v -0.05 -0.1 0.45
v -0.05 -0.1 0.35
v -0.05 -0.1 -0.35
v -0.05 -0.1 -0.45
v -0.05 0 0.45
v -0.05 0 0.35
v -0.05 0 -0.35
v -0.05 0 -0.45
v 0.05 -0.3 0.35
v 0.05 -0.3 -0.35
v 0.05 0 0.45
v 0.05 0 0.35
v 0.05 0 0.15
v 0.05 0 0.05
v 0.05 0 -0.05
v 0.05 0 -0.15
v 0.05 0 -0.35
v 0.05 0 -0.45
v 0.05 0.2 0.45
v 0.05 0.2 0.35
v 0.05 0.2 0.15
v 0.05 0.2 0.05
v 0.05 0.2 -0.05
v 0.05 0.2 -0.15
v 0.05 0.2 -0.35
v 0.05 0.2 -0.45
v 0.05 0.3 0.35
v 0.05 0.3 0.15
v 0.05 0.3 -0.15
v 0.05 0.3 -0.35
v 0.15 0 0.35
v 0.15 0 0.15
v 0.15 0 -0.15
v 0.15 0 -0.35
v 0.15 0.2 0.35
v 0.15 0.2 0.15
v 0.15 0.2 -0.15
v 0.15 0.2 -0.35
v -0.35 -0.1 0.45
v -0.35 0.1 0.45
v -0.15 0.1 0.45
v -0.15 0.2 0.45
v -0.05 -0.1 0.45
v -0.05 0 0.45
v -0.05 0.1 0.45
v 0.05 0 0.45
v 0.05 0.2 0.45
v -0.25 0.1 0.35
v -0.25 0.2 0.35
v -0.15 -0.3 0.35
v -0.15 -0.1 0.35
v -0.15 0.1 0.35
v -0.15 0.2 0.35
v -0.15 0.3 0.35
v -0.05 -0.1 0.35
v -0.05 0 0.35
v 0.05 -0.3 0.35
v 0.05 0 0.35
v 0.05 0.2 0.35
v 0.05 0.3 0.35
v 0.15 0 0.35
v 0.15 0.2 0.35
v -0.25 0.1 -0.15
v -0.25 0.2 -0.15
v -0.15 0.1 -0.15
v -0.15 0.2 -0.15
v 0.05 0 -0.15
v 0.05 0.2 -0.15
v 0.15 0 -0.15
v 0.15 0.2 -0.15
v -0.35 -0.1 -0.25
v -0.35 0.1 -0.25
v -0.25 0.1 -0.25
v -0.15 -0.1 -0.25
v -0.15 0.1 -0.25
v -0.35 -0.1 0.25
v -0.35 0.1 0.25
v -0.25 0.1 0.25
v -0.15 -0.1 0.25
v -0.15 0.1 0.25
v -0.25 0.1 0.15
v -0.25 0.2 0.15
v -0.15 0.1 0.15
v -0.15 0.2 0.15
v 0.05 0 0.15
v 0.05 0.2 0.15
v 0.15 0 0.15
v 0.15 0.2 0.15
v -0.25 0.1 -0.35
v -0.25 0.2 -0.35
v -0.15 -0.3 -0.35
v -0.15 -0.1 -0.35
v -0.15 0.1 -0.35
v -0.15 0.2 -0.35
v -0.15 0.3 -0.35
v -0.05 -0.1 -0.35
v -0.05 0 -0.35
v 0.05 -0.3 -0.35
v 0.05 0 -0.35
v 0.05 0.2 -0.35
v 0.05 0.3 -0.35
v 0.15 0 -0.35
v 0.15 0.2 -0.35
v -0.35 -0.1 -0.45
v -0.35 0.1 -0.45
v -0.15 0.1 -0.45
v -0.15 0.2 -0.45
v -0.05 -0.1 -0.45
v -0.05 0 -0.45
v -0.05 0.1 -0.45
v 0.05 0 -0.45
v 0.05 0.2 -0.45
v -0.15 -0.3 0.35
v 0.05 -0.3 0.35
v -0.15 -0.3 -0.35
v 0.05 -0.3 -0.35
v -0.35 -0.1 0.45
v -0.05 -0.1 0.45
v -0.15 -0.1 0.35
v -0.05 -0.1 0.35
v -0.35 -0.1 0.25
v -0.15 -0.1 0.25
v -0.35 -0.1 -0.25
v -0.15 -0.1 -0.25
v -0.15 -0.1 -0.35
v -0.05 -0.1 -0.35
v -0.35 -0.1 -0.45
v -0.05 -0.1 -0.45
v -0.05 0 0.45
v 0.05 0 0.45
v -0.05 0 0.35
v 0.05 0 0.35
v 0.15 0 0.35
v 0.05 0 0.15
v 0.15 0 0.15
v 0.05 0 -0.15
v 0.15 0 -0.15
v -0.05 0 -0.35
v 0.05 0 -0.35
v 0.15 0 -0.35
v -0.05 0 -0.45
v 0.05 0 -0.45
v -0.25 0.1 0.25
v -0.15 0.1 0.25
v -0.25 0.1 0.15
v -0.15 0.1 0.15
v -0.25 0.1 -0.15
v -0.15 0.1 -0.15
v -0.25 0.1 -0.25
v -0.15 0.1 -0.25
v -0.35 0.1 0.45
v -0.15 0.1 0.45
v -0.25 0.1 0.35
v -0.15 0.1 0.35
v -0.35 0.1 0.25
v -0.25 0.1 0.25
v -0.35 0.1 -0.25
v -0.25 0.1 -0.25
v -0.25 0.1 -0.35
v -0.15 0.1 -0.35
v -0.35 0.1 -0.45
v -0.15 0.1 -0.45
v -0.15 0.2 0.45
v 0.05 0.2 0.45
v -0.25 0.2 0.35
v -0.15 0.2 0.35
v 0.05 0.2 0.35
v 0.15 0.2 0.35
v -0.25 0.2 0.15
v -0.15 0.2 0.15
v 0.05 0.2 0.15
v 0.15 0.2 0.15
v -0.25 0.2 -0.15
v -0.15 0.2 -0.15
v 0.05 0.2 -0.15
v 0.15 0.2 -0.15
v -0.25 0.2 -0.35
v -0.15 0.2 -0.35
v 0.05 0.2 -0.35
v 0.15 0.2 -0.35
v -0.15 0.2 -0.45
v 0.05 0.2 -0.45
v -0.15 0.3 0.35
v 0.05 0.3 0.35
v -0.15 0.3 0.15
v -0.05 0.3 0.15
v 0.05 0.3 0.15
v -0.15 0.3 -0.15
v -0.05 0.3 -0.15
v 0.05 0.3 -0.15
v -0.15 0.3 -0.35
v 0.05 0.3 -0.35

# faces
f 5/3/1 2/3/1 1/3/1
f 6/3/1 2/3/1 5/3/1
f 7/3/1 4/3/1 3/3/1
f 8/3/1 4/3/1 7/3/1
f 15/2/1 10/2/1 9/2/1
f 15/2/1 11/2/1 10/2/1
f 16/2/1 11/2/1 15/2/1
f 17/2/1 14/2/1 13/2/1
f 17/2/1 13/2/1 12/2/1
f 18/2/1 14/2/1 17/2/1
f 21/1/1 20/1/1 19/1/1
f 22/1/1 20/1/1 21/1/1
f 23/1/1 20/1/1 22/1/1
f 24/1/1 20/1/1 23/1/1
f 27/1/1 23/1/1 22/1/1
f 28/1/1 23/1/1 27/1/1
f 29/1/1 23/1/1 28/1/1
f 30/1/1 23/1/1 29/1/1
f 31/1/1 23/1/1 30/1/1
f 32/1/1 23/1/1 31/1/1
f 35/2/1 26/2/1 25/2/1
f 36/2/1 26/2/1 35/2/1
f 37/1/1 29/1/1 28/1/1
f 38/3/1 30/3/1 29/3/1
f 38/1/1 29/1/1 37/1/1
f 39/1/1 31/1/1 30/1/1
f 39/3/1 30/3/1 38/3/1
f 40/1/1 31/1/1 39/1/1
f 41/2/1 34/2/1 33/2/1
f 42/2/1 34/2/1 41/2/1
f 43/2/1 37/2/1 36/2/1
f 44/3/1 40/3/1 39/3/1
f 44/2/1 37/2/1 43/2/1
f 44/3/1 38/3/1 37/3/1
f 44/3/1 39/3/1 38/3/1
f 45/2/1 41/2/1 40/2/1
f 45/3/1 40/3/1 44/3/1
f 46/2/1 41/2/1 45/2/1
f 47/3/2 48/3/2 51/3/2
f 51/3/2 48/3/2 52/3/2
f 49/3/2 50/3/2 53/3/2
f 53/3/2 50/3/2 54/3/2
f 55/1/2 56/1/2 58/1/2
f 58/1/2 56/1/2 59/1/2
f 59/1/2 56/1/2 60/1/2
f 60/1/2 56/1/2 61/1/2
f 61/1/2 56/1/2 62/1/2
f 62/1/2 56/1/2 63/1/2
f 57/2/2 58/2/2 65/2/2
f 65/2/2 58/2/2 66/2/2
f 59/2/2 60/2/2 67/2/2
f 60/1/2 61/1/2 68/1/2
f 67/2/2 60/2/2 68/2/2
f 61/2/2 62/2/2 69/2/2
f 68/1/2 61/1/2 69/1/2
f 69/2/2 62/2/2 70/2/2
f 63/2/2 64/2/2 71/2/2
f 71/2/2 64/2/2 72/2/2
f 66/2/2 67/2/2 73/2/2
f 69/1/2 70/1/2 74/1/2
f 73/2/2 67/2/2 74/2/2
f 67/1/2 68/1/2 74/1/2
f 68/1/2 69/1/2 74/1/2
f 70/2/2 71/2/2 75/2/2
f 74/1/2 70/1/2 75/1/2
f 75/2/2 71/2/2 76/2/2
f 77/2/2 78/2/2 81/2/2
f 81/2/2 78/2/2 82/2/2
f 79/2/2 80/2/2 83/2/2
f 83/2/2 80/2/2 84/2/2
f 87/3/3 86/3/3 85/3/3
f 89/3/3 87/3/3 85/3/3
f 90/3/3 87/3/3 89/3/3
f 91/2/3 88/2/3 87/2/3
f 91/3/3 87/3/3 90/3/3
f 92/2/3 91/2/3 90/2/3
f 93/2/3 88/2/3 91/2/3
f 93/2/3 91/2/3 92/2/3
f 98/2/3 95/2/3 94/2/3
f 99/2/3 95/2/3 98/2/3
f 101/1/3 97/1/3 96/1/3
f 103/1/3 101/1/3 96/1/3
f 103/1/3 102/1/3 101/1/3
f 104/1/3 102/1/3 103/1/3
f 105/2/3 100/2/3 99/2/3
f 106/2/3 100/2/3 105/2/3
f 107/2/3 105/2/3 104/2/3
f 108/2/3 105/2/3 107/2/3
f 111/2/3 110/2/3 109/2/3
f 112/2/3 110/2/3 111/2/3
f 115/2/3 114/2/3 113/2/3
f 116/2/3 114/2/3 115/2/3
f 119/3/3 118/3/3 117/3/3
f 120/3/3 119/3/3 117/3/3
f 121/3/3 119/3/3 120/3/3
f 122/3/4 123/3/4 124/3/4
f 122/3/4 124/3/4 125/3/4
f 125/3/4 124/3/4 126/3/4
f 127/2/4 128/2/4 129/2/4
f 129/2/4 128/2/4 130/2/4
f 131/2/4 132/2/4 133/2/4
f 133/2/4 132/2/4 134/2/4
f 135/2/4 136/2/4 139/2/4
f 139/2/4 136/2/4 140/2/4
f 137/1/4 138/1/4 142/1/4
f 137/1/4 142/1/4 144/1/4
f 142/1/4 143/1/4 144/1/4
f 144/1/4 143/1/4 145/1/4
f 140/2/4 141/2/4 146/2/4
f 146/2/4 141/2/4 147/2/4
f 145/2/4 146/2/4 148/2/4
f 148/2/4 146/2/4 149/2/4
f 150/3/4 151/3/4 152/3/4
f 150/3/4 152/3/4 154/3/4
f 154/3/4 152/3/4 155/3/4
f 152/2/4 153/2/4 156/2/4
f 155/3/4 152/3/4 156/3/4
f 155/2/4 156/2/4 157/2/4
f 156/2/4 153/2/4 158/2/4
f 157/2/4 156/2/4 158/2/4
f 161/1/5 160/1/5 159/1/5
f 162/1/5 160/1/5 161/1/5
f 165/3/5 164/3/5 163/3/5
f 166/3/5 164/3/5 165/3/5
f 167/3/5 165/3/5 163/3/5
f 168/3/5 165/3/5 167/3/5
f 171/3/5 170/3/5 169/3/5
f 173/3/5 171/3/5 169/3/5
f 173/3/5 172/3/5 171/3/5
f 174/3/5 172/3/5 173/3/5
f 177/2/5 176/2/5 175/2/5
f 178/2/5 176/2/5 177/2/5
f 180/2/5 179/2/5 178/2/5
f 181/2/5 179/2/5 180/2/5
f 185/2/5 183/2/5 182/2/5
f 186/2/5 183/2/5 185/2/5
f 187/2/5 185/2/5 184/2/5
f 188/2/5 185/2/5 187/2/5
f 191/2/5 190/2/5 189/2/5
f 192/2/5 190/2/5 191/2/5
f 195/2/5 194/2/5 193/2/5
f 196/2/5 194/2/5 195/2/5
f 197/3/6 198/3/6 199/3/6
f 199/3/6 198/3/6 200/3/6
f 197/3/6 199/3/6 201/3/6
f 201/3/6 199/3/6 202/3/6
f 203/3/6 204/3/6 205/3/6
f 203/3/6 205/3/6 207/3/6
f 205/3/6 206/3/6 207/3/6
f 207/3/6 206/3/6 208/3/6
f 209/2/6 210/2/6 212/2/6
f 212/2/6 210/2/6 213/2/6
f 211/2/6 212/2/6 215/2/6
f 215/2/6 212/2/6 216/2/6
f 213/2/6 214/2/6 217/2/6
f 217/2/6 214/2/6 218/2/6
f 219/2/6 220/2/6 223/2/6
f 223/2/6 220/2/6 224/2/6
f 221/2/6 222/2/6 225/2/6
f 225/2/6 222/2/6 226/2/6
f 224/2/6 225/2/6 227/2/6
f 227/2/6 225/2/6 228/2/6
f 229/2/6 230/2/6 231/2/6
f 231/2/6 230/2/6 232/2/6
f 232/2/6 230/2/6 233/2/6
f 231/3/6 232/3/6 234/3/6
f 232/1/6 233/1/6 235/1/6
f 234/3/6 232/3/6 235/3/6
f 235/1/6 233/1/6 236/1/6
f 234/2/6 235/2/6 237/2/6
f 235/2/6 236/2/6 237/2/6
f 237/2/6 236/2/6 238/2/6
