# MagicaVoxel @ Ephtracy

# group
o 

# material
mtllib Head_-1.mtl
usemtl palette

# normals
vn -1 0 0
vn 1 0 0
vn 0 0 1
vn 0 0 -1
vn 0 -1 0
vn 0 1 0

# texcoords
vt 0.236328 0.5
vt 0.603516 0.5
vt 0.607422 0.5
vt 0.994141 0.5

# verts
v -0.85 -0.2 0.1
v -0.85 -0.2 -0.1
v -0.85 0 0.1
v -0.85 0 -0.1
v -0.75 -0.4 0.1
v -0.75 -0.4 -0.1
v -0.75 -0.2 0.1
v -0.75 -0.2 -0.1
v -0.65 -0.1 0.4
v -0.65 -0.1 0.1
v -0.65 -0.1 -0.1
v -0.65 -0.1 -0.4
v -0.65 0 0.1
v -0.65 0 -0.1
v -0.65 0.1 0.1
v -0.65 0.1 -0.1
v -0.65 0.2 0.4
v -0.65 0.2 -0.4
v -0.55 -0.5 0.3
v -0.55 -0.5 -0.3
v -0.55 -0.4 0.1
v -0.55 -0.4 -0.1
v -0.55 -0.2 0.1
v -0.55 -0.2 -0.1
v -0.55 -0.1 0.3
v -0.55 -0.1 0.1
v -0.55 -0.1 -0.1
v -0.55 -0.1 -0.3
v -0.55 0 0.1
v -0.55 0 -0.1
v -0.55 0.1 0.1
v -0.55 0.1 -0.1
v -0.55 0.2 0.3
v -0.55 0.2 -0.3
v -0.55 0.3 0.3
v -0.55 0.3 -0.3
v -0.45 0.3 0.1
v -0.45 0.3 -0.1
v -0.45 0.5 0.1
v -0.45 0.5 -0.1
v -0.05 0 0.4
v -0.05 0 0.3
v -0.05 0 -0.3
v -0.05 0 -0.4
v -0.05 0.1 0.4
v -0.05 0.1 0.3
v -0.05 0.1 -0.3
v -0.05 0.1 -0.4
v -0.55 -0.1 0.4
v -0.55 -0.1 0.3
v -0.55 -0.1 -0.3
v -0.55 -0.1 -0.4
v -0.55 0 0.4
v -0.55 0 0.3
v -0.55 0 -0.3
v -0.55 0 -0.4
v -0.45 0 0.4
v -0.45 0 0.3
v -0.45 0 -0.3
v -0.45 0 -0.4
v -0.45 0.1 0.4
v -0.45 0.1 0.3
v -0.45 0.1 -0.3
v -0.45 0.1 -0.4
v -0.05 0.1 0.4
v -0.05 0.1 0.3
v -0.05 0.1 -0.3
v -0.05 0.1 -0.4
v -0.05 0.2 0.4
v -0.05 0.2 0.3
v -0.05 0.2 -0.3
v -0.05 0.2 -0.4
v -0.05 0.3 0.1
v -0.05 0.3 -0.1
v -0.05 0.5 0.1
v -0.05 0.5 -0.1
v 0.05 0 0.4
v 0.05 0 0.3
v 0.05 0 -0.3
v 0.05 0 -0.4
v 0.05 0.1 0.4
v 0.05 0.1 0.3
v 0.05 0.1 -0.3
v 0.05 0.1 -0.4
v 0.15 -0.5 0.3
v 0.15 -0.5 -0.3
v 0.15 0.3 0.3
v 0.15 0.3 -0.3
v -0.65 -0.1 0.4
v -0.65 0.2 0.4
v -0.55 -0.1 0.4
v -0.55 0 0.4
v -0.45 0 0.4
v -0.45 0.1 0.4
v -0.05 0 0.4
v -0.05 0.1 0.4
v -0.05 0.2 0.4
v 0.05 0 0.4
v 0.05 0.1 0.4
v -0.55 -0.5 0.3
v -0.55 -0.1 0.3
v -0.55 0 0.3
v -0.55 0.2 0.3
v -0.55 0.3 0.3
v -0.45 0 0.3
v -0.45 0.1 0.3
v -0.05 0 0.3
v -0.05 0.1 0.3
v -0.05 0.2 0.3
v 0.05 0 0.3
v 0.05 0.1 0.3
v 0.15 -0.5 0.3
v 0.15 0.3 0.3
v -0.85 -0.2 0.1
v -0.85 0 0.1
v -0.75 -0.4 0.1
v -0.75 -0.2 0.1
v -0.65 -0.1 0.1
v -0.65 0 0.1
v -0.55 -0.4 0.1
v -0.55 -0.2 0.1
v -0.55 -0.1 0.1
v -0.45 0.3 0.1
v -0.45 0.5 0.1
v -0.05 0.3 0.1
v -0.05 0.5 0.1
v -0.65 0 -0.1
v -0.65 0.1 -0.1
v -0.55 0 -0.1
v -0.55 0.1 -0.1
v -0.65 0 0.1
v -0.65 0.1 0.1
v -0.55 0 0.1
v -0.55 0.1 0.1
v -0.85 -0.2 -0.1
v -0.85 0 -0.1
v -0.75 -0.4 -0.1
v -0.75 -0.2 -0.1
v -0.65 -0.1 -0.1
v -0.65 0 -0.1
v -0.55 -0.4 -0.1
v -0.55 -0.2 -0.1
v -0.55 -0.1 -0.1
v -0.45 0.3 -0.1
v -0.45 0.5 -0.1
v -0.05 0.3 -0.1
v -0.05 0.5 -0.1
v -0.55 -0.5 -0.3
v -0.55 -0.1 -0.3
v -0.55 0 -0.3
v -0.55 0.2 -0.3
v -0.55 0.3 -0.3
v -0.45 0 -0.3
v -0.45 0.1 -0.3
v -0.05 0 -0.3
v -0.05 0.1 -0.3
v -0.05 0.2 -0.3
v 0.05 0 -0.3
v 0.05 0.1 -0.3
v 0.15 -0.5 -0.3
v 0.15 0.3 -0.3
v -0.65 -0.1 -0.4
v -0.65 0.2 -0.4
v -0.55 -0.1 -0.4
v -0.55 0 -0.4
v -0.45 0 -0.4
v -0.45 0.1 -0.4
v -0.05 0 -0.4
v -0.05 0.1 -0.4
v -0.05 0.2 -0.4
v 0.05 0 -0.4
v 0.05 0.1 -0.4
v -0.55 -0.5 0.3
v 0.15 -0.5 0.3
v -0.55 -0.5 -0.3
v 0.15 -0.5 -0.3
v -0.75 -0.4 0.1
v -0.55 -0.4 0.1
v -0.75 -0.4 -0.1
v -0.55 -0.4 -0.1
v -0.85 -0.2 0.1
v -0.75 -0.2 0.1
v -0.85 -0.2 -0.1
v -0.75 -0.2 -0.1
v -0.65 -0.1 0.4
v -0.55 -0.1 0.4
v -0.55 -0.1 0.3
v -0.65 -0.1 0.1
v -0.55 -0.1 0.1
v -0.65 -0.1 -0.1
v -0.55 -0.1 -0.1
v -0.55 -0.1 -0.3
v -0.65 -0.1 -0.4
v -0.55 -0.1 -0.4
v -0.55 0 0.4
v -0.45 0 0.4
v -0.05 0 0.4
v 0.05 0 0.4
v -0.55 0 0.3
v -0.45 0 0.3
v -0.05 0 0.3
v 0.05 0 0.3
v -0.55 0 -0.3
v -0.45 0 -0.3
v -0.05 0 -0.3
v 0.05 0 -0.3
v -0.55 0 -0.4
v -0.45 0 -0.4
v -0.05 0 -0.4
v 0.05 0 -0.4
v -0.45 0.1 0.4
v -0.05 0.1 0.4
v -0.45 0.1 0.3
v -0.05 0.1 0.3
v -0.65 0.1 0.1
v -0.55 0.1 0.1
v -0.65 0.1 -0.1
v -0.55 0.1 -0.1
v -0.45 0.1 -0.3
v -0.05 0.1 -0.3
v -0.45 0.1 -0.4
v -0.05 0.1 -0.4
v -0.85 0 0.1
v -0.65 0 0.1
v -0.55 0 0.1
v -0.85 0 -0.1
v -0.65 0 -0.1
v -0.55 0 -0.1
v -0.05 0.1 0.4
v 0.05 0.1 0.4
v -0.05 0.1 0.3
v 0.05 0.1 0.3
v -0.05 0.1 -0.3
v 0.05 0.1 -0.3
v -0.05 0.1 -0.4
v 0.05 0.1 -0.4
v -0.65 0.2 0.4
v -0.05 0.2 0.4
v -0.55 0.2 0.3
v -0.05 0.2 0.3
v -0.55 0.2 -0.3
v -0.05 0.2 -0.3
v -0.65 0.2 -0.4
v -0.05 0.2 -0.4
v -0.55 0.3 0.3
v 0.15 0.3 0.3
v -0.45 0.3 0.1
v -0.05 0.3 0.1
v -0.45 0.3 -0.1
v -0.05 0.3 -0.1
v -0.55 0.3 -0.3
v 0.15 0.3 -0.3
v -0.45 0.5 0.1
v -0.05 0.5 0.1
v -0.45 0.5 -0.1
v -0.05 0.5 -0.1

# faces
f 3/3/1 2/3/1 1/3/1
f 4/3/1 2/3/1 3/3/1
f 7/2/1 6/2/1 5/2/1
f 8/2/1 6/2/1 7/2/1
f 13/4/1 10/4/1 9/4/1
f 14/4/1 12/4/1 11/4/1
f 15/4/1 13/4/1 9/4/1
f 16/4/1 12/4/1 14/4/1
f 17/4/1 15/4/1 9/4/1
f 17/4/1 16/4/1 15/4/1
f 18/4/1 12/4/1 16/4/1
f 18/4/1 16/4/1 17/4/1
f 21/1/1 20/1/1 19/1/1
f 22/1/1 20/1/1 21/1/1
f 23/1/1 21/1/1 19/1/1
f 24/1/1 20/1/1 22/1/1
f 25/1/1 23/1/1 19/1/1
f 26/1/1 23/1/1 25/1/1
f 27/1/1 20/1/1 24/1/1
f 28/1/1 20/1/1 27/1/1
f 31/1/1 30/1/1 29/1/1
f 32/1/1 30/1/1 31/1/1
f 35/1/1 34/1/1 33/1/1
f 36/1/1 34/1/1 35/1/1
f 39/2/1 38/2/1 37/2/1
f 40/2/1 38/2/1 39/2/1
f 45/4/1 42/4/1 41/4/1
f 46/4/1 42/4/1 45/4/1
f 47/4/1 44/4/1 43/4/1
f 48/4/1 44/4/1 47/4/1
f 49/4/2 50/4/2 53/4/2
f 53/4/2 50/4/2 54/4/2
f 51/4/2 52/4/2 55/4/2
f 55/4/2 52/4/2 56/4/2
f 57/4/2 58/4/2 61/4/2
f 61/4/2 58/4/2 62/4/2
f 59/4/2 60/4/2 63/4/2
f 63/4/2 60/4/2 64/4/2
f 65/4/2 66/4/2 69/4/2
f 69/4/2 66/4/2 70/4/2
f 67/4/2 68/4/2 71/4/2
f 71/4/2 68/4/2 72/4/2
f 73/2/2 74/2/2 75/2/2
f 75/2/2 74/2/2 76/2/2
f 77/4/2 78/4/2 81/4/2
f 81/4/2 78/4/2 82/4/2
f 79/4/2 80/4/2 83/4/2
f 83/4/2 80/4/2 84/4/2
f 85/1/2 86/1/2 87/1/2
f 87/1/2 86/1/2 88/1/2
f 91/4/3 90/4/3 89/4/3
f 92/4/3 90/4/3 91/4/3
f 93/4/3 90/4/3 92/4/3
f 94/4/3 90/4/3 93/4/3
f 96/4/3 90/4/3 94/4/3
f 97/4/3 90/4/3 96/4/3
f 98/4/3 96/4/3 95/4/3
f 99/4/3 96/4/3 98/4/3
f 105/1/3 101/1/3 100/1/3
f 105/1/3 102/1/3 101/1/3
f 107/1/3 105/1/3 100/1/3
f 107/1/3 106/1/3 105/1/3
f 108/1/3 106/1/3 107/1/3
f 109/1/3 104/1/3 103/1/3
f 110/1/3 107/1/3 100/1/3
f 111/1/3 109/1/3 108/1/3
f 112/1/3 110/1/3 100/1/3
f 112/1/3 111/1/3 110/1/3
f 113/1/3 109/1/3 111/1/3
f 113/1/3 111/1/3 112/1/3
f 113/1/3 104/1/3 109/1/3
f 117/3/3 115/3/3 114/3/3
f 118/3/3 115/3/3 117/3/3
f 119/3/3 115/3/3 118/3/3
f 120/2/3 117/2/3 116/2/3
f 121/3/3 118/3/3 117/3/3
f 121/2/3 117/2/3 120/2/3
f 122/3/3 118/3/3 121/3/3
f 125/2/3 124/2/3 123/2/3
f 126/2/3 124/2/3 125/2/3
f 129/4/3 128/4/3 127/4/3
f 130/4/3 128/4/3 129/4/3
f 131/4/4 132/4/4 133/4/4
f 133/4/4 132/4/4 134/4/4
f 135/3/4 136/3/4 138/3/4
f 138/3/4 136/3/4 139/3/4
f 139/3/4 136/3/4 140/3/4
f 137/2/4 138/2/4 141/2/4
f 138/3/4 139/3/4 142/3/4
f 141/2/4 138/2/4 142/2/4
f 142/3/4 139/3/4 143/3/4
f 144/2/4 145/2/4 146/2/4
f 146/2/4 145/2/4 147/2/4
f 148/1/4 149/1/4 153/1/4
f 149/1/4 150/1/4 153/1/4
f 148/1/4 153/1/4 155/1/4
f 153/1/4 154/1/4 155/1/4
f 155/1/4 154/1/4 156/1/4
f 151/1/4 152/1/4 157/1/4
f 148/1/4 155/1/4 158/1/4
f 156/1/4 157/1/4 159/1/4
f 148/1/4 158/1/4 160/1/4
f 158/1/4 159/1/4 160/1/4
f 159/1/4 157/1/4 161/1/4
f 160/1/4 159/1/4 161/1/4
f 157/1/4 152/1/4 161/1/4
f 162/4/4 163/4/4 164/4/4
f 164/4/4 163/4/4 165/4/4
f 165/4/4 163/4/4 166/4/4
f 166/4/4 163/4/4 167/4/4
f 167/4/4 163/4/4 169/4/4
f 169/4/4 163/4/4 170/4/4
f 168/4/4 169/4/4 171/4/4
f 171/4/4 169/4/4 172/4/4
f 175/1/5 174/1/5 173/1/5
f 176/1/5 174/1/5 175/1/5
f 179/2/5 178/2/5 177/2/5
f 180/2/5 178/2/5 179/2/5
f 183/3/5 182/3/5 181/3/5
f 184/3/5 182/3/5 183/3/5
f 187/4/5 186/4/5 185/4/5
f 188/4/5 187/4/5 185/4/5
f 189/4/5 187/4/5 188/4/5
f 192/4/5 191/4/5 190/4/5
f 193/4/5 192/4/5 190/4/5
f 194/4/5 192/4/5 193/4/5
f 199/4/5 196/4/5 195/4/5
f 200/4/5 196/4/5 199/4/5
f 201/4/5 198/4/5 197/4/5
f 202/4/5 198/4/5 201/4/5
f 207/4/5 204/4/5 203/4/5
f 208/4/5 204/4/5 207/4/5
f 209/4/5 206/4/5 205/4/5
f 210/4/5 206/4/5 209/4/5
f 213/4/5 212/4/5 211/4/5
f 214/4/5 212/4/5 213/4/5
f 217/4/5 216/4/5 215/4/5
f 218/4/5 216/4/5 217/4/5
f 221/4/5 220/4/5 219/4/5
f 222/4/5 220/4/5 221/4/5
f 223/3/6 224/3/6 226/3/6
f 224/3/6 225/3/6 226/3/6
f 226/3/6 225/3/6 227/3/6
f 227/3/6 225/3/6 228/3/6
f 229/4/6 230/4/6 231/4/6
f 231/4/6 230/4/6 232/4/6
f 233/4/6 234/4/6 235/4/6
f 235/4/6 234/4/6 236/4/6
f 237/4/6 238/4/6 239/4/6
f 239/4/6 238/4/6 240/4/6
f 237/4/6 239/4/6 241/4/6
f 237/4/6 241/4/6 243/4/6
f 241/4/6 242/4/6 243/4/6
f 243/4/6 242/4/6 244/4/6
f 245/1/6 246/1/6 247/1/6
f 247/1/6 246/1/6 248/1/6
f 245/1/6 247/1/6 249/1/6
f 248/1/6 246/1/6 250/1/6
f 245/1/6 249/1/6 251/1/6
f 249/1/6 250/1/6 251/1/6
f 250/1/6 246/1/6 252/1/6
f 251/1/6 250/1/6 252/1/6
f 253/2/6 254/2/6 255/2/6
f 255/2/6 254/2/6 256/2/6
