# MagicaVoxel @ Ephtracy

# group
o 

# material
mtllib Pes-0.mtl
usemtl palette

# normals
vn -1 0 0
vn 1 0 0
vn 0 0 1
vn 0 0 -1
vn 0 -1 0
vn 0 1 0

# texcoords
vt 0.349609 0.5
vt 0.353516 0.5

# verts
v -0.15 -0.25 0.15
v -0.15 -0.25 0.05
v -0.15 -0.25 -0.05
v -0.15 -0.25 -0.15
v -0.15 -0.15 0.15
v -0.15 -0.15 0.05
v -0.15 -0.15 -0.05
v -0.15 -0.15 -0.15
v -0.15 -0.05 0.05
v -0.15 -0.05 -0.05
v -0.15 0.25 0.15
v -0.15 0.25 -0.15
v 0.35 -0.25 0.15
v 0.35 -0.25 0.05
v 0.35 -0.25 -0.05
v 0.35 -0.25 -0.15
v 0.35 -0.15 0.15
v 0.35 -0.15 0.05
v 0.35 -0.15 -0.05
v 0.35 -0.15 -0.15
v 0.35 -0.05 0.15
v 0.35 -0.05 0.05
v 0.35 -0.05 -0.05
v 0.35 -0.05 -0.15
v 0.55 -0.15 0.15
v 0.55 -0.15 -0.15
v 0.55 0.05 0.15
v 0.55 0.05 -0.15
v -0.05 -0.25 0.15
v -0.05 -0.25 0.05
v -0.05 -0.25 -0.05
v -0.05 -0.25 -0.15
v -0.05 -0.15 0.15
v -0.05 -0.15 0.05
v -0.05 -0.15 -0.05
v -0.05 -0.15 -0.15
v -0.05 -0.05 0.15
v -0.05 -0.05 0.05
v -0.05 -0.05 -0.05
v -0.05 -0.05 -0.15
v 0.45 -0.25 0.15
v 0.45 -0.25 0.05
v 0.45 -0.25 -0.05
v 0.45 -0.25 -0.15
v 0.45 -0.15 0.15
v 0.45 -0.15 0.05
v 0.45 -0.15 -0.05
v 0.45 -0.15 -0.15
v 0.45 -0.05 0.05
v 0.45 -0.05 -0.05
v 0.45 0.05 0.15
v 0.45 0.05 -0.15
v 0.45 0.15 0.15
v 0.45 0.15 -0.15
v 0.45 0.25 0.15
v 0.45 0.25 -0.15
v 0.55 0.05 0.15
v 0.55 0.05 -0.15
v 0.55 0.15 0.15
v 0.55 0.15 -0.15
v 0.65 -0.15 0.15
v 0.65 -0.15 -0.15
v 0.65 0.05 0.15
v 0.65 0.05 -0.15
v -0.15 -0.25 0.15
v -0.15 -0.15 0.15
v -0.15 0.25 0.15
v -0.05 -0.25 0.15
v -0.05 -0.15 0.15
v -0.05 -0.05 0.15
v 0.35 -0.25 0.15
v 0.35 -0.15 0.15
v 0.35 -0.05 0.15
v 0.45 -0.25 0.15
v 0.45 -0.15 0.15
v 0.45 0.05 0.15
v 0.45 0.15 0.15
v 0.45 0.25 0.15
v 0.55 -0.15 0.15
v 0.55 0.05 0.15
v 0.55 0.15 0.15
v 0.65 -0.15 0.15
v 0.65 0.05 0.15
v -0.15 -0.25 -0.05
v -0.15 -0.15 -0.05
v -0.15 -0.05 -0.05
v -0.05 -0.25 -0.05
v -0.05 -0.15 -0.05
v -0.05 -0.05 -0.05
v 0.35 -0.25 -0.05
v 0.35 -0.15 -0.05
v 0.35 -0.05 -0.05
v 0.45 -0.25 -0.05
v 0.45 -0.15 -0.05
v 0.45 -0.05 -0.05
v -0.15 -0.25 0.05
v -0.15 -0.15 0.05
v -0.15 -0.05 0.05
v -0.05 -0.25 0.05
v -0.05 -0.15 0.05
v -0.05 -0.05 0.05
v 0.35 -0.25 0.05
v 0.35 -0.15 0.05
v 0.35 -0.05 0.05
v 0.45 -0.25 0.05
v 0.45 -0.15 0.05
v 0.45 -0.05 0.05
v -0.15 -0.25 -0.15
v -0.15 -0.15 -0.15
v -0.15 0.25 -0.15
v -0.05 -0.25 -0.15
v -0.05 -0.15 -0.15
v -0.05 -0.05 -0.15
v 0.35 -0.25 -0.15
v 0.35 -0.15 -0.15
v 0.35 -0.05 -0.15
v 0.45 -0.25 -0.15
v 0.45 -0.15 -0.15
v 0.45 0.05 -0.15
v 0.45 0.15 -0.15
v 0.45 0.25 -0.15
v 0.55 -0.15 -0.15
v 0.55 0.05 -0.15
v 0.55 0.15 -0.15
v 0.65 -0.15 -0.15
v 0.65 0.05 -0.15
v -0.15 -0.25 0.15
v -0.05 -0.25 0.15
v 0.35 -0.25 0.15
v 0.45 -0.25 0.15
v -0.15 -0.25 0.05
v -0.05 -0.25 0.05
v 0.35 -0.25 0.05
v 0.45 -0.25 0.05
v -0.15 -0.25 -0.05
v -0.05 -0.25 -0.05
v 0.35 -0.25 -0.05
v 0.45 -0.25 -0.05
v -0.15 -0.25 -0.15
v -0.05 -0.25 -0.15
v 0.35 -0.25 -0.15
v 0.45 -0.25 -0.15
v 0.55 -0.15 0.15
v 0.65 -0.15 0.15
v 0.55 -0.15 -0.15
v 0.65 -0.15 -0.15
v -0.05 -0.05 0.15
v 0.35 -0.05 0.15
v -0.15 -0.05 0.05
v -0.05 -0.05 0.05
v 0.35 -0.05 0.05
v 0.45 -0.05 0.05
v -0.15 -0.05 -0.05
v -0.05 -0.05 -0.05
v 0.35 -0.05 -0.05
v 0.45 -0.05 -0.05
v -0.05 -0.05 -0.15
v 0.35 -0.05 -0.15
v 0.45 0.05 0.15
v 0.55 0.05 0.15
v 0.45 0.05 -0.15
v 0.55 0.05 -0.15
v 0.55 0.05 0.15
v 0.65 0.05 0.15
v 0.55 0.05 -0.15
v 0.65 0.05 -0.15
v 0.45 0.15 0.15
v 0.55 0.15 0.15
v 0.45 0.15 -0.15
v 0.55 0.15 -0.15
v -0.15 0.25 0.15
v 0.45 0.25 0.15
v -0.15 0.25 -0.15
v 0.45 0.25 -0.15

# faces
f 5/1/1 2/1/1 1/1/1
f 6/1/1 2/1/1 5/1/1
f 7/1/1 4/1/1 3/1/1
f 8/1/1 4/1/1 7/1/1
f 9/2/1 6/2/1 5/2/1
f 10/2/1 8/2/1 7/2/1
f 11/2/1 9/2/1 5/2/1
f 11/2/1 10/2/1 9/2/1
f 12/2/1 8/2/1 10/2/1
f 12/2/1 10/2/1 11/2/1
f 17/1/1 14/1/1 13/1/1
f 18/1/1 14/1/1 17/1/1
f 19/1/1 16/1/1 15/1/1
f 20/1/1 16/1/1 19/1/1
f 21/2/1 18/2/1 17/2/1
f 22/2/1 18/2/1 21/2/1
f 23/2/1 20/2/1 19/2/1
f 24/2/1 20/2/1 23/2/1
f 27/1/1 26/1/1 25/1/1
f 28/1/1 26/1/1 27/1/1
f 29/1/2 30/1/2 33/1/2
f 33/1/2 30/1/2 34/1/2
f 31/1/2 32/1/2 35/1/2
f 35/1/2 32/1/2 36/1/2
f 33/2/2 34/2/2 37/2/2
f 37/2/2 34/2/2 38/2/2
f 35/2/2 36/2/2 39/2/2
f 39/2/2 36/2/2 40/2/2
f 41/1/2 42/1/2 45/1/2
f 45/1/2 42/1/2 46/1/2
f 43/1/2 44/1/2 47/1/2
f 47/1/2 44/1/2 48/1/2
f 45/2/2 46/2/2 49/2/2
f 47/2/2 48/2/2 50/2/2
f 45/2/2 49/2/2 51/2/2
f 49/2/2 50/2/2 51/2/2
f 50/2/2 48/2/2 52/2/2
f 51/2/2 50/2/2 52/2/2
f 53/2/2 54/2/2 55/2/2
f 55/2/2 54/2/2 56/2/2
f 57/1/2 58/1/2 59/1/2
f 59/1/2 58/1/2 60/1/2
f 61/1/2 62/1/2 63/1/2
f 63/1/2 62/1/2 64/1/2
f 68/1/3 66/1/3 65/1/3
f 69/2/3 67/2/3 66/2/3
f 69/1/3 66/1/3 68/1/3
f 70/2/3 67/2/3 69/2/3
f 73/2/3 67/2/3 70/2/3
f 74/1/3 72/1/3 71/1/3
f 75/2/3 73/2/3 72/2/3
f 75/1/3 72/1/3 74/1/3
f 76/2/3 67/2/3 73/2/3
f 76/2/3 73/2/3 75/2/3
f 77/2/3 67/2/3 76/2/3
f 78/2/3 67/2/3 77/2/3
f 80/1/3 77/1/3 76/1/3
f 81/1/3 77/1/3 80/1/3
f 82/1/3 80/1/3 79/1/3
f 83/1/3 80/1/3 82/1/3
f 87/1/3 85/1/3 84/1/3
f 88/2/3 86/2/3 85/2/3
f 88/1/3 85/1/3 87/1/3
f 89/2/3 86/2/3 88/2/3
f 93/1/3 91/1/3 90/1/3
f 94/2/3 92/2/3 91/2/3
f 94/1/3 91/1/3 93/1/3
f 95/2/3 92/2/3 94/2/3
f 96/1/4 97/1/4 99/1/4
f 97/2/4 98/2/4 100/2/4
f 99/1/4 97/1/4 100/1/4
f 100/2/4 98/2/4 101/2/4
f 102/1/4 103/1/4 105/1/4
f 103/2/4 104/2/4 106/2/4
f 105/1/4 103/1/4 106/1/4
f 106/2/4 104/2/4 107/2/4
f 108/1/4 109/1/4 111/1/4
f 109/2/4 110/2/4 112/2/4
f 111/1/4 109/1/4 112/1/4
f 112/2/4 110/2/4 113/2/4
f 113/2/4 110/2/4 116/2/4
f 114/1/4 115/1/4 117/1/4
f 115/2/4 116/2/4 118/2/4
f 117/1/4 115/1/4 118/1/4
f 116/2/4 110/2/4 119/2/4
f 118/2/4 116/2/4 119/2/4
f 119/2/4 110/2/4 120/2/4
f 120/2/4 110/2/4 121/2/4
f 119/1/4 120/1/4 123/1/4
f 123/1/4 120/1/4 124/1/4
f 122/1/4 123/1/4 125/1/4
f 125/1/4 123/1/4 126/1/4
f 131/1/5 128/1/5 127/1/5
f 132/1/5 128/1/5 131/1/5
f 133/1/5 130/1/5 129/1/5
f 134/1/5 130/1/5 133/1/5
f 139/1/5 136/1/5 135/1/5
f 140/1/5 136/1/5 139/1/5
f 141/1/5 138/1/5 137/1/5
f 142/1/5 138/1/5 141/1/5
f 145/1/5 144/1/5 143/1/5
f 146/1/5 144/1/5 145/1/5
f 150/2/5 148/2/5 147/2/5
f 151/2/5 148/2/5 150/2/5
f 153/2/5 150/2/5 149/2/5
f 153/2/5 152/2/5 151/2/5
f 153/2/5 151/2/5 150/2/5
f 154/2/5 152/2/5 153/2/5
f 155/2/5 152/2/5 154/2/5
f 156/2/5 152/2/5 155/2/5
f 157/2/5 155/2/5 154/2/5
f 158/2/5 155/2/5 157/2/5
f 161/1/5 160/1/5 159/1/5
f 162/1/5 160/1/5 161/1/5
f 163/1/6 164/1/6 165/1/6
f 165/1/6 164/1/6 166/1/6
f 167/1/6 168/1/6 169/1/6
f 169/1/6 168/1/6 170/1/6
f 171/2/6 172/2/6 173/2/6
f 173/2/6 172/2/6 174/2/6
