# MagicaVoxel @ Ephtracy

# group
o 

# material
mtllib Pes-4.mtl
usemtl palette

# normals
vn -1 0 0
vn 1 0 0
vn 0 0 1
vn 0 0 -1
vn 0 -1 0
vn 0 1 0

# texcoords
vt 0.345703 0.5
vt 0.365234 0.5
vt 0.568359 0.5
vt 0.740234 0.5

# verts
v -0.45 -0.3 0.15
v -0.45 -0.3 0.05
v -0.45 -0.3 -0.05
v -0.45 -0.3 -0.15
v -0.45 -0.2 0.15
v -0.45 -0.2 0.05
v -0.45 -0.2 -0.05
v -0.45 -0.2 -0.15
v -0.15 -0.2 0.15
v -0.15 -0.2 0.05
v -0.15 -0.2 -0.05
v -0.15 -0.2 -0.15
v -0.15 -0.1 0.15
v -0.15 -0.1 0.05
v -0.15 -0.1 -0.05
v -0.15 -0.1 -0.15
v -0.15 0 0.15
v -0.15 0 0.05
v -0.15 0 -0.05
v -0.15 0 -0.15
v -0.15 0.1 0.05
v -0.15 0.1 -0.05
v -0.15 0.1 -0.15
v -0.15 0.2 -0.05
v -0.15 0.2 -0.15
v -0.15 0.3 0.15
v -0.15 0.3 -0.05
v -0.15 0.3 -0.15
v 0.05 -0.3 0.15
v 0.05 -0.3 0.05
v 0.05 -0.3 -0.05
v 0.05 -0.3 -0.15
v 0.05 -0.2 0.15
v 0.05 -0.2 0.05
v 0.05 -0.2 -0.05
v 0.05 -0.2 -0.15
v 0.05 0 0.15
v 0.05 0 0.05
v 0.05 0.1 0.15
v 0.05 0.1 0.05
v 0.05 0.1 -0.05
v 0.05 0.2 0.15
v 0.05 0.2 0.05
v 0.05 0.3 0.15
v 0.05 0.3 0.05
v 0.05 0.3 -0.15
v -0.45 -0.3 0.15
v -0.45 -0.2 0.15
v -0.15 -0.2 0.15
v -0.15 -0.1 0.15
v -0.15 0 0.15
v -0.15 0.3 0.15
v -0.05 -0.1 0.15
v -0.05 0 0.15
v -0.05 0.1 0.15
v -0.05 0.2 0.15
v -0.05 0.3 0.15
v 0.05 -0.3 0.15
v 0.05 -0.2 0.15
v 0.05 0 0.15
v 0.05 0.1 0.15
v 0.05 0.2 0.15
v 0.05 0.3 0.15
v -0.45 -0.3 -0.05
v -0.45 -0.2 -0.05
v -0.15 -0.2 -0.05
v -0.15 -0.1 -0.05
v -0.15 0 -0.05
v -0.15 0.1 -0.05
v -0.05 -0.2 -0.05
v -0.05 -0.1 -0.05
v -0.05 0 -0.05
v -0.05 0.1 -0.05
v 0.05 -0.3 -0.05
v 0.05 -0.2 -0.05
v 0.05 0.1 -0.05
v -0.45 -0.3 0.05
v -0.45 -0.2 0.05
v -0.15 -0.2 0.05
v -0.15 -0.1 0.05
v -0.15 0 0.05
v -0.15 0.1 0.05
v -0.05 -0.1 0.05
v -0.05 0 0.05
v -0.05 0.1 0.05
v 0.05 -0.3 0.05
v 0.05 -0.2 0.05
v 0.05 0 0.05
v 0.05 0.1 0.05
v -0.45 -0.3 -0.15
v -0.45 -0.2 -0.15
v -0.15 -0.2 -0.15
v -0.15 -0.1 -0.15
v -0.15 0 -0.15
v -0.15 0.1 -0.15
v -0.15 0.2 -0.15
v -0.15 0.3 -0.15
v -0.05 -0.2 -0.15
v -0.05 -0.1 -0.15
v -0.05 0 -0.15
v -0.05 0.1 -0.15
v -0.05 0.2 -0.15
v -0.05 0.3 -0.15
v 0.05 -0.3 -0.15
v 0.05 -0.2 -0.15
v 0.05 0.3 -0.15
v -0.45 -0.3 0.15
v 0.05 -0.3 0.15
v -0.45 -0.3 0.05
v 0.05 -0.3 0.05
v -0.45 -0.3 -0.05
v 0.05 -0.3 -0.05
v -0.45 -0.3 -0.15
v 0.05 -0.3 -0.15
v -0.15 0.1 0.05
v -0.05 0.1 0.05
v 0.05 0.1 0.05
v -0.15 0.1 -0.05
v -0.05 0.1 -0.05
v 0.05 0.1 -0.05
v -0.45 -0.2 0.15
v -0.15 -0.2 0.15
v -0.45 -0.2 0.05
v -0.15 -0.2 0.05
v -0.45 -0.2 -0.05
v -0.15 -0.2 -0.05
v -0.45 -0.2 -0.15
v -0.15 -0.2 -0.15
v -0.15 0.3 0.15
v -0.05 0.3 0.15
v 0.05 0.3 0.15
v -0.05 0.3 0.05
v 0.05 0.3 0.05
v -0.15 0.3 -0.05
v -0.05 0.3 -0.05
v -0.15 0.3 -0.15
v -0.05 0.3 -0.15
v 0.05 0.3 -0.15

# faces
f 5/1/1 2/1/1 1/1/1
f 6/1/1 2/1/1 5/1/1
f 7/1/1 4/1/1 3/1/1
f 8/1/1 4/1/1 7/1/1
f 13/3/1 10/3/1 9/3/1
f 14/3/1 10/3/1 13/3/1
f 15/4/1 12/4/1 11/4/1
f 16/4/1 12/4/1 15/4/1
f 17/2/1 14/2/1 13/2/1
f 18/2/1 14/2/1 17/2/1
f 19/3/1 16/3/1 15/3/1
f 20/3/1 16/3/1 19/3/1
f 21/3/1 18/3/1 17/3/1
f 22/2/1 20/2/1 19/2/1
f 23/2/1 20/2/1 22/2/1
f 24/3/1 22/3/1 21/3/1
f 24/3/1 23/3/1 22/3/1
f 25/3/1 23/3/1 24/3/1
f 26/3/1 21/3/1 17/3/1
f 26/3/1 24/3/1 21/3/1
f 27/4/1 25/4/1 24/4/1
f 27/3/1 24/3/1 26/3/1
f 28/4/1 25/4/1 27/4/1
f 29/1/2 30/1/2 33/1/2
f 33/1/2 30/1/2 34/1/2
f 31/1/2 32/1/2 35/1/2
f 35/1/2 32/1/2 36/1/2
f 33/3/2 34/3/2 37/3/2
f 37/3/2 34/3/2 38/3/2
f 37/4/2 38/4/2 39/4/2
f 39/4/2 38/4/2 40/4/2
f 35/3/2 36/3/2 41/3/2
f 39/3/2 40/3/2 42/3/2
f 40/3/2 41/3/2 42/3/2
f 42/3/2 41/3/2 43/3/2
f 42/2/2 43/2/2 44/2/2
f 43/3/2 41/3/2 45/3/2
f 44/2/2 43/2/2 45/2/2
f 41/3/2 36/3/2 46/3/2
f 45/3/2 41/3/2 46/3/2
f 49/1/3 48/1/3 47/1/3
f 53/3/3 50/3/3 49/3/3
f 53/2/3 51/2/3 50/2/3
f 54/3/3 52/3/3 51/3/3
f 54/2/3 51/2/3 53/2/3
f 55/3/3 52/3/3 54/3/3
f 56/3/3 52/3/3 55/3/3
f 57/3/3 52/3/3 56/3/3
f 58/1/3 49/1/3 47/1/3
f 59/3/3 53/3/3 49/3/3
f 59/1/3 49/1/3 58/1/3
f 59/3/3 54/3/3 53/3/3
f 60/4/3 55/4/3 54/4/3
f 60/3/3 54/3/3 59/3/3
f 61/3/3 56/3/3 55/3/3
f 61/4/3 55/4/3 60/4/3
f 62/2/3 57/2/3 56/2/3
f 62/3/3 56/3/3 61/3/3
f 63/2/3 57/2/3 62/2/3
f 66/1/3 65/1/3 64/1/3
f 70/1/3 66/1/3 64/1/3
f 70/4/3 67/4/3 66/4/3
f 71/3/3 68/3/3 67/3/3
f 71/4/3 67/4/3 70/4/3
f 72/2/3 69/2/3 68/2/3
f 72/3/3 68/3/3 71/3/3
f 73/2/3 69/2/3 72/2/3
f 74/1/3 70/1/3 64/1/3
f 75/3/3 71/3/3 70/3/3
f 75/1/3 70/1/3 74/1/3
f 75/3/3 72/3/3 71/3/3
f 75/3/3 73/3/3 72/3/3
f 76/3/3 73/3/3 75/3/3
f 77/1/4 78/1/4 79/1/4
f 79/3/4 80/3/4 83/3/4
f 80/2/4 81/2/4 83/2/4
f 81/3/4 82/3/4 84/3/4
f 83/2/4 81/2/4 84/2/4
f 84/3/4 82/3/4 85/3/4
f 77/1/4 79/1/4 86/1/4
f 79/3/4 83/3/4 87/3/4
f 86/1/4 79/1/4 87/1/4
f 83/3/4 84/3/4 87/3/4
f 84/4/4 85/4/4 88/4/4
f 87/3/4 84/3/4 88/3/4
f 88/4/4 85/4/4 89/4/4
f 90/1/4 91/1/4 92/1/4
f 90/1/4 92/1/4 98/1/4
f 92/4/4 93/4/4 98/4/4
f 93/3/4 94/3/4 99/3/4
f 98/4/4 93/4/4 99/4/4
f 94/2/4 95/2/4 100/2/4
f 99/3/4 94/3/4 100/3/4
f 95/3/4 96/3/4 101/3/4
f 100/2/4 95/2/4 101/2/4
f 96/4/4 97/4/4 102/4/4
f 101/3/4 96/3/4 102/3/4
f 102/4/4 97/4/4 103/4/4
f 90/1/4 98/1/4 104/1/4
f 100/3/4 101/3/4 105/3/4
f 104/1/4 98/1/4 105/1/4
f 99/3/4 100/3/4 105/3/4
f 102/3/4 103/3/4 105/3/4
f 101/3/4 102/3/4 105/3/4
f 98/3/4 99/3/4 105/3/4
f 105/3/4 103/3/4 106/3/4
f 109/1/5 108/1/5 107/1/5
f 110/1/5 108/1/5 109/1/5
f 113/1/5 112/1/5 111/1/5
f 114/1/5 112/1/5 113/1/5
f 118/3/5 116/3/5 115/3/5
f 118/3/5 117/3/5 116/3/5
f 119/3/5 117/3/5 118/3/5
f 120/3/5 117/3/5 119/3/5
f 121/1/6 122/1/6 123/1/6
f 123/1/6 122/1/6 124/1/6
f 125/1/6 126/1/6 127/1/6
f 127/1/6 126/1/6 128/1/6
f 129/3/6 130/3/6 132/3/6
f 130/2/6 131/2/6 132/2/6
f 132/2/6 131/2/6 133/2/6
f 129/3/6 132/3/6 134/3/6
f 132/3/6 133/3/6 134/3/6
f 134/3/6 133/3/6 135/3/6
f 134/4/6 135/4/6 136/4/6
f 135/3/6 133/3/6 137/3/6
f 136/4/6 135/4/6 137/4/6
f 137/3/6 133/3/6 138/3/6
