# MagicaVoxel @ Ephtracy

# group
o 

# material
mtllib Teste_Tiles-1.mtl
usemtl palette

# normals
vn -1 0 0
vn 1 0 0
vn 0 0 1
vn 0 0 -1
vn 0 -1 0
vn 0 1 0

# texcoords
vt 0.783203 0.5
vt 0.939453 0.5

# verts
v -0.55 -0.1 0.55
v -0.55 -0.1 -0.55
v -0.55 0 0.55
v -0.55 0 0.05
v -0.55 0 -0.05
v -0.55 0 -0.55
v -0.55 0.1 0.55
v -0.55 0.1 0.05
v -0.55 0.1 -0.05
v -0.55 0.1 -0.55
v -0.15 0 0.05
v -0.15 0 -0.05
v -0.15 0.1 0.05
v -0.15 0.1 -0.05
v -0.05 0 -0.05
v -0.05 0 -0.35
v -0.05 0.1 -0.05
v -0.05 0.1 -0.35
v 0.05 0 0.55
v 0.05 0 0.45
v 0.05 0.1 0.55
v 0.05 0.1 0.45
v 0.15 0 0.15
v 0.15 0 -0.05
v 0.15 0.1 0.15
v 0.15 0.1 -0.05
v 0.25 0 -0.05
v 0.25 0 -0.15
v 0.25 0 -0.25
v 0.25 0 -0.45
v 0.25 0.1 -0.05
v 0.25 0.1 -0.15
v 0.25 0.1 -0.25
v 0.25 0.1 -0.45
v 0.35 0 0.45
v 0.35 0 0.15
v 0.35 0.1 0.45
v 0.35 0.1 0.15
v 0.45 0 -0.05
v 0.45 0 -0.25
v 0.45 0.1 -0.05
v 0.45 0.1 -0.25
v -0.25 0 -0.05
v -0.25 0 -0.15
v -0.25 0.1 -0.05
v -0.25 0.1 -0.15
v -0.15 0 -0.15
v -0.15 0 -0.45
v -0.15 0.1 -0.15
v -0.15 0.1 -0.45
v -0.05 0 0.55
v -0.05 0 0.35
v -0.05 0.1 0.55
v -0.05 0.1 0.35
v 0.05 0 0.25
v 0.05 0 -0.15
v 0.05 0.1 0.25
v 0.05 0.1 -0.15
v 0.15 0 -0.15
v 0.15 0 -0.35
v 0.15 0.1 -0.15
v 0.15 0.1 -0.35
v 0.25 0 0.35
v 0.25 0 0.25
v 0.25 0.1 0.35
v 0.25 0.1 0.25
v 0.35 0 0.05
v 0.35 0 -0.15
v 0.35 0.1 0.05
v 0.35 0.1 -0.15
v 0.55 -0.1 0.55
v 0.55 -0.1 -0.55
v 0.55 0 0.55
v 0.55 0 0.05
v 0.55 0 -0.05
v 0.55 0 -0.55
v 0.55 0.1 0.55
v 0.55 0.1 0.05
v 0.55 0.1 -0.05
v 0.55 0.1 -0.55
v -0.55 -0.1 0.55
v -0.55 0 0.55
v -0.55 0.1 0.55
v -0.05 0 0.55
v -0.05 0.1 0.55
v 0.05 0 0.55
v 0.05 0.1 0.55
v 0.55 -0.1 0.55
v 0.55 0 0.55
v 0.55 0.1 0.55
v -0.05 0 0.35
v -0.05 0.1 0.35
v 0.25 0 0.35
v 0.25 0.1 0.35
v 0.15 0 0.15
v 0.15 0.1 0.15
v 0.35 0 0.15
v 0.35 0.1 0.15
v -0.55 0 -0.05
v -0.55 0.1 -0.05
v -0.25 0 -0.05
v -0.25 0.1 -0.05
v 0.45 0 -0.05
v 0.45 0.1 -0.05
v 0.55 0 -0.05
v 0.55 0.1 -0.05
v -0.25 0 -0.15
v -0.25 0.1 -0.15
v -0.15 0 -0.15
v -0.15 0.1 -0.15
v 0.05 0 -0.15
v 0.05 0.1 -0.15
v 0.15 0 -0.15
v 0.15 0.1 -0.15
v 0.25 0 -0.25
v 0.25 0.1 -0.25
v 0.45 0 -0.25
v 0.45 0.1 -0.25
v -0.15 0 -0.45
v -0.15 0.1 -0.45
v 0.25 0 -0.45
v 0.25 0.1 -0.45
v 0.05 0 0.45
v 0.05 0.1 0.45
v 0.35 0 0.45
v 0.35 0.1 0.45
v 0.05 0 0.25
v 0.05 0.1 0.25
v 0.25 0 0.25
v 0.25 0.1 0.25
v -0.55 0 0.05
v -0.55 0.1 0.05
v -0.15 0 0.05
v -0.15 0.1 0.05
v 0.35 0 0.05
v 0.35 0.1 0.05
v 0.55 0 0.05
v 0.55 0.1 0.05
v -0.15 0 -0.05
v -0.15 0.1 -0.05
v -0.05 0 -0.05
v -0.05 0.1 -0.05
v 0.15 0 -0.05
v 0.15 0.1 -0.05
v 0.25 0 -0.05
v 0.25 0.1 -0.05
v 0.25 0 -0.15
v 0.25 0.1 -0.15
v 0.35 0 -0.15
v 0.35 0.1 -0.15
v -0.05 0 -0.35
v -0.05 0.1 -0.35
v 0.15 0 -0.35
v 0.15 0.1 -0.35
v -0.55 -0.1 -0.55
v -0.55 0 -0.55
v -0.55 0.1 -0.55
v 0.55 -0.1 -0.55
v 0.55 0 -0.55
v 0.55 0.1 -0.55
v -0.55 -0.1 0.55
v 0.55 -0.1 0.55
v -0.55 -0.1 -0.55
v 0.55 -0.1 -0.55
v -0.05 0 0.55
v 0.05 0 0.55
v 0.05 0 0.45
v 0.35 0 0.45
v -0.05 0 0.35
v 0.25 0 0.35
v 0.05 0 0.25
v 0.25 0 0.25
v 0.15 0 0.15
v 0.35 0 0.15
v -0.55 0 0.05
v -0.15 0 0.05
v 0.35 0 0.05
v 0.55 0 0.05
v -0.55 0 -0.05
v -0.25 0 -0.05
v -0.15 0 -0.05
v -0.05 0 -0.05
v 0.15 0 -0.05
v 0.25 0 -0.05
v 0.45 0 -0.05
v 0.55 0 -0.05
v -0.25 0 -0.15
v -0.15 0 -0.15
v 0.05 0 -0.15
v 0.15 0 -0.15
v 0.25 0 -0.15
v 0.35 0 -0.15
v 0.25 0 -0.25
v 0.45 0 -0.25
v -0.05 0 -0.35
v 0.15 0 -0.35
v -0.15 0 -0.45
v 0.25 0 -0.45
v -0.55 0.1 0.55
v -0.05 0.1 0.55
v 0.05 0.1 0.55
v 0.55 0.1 0.55
v 0.05 0.1 0.45
v 0.35 0.1 0.45
v -0.05 0.1 0.35
v 0.25 0.1 0.35
v 0.05 0.1 0.25
v 0.25 0.1 0.25
v 0.15 0.1 0.15
v 0.35 0.1 0.15
v -0.55 0.1 0.05
v -0.15 0.1 0.05
v 0.35 0.1 0.05
v 0.55 0.1 0.05
v -0.55 0.1 -0.05
v -0.25 0.1 -0.05
v -0.15 0.1 -0.05
v -0.05 0.1 -0.05
v 0.15 0.1 -0.05
v 0.25 0.1 -0.05
v 0.45 0.1 -0.05
v 0.55 0.1 -0.05
v -0.25 0.1 -0.15
v -0.15 0.1 -0.15
v 0.05 0.1 -0.15
v 0.15 0.1 -0.15
v 0.25 0.1 -0.15
v 0.35 0.1 -0.15
v 0.25 0.1 -0.25
v 0.45 0.1 -0.25
v -0.05 0.1 -0.35
v 0.15 0.1 -0.35
v -0.15 0.1 -0.45
v 0.25 0.1 -0.45
v -0.55 0.1 -0.55
v 0.55 0.1 -0.55

# faces
f 3/1/1 2/1/1 1/1/1
f 4/1/1 2/1/1 3/1/1
f 5/1/1 2/1/1 4/1/1
f 6/1/1 2/1/1 5/1/1
f 7/2/1 4/2/1 3/2/1
f 8/2/1 4/2/1 7/2/1
f 9/2/1 6/2/1 5/2/1
f 10/2/1 6/2/1 9/2/1
f 13/2/1 12/2/1 11/2/1
f 14/2/1 12/2/1 13/2/1
f 17/2/1 16/2/1 15/2/1
f 18/2/1 16/2/1 17/2/1
f 21/2/1 20/2/1 19/2/1
f 22/2/1 20/2/1 21/2/1
f 25/2/1 24/2/1 23/2/1
f 26/2/1 24/2/1 25/2/1
f 31/2/1 28/2/1 27/2/1
f 32/2/1 28/2/1 31/2/1
f 33/2/1 30/2/1 29/2/1
f 34/2/1 30/2/1 33/2/1
f 37/2/1 36/2/1 35/2/1
f 38/2/1 36/2/1 37/2/1
f 41/2/1 40/2/1 39/2/1
f 42/2/1 40/2/1 41/2/1
f 43/2/2 44/2/2 45/2/2
f 45/2/2 44/2/2 46/2/2
f 47/2/2 48/2/2 49/2/2
f 49/2/2 48/2/2 50/2/2
f 51/2/2 52/2/2 53/2/2
f 53/2/2 52/2/2 54/2/2
f 55/2/2 56/2/2 57/2/2
f 57/2/2 56/2/2 58/2/2
f 59/2/2 60/2/2 61/2/2
f 61/2/2 60/2/2 62/2/2
f 63/2/2 64/2/2 65/2/2
f 65/2/2 64/2/2 66/2/2
f 67/2/2 68/2/2 69/2/2
f 69/2/2 68/2/2 70/2/2
f 71/1/2 72/1/2 73/1/2
f 73/1/2 72/1/2 74/1/2
f 74/1/2 72/1/2 75/1/2
f 75/1/2 72/1/2 76/1/2
f 73/2/2 74/2/2 77/2/2
f 77/2/2 74/2/2 78/2/2
f 75/2/2 76/2/2 79/2/2
f 79/2/2 76/2/2 80/2/2
f 84/1/3 82/1/3 81/1/3
f 84/2/3 83/2/3 82/2/3
f 85/2/3 83/2/3 84/2/3
f 86/1/3 84/1/3 81/1/3
f 88/1/3 86/1/3 81/1/3
f 89/2/3 87/2/3 86/2/3
f 89/1/3 86/1/3 88/1/3
f 90/2/3 87/2/3 89/2/3
f 93/2/3 92/2/3 91/2/3
f 94/2/3 92/2/3 93/2/3
f 97/2/3 96/2/3 95/2/3
f 98/2/3 96/2/3 97/2/3
f 101/2/3 100/2/3 99/2/3
f 102/2/3 100/2/3 101/2/3
f 105/2/3 104/2/3 103/2/3
f 106/2/3 104/2/3 105/2/3
f 109/2/3 108/2/3 107/2/3
f 110/2/3 108/2/3 109/2/3
f 113/2/3 112/2/3 111/2/3
f 114/2/3 112/2/3 113/2/3
f 117/2/3 116/2/3 115/2/3
f 118/2/3 116/2/3 117/2/3
f 121/2/3 120/2/3 119/2/3
f 122/2/3 120/2/3 121/2/3
f 123/2/4 124/2/4 125/2/4
f 125/2/4 124/2/4 126/2/4
f 127/2/4 128/2/4 129/2/4
f 129/2/4 128/2/4 130/2/4
f 131/2/4 132/2/4 133/2/4
f 133/2/4 132/2/4 134/2/4
f 135/2/4 136/2/4 137/2/4
f 137/2/4 136/2/4 138/2/4
f 139/2/4 140/2/4 141/2/4
f 141/2/4 140/2/4 142/2/4
f 143/2/4 144/2/4 145/2/4
f 145/2/4 144/2/4 146/2/4
f 147/2/4 148/2/4 149/2/4
f 149/2/4 148/2/4 150/2/4
f 151/2/4 152/2/4 153/2/4
f 153/2/4 152/2/4 154/2/4
f 155/1/4 156/1/4 158/1/4
f 156/2/4 157/2/4 159/2/4
f 158/1/4 156/1/4 159/1/4
f 159/2/4 157/2/4 160/2/4
f 163/1/5 162/1/5 161/1/5
f 164/1/5 162/1/5 163/1/5
f 165/1/6 166/1/6 167/1/6
f 165/1/6 167/1/6 169/1/6
f 167/1/6 168/1/6 169/1/6
f 169/1/6 168/1/6 170/1/6
f 170/1/6 168/1/6 172/1/6
f 171/1/6 172/1/6 173/1/6
f 172/1/6 168/1/6 174/1/6
f 173/1/6 172/1/6 174/1/6
f 175/1/6 176/1/6 179/1/6
f 179/1/6 176/1/6 180/1/6
f 180/1/6 176/1/6 181/1/6
f 171/1/6 173/1/6 183/1/6
f 177/1/6 178/1/6 185/1/6
f 185/1/6 178/1/6 186/1/6
f 181/1/6 182/1/6 187/1/6
f 180/1/6 181/1/6 187/1/6
f 187/1/6 182/1/6 188/1/6
f 183/1/6 184/1/6 189/1/6
f 171/1/6 183/1/6 189/1/6
f 189/1/6 184/1/6 190/1/6
f 190/1/6 184/1/6 191/1/6
f 177/1/6 185/1/6 192/1/6
f 190/1/6 191/1/6 193/1/6
f 191/1/6 192/1/6 193/1/6
f 192/1/6 185/1/6 194/1/6
f 193/1/6 192/1/6 194/1/6
f 188/1/6 182/1/6 195/1/6
f 190/1/6 193/1/6 196/1/6
f 188/1/6 195/1/6 197/1/6
f 195/1/6 196/1/6 197/1/6
f 196/1/6 193/1/6 198/1/6
f 197/1/6 196/1/6 198/1/6
f 201/2/6 202/2/6 203/2/6
f 203/2/6 202/2/6 204/2/6
f 199/2/6 200/2/6 205/2/6
f 205/2/6 206/2/6 207/2/6
f 207/2/6 206/2/6 208/2/6
f 204/2/6 202/2/6 210/2/6
f 205/2/6 207/2/6 211/2/6
f 199/2/6 205/2/6 211/2/6
f 211/2/6 207/2/6 212/2/6
f 209/2/6 210/2/6 213/2/6
f 210/2/6 202/2/6 213/2/6
f 213/2/6 202/2/6 214/2/6
f 212/2/6 207/2/6 217/2/6
f 217/2/6 207/2/6 218/2/6
f 209/2/6 213/2/6 219/2/6
f 219/2/6 213/2/6 220/2/6
f 215/2/6 216/2/6 223/2/6
f 218/2/6 207/2/6 225/2/6
f 220/2/6 213/2/6 227/2/6
f 227/2/6 213/2/6 228/2/6
f 221/2/6 222/2/6 230/2/6
f 225/2/6 226/2/6 231/2/6
f 218/2/6 225/2/6 231/2/6
f 231/2/6 226/2/6 232/2/6
f 223/2/6 224/2/6 233/2/6
f 229/2/6 230/2/6 234/2/6
f 223/2/6 233/2/6 235/2/6
f 233/2/6 234/2/6 235/2/6
f 215/2/6 223/2/6 235/2/6
f 234/2/6 230/2/6 236/2/6
f 235/2/6 234/2/6 236/2/6
f 230/2/6 222/2/6 236/2/6
