# MagicaVoxel @ Ephtracy

# group
o 

# material
mtllib Item_Bomba-0.mtl
usemtl palette

# normals
vn -1 0 0
vn 1 0 0
vn 0 0 1
vn 0 0 -1
vn 0 -1 0
vn 0 1 0

# texcoords
vt 0.474609 0.5
vt 0.693359 0.5
vt 0.740234 0.5

# verts
v -0.45 -0.75 0.45
v -0.45 -0.75 -0.45
v -0.45 0.15 0.45
v -0.45 0.15 -0.45
v -0.15 0.15 0.15
v -0.15 0.15 -0.15
v -0.15 0.25 0.15
v -0.15 0.25 -0.15
v -0.05 0.25 0.05
v -0.05 0.25 -0.05
v -0.05 0.55 0.05
v -0.05 0.55 -0.05
v 0.05 0.25 0.05
v 0.05 0.25 -0.05
v 0.05 0.55 0.05
v 0.05 0.55 -0.05
v 0.15 0.15 0.15
v 0.15 0.15 -0.15
v 0.15 0.25 0.15
v 0.15 0.25 -0.15
v 0.45 -0.75 0.45
v 0.45 -0.75 -0.45
v 0.45 0.15 0.45
v 0.45 0.15 -0.45
v -0.45 -0.75 0.45
v -0.45 0.15 0.45
v 0.45 -0.75 0.45
v 0.45 0.15 0.45
v -0.15 0.15 0.15
v -0.15 0.25 0.15
v 0.15 0.15 0.15
v 0.15 0.25 0.15
v -0.05 0.25 0.05
v -0.05 0.55 0.05
v 0.05 0.25 0.05
v 0.05 0.55 0.05
v -0.05 0.25 -0.05
v -0.05 0.55 -0.05
v 0.05 0.25 -0.05
v 0.05 0.55 -0.05
v -0.15 0.15 -0.15
v -0.15 0.25 -0.15
v 0.15 0.15 -0.15
v 0.15 0.25 -0.15
v -0.45 -0.75 -0.45
v -0.45 0.15 -0.45
v 0.45 -0.75 -0.45
v 0.45 0.15 -0.45
v -0.45 -0.75 0.45
v 0.45 -0.75 0.45
v -0.45 -0.75 -0.45
v 0.45 -0.75 -0.45
v -0.45 0.15 0.45
v 0.45 0.15 0.45
v -0.15 0.15 0.15
v 0.15 0.15 0.15
v -0.15 0.15 -0.15
v 0.15 0.15 -0.15
v -0.45 0.15 -0.45
v 0.45 0.15 -0.45
v -0.15 0.25 0.15
v 0.15 0.25 0.15
v -0.05 0.25 0.05
v 0.05 0.25 0.05
v -0.05 0.25 -0.05
v 0.05 0.25 -0.05
v -0.15 0.25 -0.15
v 0.15 0.25 -0.15
v -0.05 0.55 0.05
v 0.05 0.55 0.05
v -0.05 0.55 -0.05
v 0.05 0.55 -0.05

# faces
f 3/2/1 2/2/1 1/2/1
f 4/2/1 2/2/1 3/2/1
f 7/1/1 6/1/1 5/1/1
f 8/1/1 6/1/1 7/1/1
f 11/3/1 10/3/1 9/3/1
f 12/3/1 10/3/1 11/3/1
f 13/3/2 14/3/2 15/3/2
f 15/3/2 14/3/2 16/3/2
f 17/1/2 18/1/2 19/1/2
f 19/1/2 18/1/2 20/1/2
f 21/2/2 22/2/2 23/2/2
f 23/2/2 22/2/2 24/2/2
f 27/2/3 26/2/3 25/2/3
f 28/2/3 26/2/3 27/2/3
f 31/1/3 30/1/3 29/1/3
f 32/1/3 30/1/3 31/1/3
f 35/3/3 34/3/3 33/3/3
f 36/3/3 34/3/3 35/3/3
f 37/3/4 38/3/4 39/3/4
f 39/3/4 38/3/4 40/3/4
f 41/1/4 42/1/4 43/1/4
f 43/1/4 42/1/4 44/1/4
f 45/2/4 46/2/4 47/2/4
f 47/2/4 46/2/4 48/2/4
f 51/2/5 50/2/5 49/2/5
f 52/2/5 50/2/5 51/2/5
f 53/2/6 54/2/6 55/2/6
f 55/2/6 54/2/6 56/2/6
f 53/2/6 55/2/6 57/2/6
f 56/2/6 54/2/6 58/2/6
f 53/2/6 57/2/6 59/2/6
f 57/2/6 58/2/6 59/2/6
f 58/2/6 54/2/6 60/2/6
f 59/2/6 58/2/6 60/2/6
f 61/1/6 62/1/6 63/1/6
f 63/1/6 62/1/6 64/1/6
f 61/1/6 63/1/6 65/1/6
f 64/1/6 62/1/6 66/1/6
f 61/1/6 65/1/6 67/1/6
f 65/1/6 66/1/6 67/1/6
f 66/1/6 62/1/6 68/1/6
f 67/1/6 66/1/6 68/1/6
f 69/3/6 70/3/6 71/3/6
f 71/3/6 70/3/6 72/3/6
