# MagicaVoxel @ Ephtracy

# group
o 

# material
mtllib Item_-2-0.mtl
usemtl palette

# normals
vn -1 0 0
vn 1 0 0
vn 0 0 1
vn 0 0 -1
vn 0 -1 0
vn 0 1 0

# texcoords
vt 0.318359 0.5
vt 0.572266 0.5

# verts
v -0.25 -0.35 0.25
v -0.25 -0.35 -0.25
v -0.25 -0.25 0.25
v -0.25 -0.25 -0.25
v -0.15 -0.45 0.15
v -0.15 -0.45 -0.15
v -0.15 -0.35 0.35
v -0.15 -0.35 0.25
v -0.15 -0.35 0.15
v -0.15 -0.35 -0.15
v -0.15 -0.35 -0.25
v -0.15 -0.35 -0.35
v -0.15 -0.25 0.35
v -0.15 -0.25 0.25
v -0.15 -0.25 0.15
v -0.15 -0.25 -0.15
v -0.15 -0.25 -0.25
v -0.15 -0.25 -0.35
v -0.15 0.05 0.15
v -0.15 0.05 0.05
v -0.15 0.05 -0.05
v -0.15 0.05 -0.15
v -0.15 0.15 0.05
v -0.15 0.15 -0.05
v -0.05 -0.75 0.15
v -0.05 -0.75 -0.15
v -0.05 -0.65 0.25
v -0.05 -0.65 0.15
v -0.05 -0.65 -0.15
v -0.05 -0.65 -0.25
v -0.05 -0.55 0.05
v -0.05 -0.55 -0.05
v -0.05 -0.45 0.15
v -0.05 -0.45 0.05
v -0.05 -0.45 -0.05
v -0.05 -0.45 -0.15
v -0.05 -0.35 0.25
v -0.05 -0.35 0.15
v -0.05 -0.35 -0.15
v -0.05 -0.35 -0.25
v -0.05 -0.25 0.25
v -0.05 -0.25 0.15
v -0.05 -0.25 -0.15
v -0.05 -0.25 -0.25
v -0.05 -0.05 0.25
v -0.05 -0.05 0.15
v -0.05 -0.05 -0.15
v -0.05 -0.05 -0.25
v -0.05 0.05 0.15
v -0.05 0.05 0.05
v -0.05 0.05 -0.05
v -0.05 0.05 -0.15
v -0.05 0.15 0.05
v -0.05 0.15 -0.05
v -0.05 0.35 0.15
v -0.05 0.35 0.05
v -0.05 0.35 -0.05
v -0.05 0.35 -0.15
v -0.05 0.45 0.05
v -0.05 0.45 -0.05
v 0.05 -0.75 0.15
v 0.05 -0.75 -0.15
v 0.05 -0.65 0.25
v 0.05 -0.65 0.15
v 0.05 -0.65 -0.15
v 0.05 -0.65 -0.25
v 0.05 -0.55 0.05
v 0.05 -0.55 -0.05
v 0.05 -0.45 0.15
v 0.05 -0.45 0.05
v 0.05 -0.45 -0.05
v 0.05 -0.45 -0.15
v 0.05 -0.35 0.25
v 0.05 -0.35 0.15
v 0.05 -0.35 -0.15
v 0.05 -0.35 -0.25
v 0.05 -0.25 0.25
v 0.05 -0.25 0.15
v 0.05 -0.25 -0.15
v 0.05 -0.25 -0.25
v 0.05 -0.05 0.25
v 0.05 -0.05 0.15
v 0.05 -0.05 -0.15
v 0.05 -0.05 -0.25
v 0.05 0.05 0.15
v 0.05 0.05 0.05
v 0.05 0.05 -0.05
v 0.05 0.05 -0.15
v 0.05 0.15 0.05
v 0.05 0.15 -0.05
v 0.05 0.35 0.15
v 0.05 0.35 0.05
v 0.05 0.35 -0.05
v 0.05 0.35 -0.15
v 0.05 0.45 0.05
v 0.05 0.45 -0.05
v 0.15 -0.45 0.15
v 0.15 -0.45 -0.15
v 0.15 -0.35 0.35
v 0.15 -0.35 0.25
v 0.15 -0.35 0.15
v 0.15 -0.35 -0.15
v 0.15 -0.35 -0.25
v 0.15 -0.35 -0.35
v 0.15 -0.25 0.35
v 0.15 -0.25 0.25
v 0.15 -0.25 0.15
v 0.15 -0.25 -0.15
v 0.15 -0.25 -0.25
v 0.15 -0.25 -0.35
v 0.15 0.05 0.15
v 0.15 0.05 0.05
v 0.15 0.05 -0.05
v 0.15 0.05 -0.15
v 0.15 0.15 0.05
v 0.15 0.15 -0.05
v 0.25 -0.35 0.25
v 0.25 -0.35 -0.25
v 0.25 -0.25 0.25
v 0.25 -0.25 -0.25
v -0.15 -0.35 0.35
v -0.15 -0.25 0.35
v 0.15 -0.35 0.35
v 0.15 -0.25 0.35
v -0.25 -0.35 0.25
v -0.25 -0.25 0.25
v -0.15 -0.35 0.25
v -0.15 -0.25 0.25
v -0.05 -0.65 0.25
v -0.05 -0.35 0.25
v -0.05 -0.25 0.25
v -0.05 -0.05 0.25
v 0.05 -0.65 0.25
v 0.05 -0.35 0.25
v 0.05 -0.25 0.25
v 0.05 -0.05 0.25
v 0.15 -0.35 0.25
v 0.15 -0.25 0.25
v 0.25 -0.35 0.25
v 0.25 -0.25 0.25
v -0.15 -0.45 0.15
v -0.15 -0.35 0.15
v -0.15 -0.25 0.15
v -0.15 0.05 0.15
v -0.05 -0.75 0.15
v -0.05 -0.65 0.15
v -0.05 -0.45 0.15
v -0.05 -0.35 0.15
v -0.05 -0.25 0.15
v -0.05 -0.05 0.15
v -0.05 0.05 0.15
v -0.05 0.35 0.15
v 0.05 -0.75 0.15
v 0.05 -0.65 0.15
v 0.05 -0.45 0.15
v 0.05 -0.35 0.15
v 0.05 -0.25 0.15
v 0.05 -0.05 0.15
v 0.05 0.05 0.15
v 0.05 0.35 0.15
v 0.15 -0.45 0.15
v 0.15 -0.35 0.15
v 0.15 -0.25 0.15
v 0.15 0.05 0.15
v -0.15 0.05 0.05
v -0.15 0.15 0.05
v -0.05 -0.55 0.05
v -0.05 -0.45 0.05
v -0.05 0.05 0.05
v -0.05 0.15 0.05
v -0.05 0.35 0.05
v -0.05 0.45 0.05
v 0.05 -0.55 0.05
v 0.05 -0.45 0.05
v 0.05 0.05 0.05
v 0.05 0.15 0.05
v 0.05 0.35 0.05
v 0.05 0.45 0.05
v 0.15 0.05 0.05
v 0.15 0.15 0.05
v -0.05 -0.65 -0.15
v -0.05 -0.45 -0.15
v 0.05 -0.65 -0.15
v 0.05 -0.45 -0.15
v -0.05 -0.65 0.15
v -0.05 -0.45 0.15
v 0.05 -0.65 0.15
v 0.05 -0.45 0.15
v -0.15 0.05 -0.05
v -0.15 0.15 -0.05
v -0.05 -0.55 -0.05
v -0.05 -0.45 -0.05
v -0.05 0.05 -0.05
v -0.05 0.15 -0.05
v -0.05 0.35 -0.05
v -0.05 0.45 -0.05
v 0.05 -0.55 -0.05
v 0.05 -0.45 -0.05
v 0.05 0.05 -0.05
v 0.05 0.15 -0.05
v 0.05 0.35 -0.05
v 0.05 0.45 -0.05
v 0.15 0.05 -0.05
v 0.15 0.15 -0.05
v -0.15 -0.45 -0.15
v -0.15 -0.35 -0.15
v -0.15 -0.25 -0.15
v -0.15 0.05 -0.15
v -0.05 -0.75 -0.15
v -0.05 -0.65 -0.15
v -0.05 -0.45 -0.15
v -0.05 -0.35 -0.15
v -0.05 -0.25 -0.15
v -0.05 -0.05 -0.15
v -0.05 0.05 -0.15
v -0.05 0.35 -0.15
v 0.05 -0.75 -0.15
v 0.05 -0.65 -0.15
v 0.05 -0.45 -0.15
v 0.05 -0.35 -0.15
v 0.05 -0.25 -0.15
v 0.05 -0.05 -0.15
v 0.05 0.05 -0.15
v 0.05 0.35 -0.15
v 0.15 -0.45 -0.15
v 0.15 -0.35 -0.15
v 0.15 -0.25 -0.15
v 0.15 0.05 -0.15
v -0.25 -0.35 -0.25
v -0.25 -0.25 -0.25
v -0.15 -0.35 -0.25
v -0.15 -0.25 -0.25
v -0.05 -0.65 -0.25
v -0.05 -0.35 -0.25
v -0.05 -0.25 -0.25
v -0.05 -0.05 -0.25
v 0.05 -0.65 -0.25
v 0.05 -0.35 -0.25
v 0.05 -0.25 -0.25
v 0.05 -0.05 -0.25
v 0.15 -0.35 -0.25
v 0.15 -0.25 -0.25
v 0.25 -0.35 -0.25
v 0.25 -0.25 -0.25
v -0.15 -0.35 -0.35
v -0.15 -0.25 -0.35
v 0.15 -0.35 -0.35
v 0.15 -0.25 -0.35
v -0.05 -0.75 0.15
v 0.05 -0.75 0.15
v -0.05 -0.75 -0.15
v 0.05 -0.75 -0.15
v -0.05 -0.65 0.25
v 0.05 -0.65 0.25
v -0.05 -0.65 0.15
v 0.05 -0.65 0.15
v -0.05 -0.65 -0.15
v 0.05 -0.65 -0.15
v -0.05 -0.65 -0.25
v 0.05 -0.65 -0.25
v -0.05 -0.55 0.05
v 0.05 -0.55 0.05
v -0.05 -0.55 -0.05
v 0.05 -0.55 -0.05
v -0.15 -0.45 0.15
v -0.05 -0.45 0.15
v 0.05 -0.45 0.15
v 0.15 -0.45 0.15
v -0.05 -0.45 0.05
v 0.05 -0.45 0.05
v -0.05 -0.45 -0.05
v 0.05 -0.45 -0.05
v -0.15 -0.45 -0.15
v -0.05 -0.45 -0.15
v 0.05 -0.45 -0.15
v 0.15 -0.45 -0.15
v -0.15 -0.35 0.35
v 0.15 -0.35 0.35
v -0.25 -0.35 0.25
v -0.15 -0.35 0.25
v -0.05 -0.35 0.25
v 0.05 -0.35 0.25
v 0.15 -0.35 0.25
v 0.25 -0.35 0.25
v -0.15 -0.35 0.15
v -0.05 -0.35 0.15
v 0.05 -0.35 0.15
v 0.15 -0.35 0.15
v -0.15 -0.35 -0.15
v -0.05 -0.35 -0.15
v 0.05 -0.35 -0.15
v 0.15 -0.35 -0.15
v -0.25 -0.35 -0.25
v -0.15 -0.35 -0.25
v -0.05 -0.35 -0.25
v 0.05 -0.35 -0.25
v 0.15 -0.35 -0.25
v 0.25 -0.35 -0.25
v -0.15 -0.35 -0.35
v 0.15 -0.35 -0.35
v -0.05 -0.65 0.15
v 0.05 -0.65 0.15
v -0.05 -0.65 -0.15
v 0.05 -0.65 -0.15
v -0.15 -0.25 0.35
v 0.15 -0.25 0.35
v -0.25 -0.25 0.25
v -0.15 -0.25 0.25
v -0.05 -0.25 0.25
v 0.05 -0.25 0.25
v 0.15 -0.25 0.25
v 0.25 -0.25 0.25
v -0.15 -0.25 0.15
v -0.05 -0.25 0.15
v 0.05 -0.25 0.15
v 0.15 -0.25 0.15
v -0.15 -0.25 -0.15
v -0.05 -0.25 -0.15
v 0.05 -0.25 -0.15
v 0.15 -0.25 -0.15
v -0.25 -0.25 -0.25
v -0.15 -0.25 -0.25
v -0.05 -0.25 -0.25
v 0.05 -0.25 -0.25
v 0.15 -0.25 -0.25
v 0.25 -0.25 -0.25
v -0.15 -0.25 -0.35
v 0.15 -0.25 -0.35
v -0.05 -0.05 0.25
v 0.05 -0.05 0.25
v -0.05 -0.05 0.15
v 0.05 -0.05 0.15
v -0.05 -0.05 -0.15
v 0.05 -0.05 -0.15
v -0.05 -0.05 -0.25
v 0.05 -0.05 -0.25
v -0.15 0.05 0.15
v -0.05 0.05 0.15
v 0.05 0.05 0.15
v 0.15 0.05 0.15
v -0.15 0.05 0.05
v -0.05 0.05 0.05
v 0.05 0.05 0.05
v 0.15 0.05 0.05
v -0.15 0.05 -0.05
v -0.05 0.05 -0.05
v 0.05 0.05 -0.05
v 0.15 0.05 -0.05
v -0.15 0.05 -0.15
v -0.05 0.05 -0.15
v 0.05 0.05 -0.15
v 0.15 0.05 -0.15
v -0.15 0.15 0.05
v -0.05 0.15 0.05
v 0.05 0.15 0.05
v 0.15 0.15 0.05
v -0.15 0.15 -0.05
v -0.05 0.15 -0.05
v 0.05 0.15 -0.05
v 0.15 0.15 -0.05
v -0.05 0.35 0.15
v 0.05 0.35 0.15
v -0.05 0.35 0.05
v 0.05 0.35 0.05
v -0.05 0.35 -0.05
v 0.05 0.35 -0.05
v -0.05 0.35 -0.15
v 0.05 0.35 -0.15
v -0.05 0.45 0.05
v 0.05 0.45 0.05
v -0.05 0.45 -0.05
v 0.05 0.45 -0.05

# faces
f 3/2/1 2/2/1 1/2/1
f 4/2/1 2/2/1 3/2/1
f 9/2/1 6/2/1 5/2/1
f 10/2/1 6/2/1 9/2/1
f 13/2/1 8/2/1 7/2/1
f 14/2/1 8/2/1 13/2/1
f 17/2/1 12/2/1 11/2/1
f 18/2/1 12/2/1 17/2/1
f 19/1/1 16/1/1 15/1/1
f 20/1/1 16/1/1 19/1/1
f 21/1/1 16/1/1 20/1/1
f 22/1/1 16/1/1 21/1/1
f 23/1/1 21/1/1 20/1/1
f 24/1/1 21/1/1 23/1/1
f 28/2/1 26/2/1 25/2/1
f 29/2/1 26/2/1 28/2/1
f 33/2/1 28/2/1 27/2/1
f 34/2/1 32/2/1 31/2/1
f 35/2/1 32/2/1 34/2/1
f 36/2/1 30/2/1 29/2/1
f 37/2/1 33/2/1 27/2/1
f 38/2/1 33/2/1 37/2/1
f 39/2/1 30/2/1 36/2/1
f 40/2/1 30/2/1 39/2/1
f 45/1/1 42/1/1 41/1/1
f 46/1/1 42/1/1 45/1/1
f 47/1/1 44/1/1 43/1/1
f 48/1/1 44/1/1 47/1/1
f 53/1/1 50/1/1 49/1/1
f 54/1/1 52/1/1 51/1/1
f 55/1/1 53/1/1 49/1/1
f 55/1/1 54/1/1 53/1/1
f 56/1/1 54/1/1 55/1/1
f 57/1/1 52/1/1 54/1/1
f 57/1/1 54/1/1 56/1/1
f 58/1/1 52/1/1 57/1/1
f 59/1/1 57/1/1 56/1/1
f 60/1/1 57/1/1 59/1/1
f 61/2/2 62/2/2 64/2/2
f 64/2/2 62/2/2 65/2/2
f 63/2/2 64/2/2 69/2/2
f 67/2/2 68/2/2 70/2/2
f 70/2/2 68/2/2 71/2/2
f 65/2/2 66/2/2 72/2/2
f 63/2/2 69/2/2 73/2/2
f 73/2/2 69/2/2 74/2/2
f 72/2/2 66/2/2 75/2/2
f 75/2/2 66/2/2 76/2/2
f 77/1/2 78/1/2 81/1/2
f 81/1/2 78/1/2 82/1/2
f 79/1/2 80/1/2 83/1/2
f 83/1/2 80/1/2 84/1/2
f 85/1/2 86/1/2 89/1/2
f 87/1/2 88/1/2 90/1/2
f 85/1/2 89/1/2 91/1/2
f 89/1/2 90/1/2 91/1/2
f 91/1/2 90/1/2 92/1/2
f 90/1/2 88/1/2 93/1/2
f 92/1/2 90/1/2 93/1/2
f 93/1/2 88/1/2 94/1/2
f 92/1/2 93/1/2 95/1/2
f 95/1/2 93/1/2 96/1/2
f 97/2/2 98/2/2 101/2/2
f 101/2/2 98/2/2 102/2/2
f 99/2/2 100/2/2 105/2/2
f 105/2/2 100/2/2 106/2/2
f 103/2/2 104/2/2 109/2/2
f 109/2/2 104/2/2 110/2/2
f 107/1/2 108/1/2 111/1/2
f 111/1/2 108/1/2 112/1/2
f 112/1/2 108/1/2 113/1/2
f 113/1/2 108/1/2 114/1/2
f 112/1/2 113/1/2 115/1/2
f 115/1/2 113/1/2 116/1/2
f 117/2/2 118/2/2 119/2/2
f 119/2/2 118/2/2 120/2/2
f 123/2/3 122/2/3 121/2/3
f 124/2/3 122/2/3 123/2/3
f 127/2/3 126/2/3 125/2/3
f 128/2/3 126/2/3 127/2/3
f 133/2/3 130/2/3 129/2/3
f 134/2/3 130/2/3 133/2/3
f 135/1/3 132/1/3 131/1/3
f 136/1/3 132/1/3 135/1/3
f 139/2/3 138/2/3 137/2/3
f 140/2/3 138/2/3 139/2/3
f 147/2/3 142/2/3 141/2/3
f 148/2/3 142/2/3 147/2/3
f 149/1/3 144/1/3 143/1/3
f 150/1/3 144/1/3 149/1/3
f 151/1/3 144/1/3 150/1/3
f 153/2/3 146/2/3 145/2/3
f 154/2/3 146/2/3 153/2/3
f 158/1/3 152/1/3 151/1/3
f 158/1/3 151/1/3 150/1/3
f 159/1/3 152/1/3 158/1/3
f 160/1/3 152/1/3 159/1/3
f 161/2/3 156/2/3 155/2/3
f 162/2/3 156/2/3 161/2/3
f 163/1/3 159/1/3 158/1/3
f 163/1/3 158/1/3 157/1/3
f 164/1/3 159/1/3 163/1/3
f 169/1/3 166/1/3 165/1/3
f 170/1/3 166/1/3 169/1/3
f 173/2/3 168/2/3 167/2/3
f 174/2/3 168/2/3 173/2/3
f 177/1/3 172/1/3 171/1/3
f 178/1/3 172/1/3 177/1/3
f 179/1/3 176/1/3 175/1/3
f 180/1/3 176/1/3 179/1/3
f 183/2/3 182/2/3 181/2/3
f 184/2/3 182/2/3 183/2/3
f 185/2/4 186/2/4 187/2/4
f 187/2/4 186/2/4 188/2/4
f 189/1/4 190/1/4 193/1/4
f 193/1/4 190/1/4 194/1/4
f 191/2/4 192/2/4 197/2/4
f 197/2/4 192/2/4 198/2/4
f 195/1/4 196/1/4 201/1/4
f 201/1/4 196/1/4 202/1/4
f 199/1/4 200/1/4 203/1/4
f 203/1/4 200/1/4 204/1/4
f 205/2/4 206/2/4 211/2/4
f 211/2/4 206/2/4 212/2/4
f 207/1/4 208/1/4 213/1/4
f 213/1/4 208/1/4 214/1/4
f 214/1/4 208/1/4 215/1/4
f 209/2/4 210/2/4 217/2/4
f 217/2/4 210/2/4 218/2/4
f 215/1/4 216/1/4 222/1/4
f 214/1/4 215/1/4 222/1/4
f 222/1/4 216/1/4 223/1/4
f 223/1/4 216/1/4 224/1/4
f 219/2/4 220/2/4 225/2/4
f 225/2/4 220/2/4 226/2/4
f 222/1/4 223/1/4 227/1/4
f 221/1/4 222/1/4 227/1/4
f 227/1/4 223/1/4 228/1/4
f 229/2/4 230/2/4 231/2/4
f 231/2/4 230/2/4 232/2/4
f 233/2/4 234/2/4 237/2/4
f 237/2/4 234/2/4 238/2/4
f 235/1/4 236/1/4 239/1/4
f 239/1/4 236/1/4 240/1/4
f 241/2/4 242/2/4 243/2/4
f 243/2/4 242/2/4 244/2/4
f 245/2/4 246/2/4 247/2/4
f 247/2/4 246/2/4 248/2/4
f 251/2/5 250/2/5 249/2/5
f 252/2/5 250/2/5 251/2/5
f 255/2/5 254/2/5 253/2/5
f 256/2/5 254/2/5 255/2/5
f 259/2/5 258/2/5 257/2/5
f 260/2/5 258/2/5 259/2/5
f 263/2/5 262/2/5 261/2/5
f 264/2/5 262/2/5 263/2/5
f 269/2/5 266/2/5 265/2/5
f 269/2/5 268/2/5 267/2/5
f 269/2/5 267/2/5 266/2/5
f 270/2/5 268/2/5 269/2/5
f 271/2/5 269/2/5 265/2/5
f 272/2/5 268/2/5 270/2/5
f 273/2/5 271/2/5 265/2/5
f 273/2/5 272/2/5 271/2/5
f 274/2/5 272/2/5 273/2/5
f 275/2/5 268/2/5 272/2/5
f 275/2/5 272/2/5 274/2/5
f 276/2/5 268/2/5 275/2/5
f 280/2/5 278/2/5 277/2/5
f 281/2/5 278/2/5 280/2/5
f 282/2/5 278/2/5 281/2/5
f 283/2/5 278/2/5 282/2/5
f 285/2/5 280/2/5 279/2/5
f 285/2/5 281/2/5 280/2/5
f 286/2/5 281/2/5 285/2/5
f 287/2/5 284/2/5 283/2/5
f 287/2/5 283/2/5 282/2/5
f 288/2/5 284/2/5 287/2/5
f 289/2/5 285/2/5 279/2/5
f 292/2/5 284/2/5 288/2/5
f 293/2/5 290/2/5 289/2/5
f 293/2/5 289/2/5 279/2/5
f 294/2/5 290/2/5 293/2/5
f 295/2/5 290/2/5 294/2/5
f 296/2/5 292/2/5 291/2/5
f 297/2/5 284/2/5 292/2/5
f 297/2/5 292/2/5 296/2/5
f 298/2/5 284/2/5 297/2/5
f 299/2/5 295/2/5 294/2/5
f 299/2/5 296/2/5 295/2/5
f 299/2/5 297/2/5 296/2/5
f 300/2/5 297/2/5 299/2/5
f 301/2/6 302/2/6 303/2/6
f 303/2/6 302/2/6 304/2/6
f 305/2/6 306/2/6 308/2/6
f 308/2/6 306/2/6 309/2/6
f 309/2/6 306/2/6 310/2/6
f 310/2/6 306/2/6 311/2/6
f 307/2/6 308/2/6 313/2/6
f 308/2/6 309/2/6 313/2/6
f 313/2/6 309/2/6 314/2/6
f 311/2/6 312/2/6 315/2/6
f 310/2/6 311/2/6 315/2/6
f 315/2/6 312/2/6 316/2/6
f 307/2/6 313/2/6 317/2/6
f 316/2/6 312/2/6 320/2/6
f 317/2/6 318/2/6 321/2/6
f 307/2/6 317/2/6 321/2/6
f 321/2/6 318/2/6 322/2/6
f 322/2/6 318/2/6 323/2/6
f 319/2/6 320/2/6 324/2/6
f 320/2/6 312/2/6 325/2/6
f 324/2/6 320/2/6 325/2/6
f 325/2/6 312/2/6 326/2/6
f 322/2/6 323/2/6 327/2/6
f 323/2/6 324/2/6 327/2/6
f 324/2/6 325/2/6 327/2/6
f 327/2/6 325/2/6 328/2/6
f 329/1/6 330/1/6 331/1/6
f 331/1/6 330/1/6 332/1/6
f 333/1/6 334/1/6 335/1/6
f 335/1/6 334/1/6 336/1/6
f 337/1/6 338/1/6 341/1/6
f 341/1/6 338/1/6 342/1/6
f 339/1/6 340/1/6 343/1/6
f 343/1/6 340/1/6 344/1/6
f 345/1/6 346/1/6 349/1/6
f 349/1/6 346/1/6 350/1/6
f 347/1/6 348/1/6 351/1/6
f 351/1/6 348/1/6 352/1/6
f 353/1/6 354/1/6 357/1/6
f 357/1/6 354/1/6 358/1/6
f 355/1/6 356/1/6 359/1/6
f 359/1/6 356/1/6 360/1/6
f 361/1/6 362/1/6 363/1/6
f 363/1/6 362/1/6 364/1/6
f 365/1/6 366/1/6 367/1/6
f 367/1/6 366/1/6 368/1/6
f 369/1/6 370/1/6 371/1/6
f 371/1/6 370/1/6 372/1/6
