# MagicaVoxel @ Ephtracy

# group
o 

# material
mtllib Item_-1.mtl
usemtl palette

# normals
vn -1 0 0
vn 1 0 0
vn 0 0 1
vn 0 0 -1
vn 0 -1 0
vn 0 1 0

# texcoords
vt 0.130859 0.5
vt 0.365234 0.5
vt 0.396484 0.5
vt 0.400391 0.5
vt 0.708984 0.5

# verts
v -0.45 -0.55 0.25
v -0.45 -0.55 -0.25
v -0.45 -0.45 0.35
v -0.45 -0.45 0.25
v -0.45 -0.45 -0.25
v -0.45 -0.45 -0.35
v -0.45 -0.05 0.35
v -0.45 -0.05 0.25
v -0.45 -0.05 -0.25
v -0.45 -0.05 -0.35
v -0.45 0.05 0.25
v -0.45 0.05 -0.25
v -0.35 -0.65 0.35
v -0.35 -0.65 -0.35
v -0.35 -0.55 0.25
v -0.35 -0.55 -0.25
v -0.35 -0.45 0.45
v -0.35 -0.45 0.35
v -0.35 -0.45 0.25
v -0.35 -0.45 -0.25
v -0.35 -0.45 -0.35
v -0.35 -0.45 -0.45
v -0.35 -0.05 0.45
v -0.35 -0.05 0.35
v -0.35 -0.05 0.25
v -0.35 -0.05 -0.25
v -0.35 -0.05 -0.35
v -0.35 -0.05 -0.45
v -0.35 0.05 0.25
v -0.35 0.05 -0.25
v -0.35 0.15 0.35
v -0.35 0.15 -0.35
v -0.25 -0.75 0.25
v -0.25 -0.75 -0.25
v -0.25 -0.65 0.25
v -0.25 -0.65 -0.25
v -0.25 -0.55 0.45
v -0.25 -0.55 0.35
v -0.25 -0.55 -0.35
v -0.25 -0.55 -0.45
v -0.25 -0.45 0.45
v -0.25 -0.45 0.35
v -0.25 -0.45 -0.35
v -0.25 -0.45 -0.45
v -0.25 -0.05 0.45
v -0.25 -0.05 0.35
v -0.25 -0.05 -0.35
v -0.25 -0.05 -0.45
v -0.25 0.05 0.45
v -0.25 0.05 0.35
v -0.25 0.05 -0.35
v -0.25 0.05 -0.45
v -0.25 0.15 0.25
v -0.25 0.15 -0.25
v -0.25 0.25 0.25
v -0.25 0.25 -0.25
v -0.15 0.25 0.15
v -0.15 0.25 -0.15
v -0.15 0.35 0.15
v -0.15 0.35 -0.15
v -0.05 0.35 0.05
v -0.05 0.35 -0.05
v -0.05 0.55 0.05
v -0.05 0.55 -0.05
v 0.05 0.35 0.05
v 0.05 0.35 -0.05
v 0.05 0.55 0.05
v 0.05 0.55 -0.05
v 0.15 0.25 0.15
v 0.15 0.25 -0.15
v 0.15 0.35 0.15
v 0.15 0.35 -0.15
v 0.25 -0.75 0.25
v 0.25 -0.75 -0.25
v 0.25 -0.65 0.25
v 0.25 -0.65 -0.25
v 0.25 -0.55 0.45
v 0.25 -0.55 0.35
v 0.25 -0.55 -0.35
v 0.25 -0.55 -0.45
v 0.25 -0.45 0.45
v 0.25 -0.45 0.35
v 0.25 -0.45 -0.35
v 0.25 -0.45 -0.45
v 0.25 -0.05 0.45
v 0.25 -0.05 0.35
v 0.25 -0.05 -0.35
v 0.25 -0.05 -0.45
v 0.25 0.05 0.45
v 0.25 0.05 0.35
v 0.25 0.05 -0.35
v 0.25 0.05 -0.45
v 0.25 0.15 0.25
v 0.25 0.15 -0.25
v 0.25 0.25 0.25
v 0.25 0.25 -0.25
v 0.35 -0.65 0.35
v 0.35 -0.65 -0.35
v 0.35 -0.55 0.35
v 0.35 -0.55 -0.35
v 0.35 -0.45 0.45
v 0.35 -0.45 0.35
v 0.35 -0.45 -0.35
v 0.35 -0.45 -0.45
v 0.35 -0.05 0.45
v 0.35 -0.05 0.35
v 0.35 -0.05 -0.35
v 0.35 -0.05 -0.45
v 0.35 0.05 0.35
v 0.35 0.05 -0.35
v 0.35 0.15 0.35
v 0.35 0.15 -0.35
v 0.45 -0.55 0.35
v 0.45 -0.55 -0.35
v 0.45 0.05 0.35
v 0.45 0.05 -0.35
v -0.35 -0.45 0.45
v -0.35 -0.05 0.45
v -0.25 -0.55 0.45
v -0.25 -0.45 0.45
v -0.25 -0.05 0.45
v -0.25 0.05 0.45
v 0.25 -0.55 0.45
v 0.25 -0.45 0.45
v 0.25 -0.05 0.45
v 0.25 0.05 0.45
v 0.35 -0.45 0.45
v 0.35 -0.05 0.45
v -0.45 -0.45 0.35
v -0.45 -0.05 0.35
v -0.35 -0.65 0.35
v -0.35 -0.45 0.35
v -0.35 -0.05 0.35
v -0.35 0.15 0.35
v -0.25 -0.55 0.35
v -0.25 -0.45 0.35
v -0.25 -0.05 0.35
v -0.25 0.05 0.35
v 0.25 -0.55 0.35
v 0.25 -0.45 0.35
v 0.25 -0.05 0.35
v 0.25 0.05 0.35
v 0.35 -0.65 0.35
v 0.35 -0.55 0.35
v 0.35 -0.45 0.35
v 0.35 -0.05 0.35
v 0.35 0.05 0.35
v 0.35 0.15 0.35
v 0.45 -0.55 0.35
v 0.45 0.05 0.35
v -0.45 -0.55 0.25
v -0.45 -0.45 0.25
v -0.45 -0.05 0.25
v -0.45 0.05 0.25
v -0.35 -0.55 0.25
v -0.35 -0.45 0.25
v -0.35 -0.05 0.25
v -0.35 0.05 0.25
v -0.25 -0.75 0.25
v -0.25 -0.65 0.25
v -0.25 0.15 0.25
v -0.25 0.25 0.25
v 0.25 -0.75 0.25
v 0.25 -0.65 0.25
v 0.25 0.15 0.25
v 0.25 0.25 0.25
v -0.15 0.25 0.15
v -0.15 0.35 0.15
v 0.15 0.25 0.15
v 0.15 0.35 0.15
v -0.05 0.35 0.05
v -0.05 0.55 0.05
v 0.05 0.35 0.05
v 0.05 0.55 0.05
v -0.05 0.35 -0.05
v -0.05 0.55 -0.05
v 0.05 0.35 -0.05
v 0.05 0.55 -0.05
v -0.15 0.25 -0.15
v -0.15 0.35 -0.15
v 0.15 0.25 -0.15
v 0.15 0.35 -0.15
v -0.45 -0.55 -0.25
v -0.45 -0.45 -0.25
v -0.45 -0.05 -0.25
v -0.45 0.05 -0.25
v -0.35 -0.55 -0.25
v -0.35 -0.45 -0.25
v -0.35 -0.05 -0.25
v -0.35 0.05 -0.25
v -0.25 -0.75 -0.25
v -0.25 -0.65 -0.25
v -0.25 0.15 -0.25
v -0.25 0.25 -0.25
v 0.25 -0.75 -0.25
v 0.25 -0.65 -0.25
v 0.25 0.15 -0.25
v 0.25 0.25 -0.25
v -0.45 -0.45 -0.35
v -0.45 -0.05 -0.35
v -0.35 -0.65 -0.35
v -0.35 -0.45 -0.35
v -0.35 -0.05 -0.35
v -0.35 0.15 -0.35
v -0.25 -0.55 -0.35
v -0.25 -0.45 -0.35
v -0.25 -0.05 -0.35
v -0.25 0.05 -0.35
v 0.25 -0.55 -0.35
v 0.25 -0.45 -0.35
v 0.25 -0.05 -0.35
v 0.25 0.05 -0.35
v 0.35 -0.65 -0.35
v 0.35 -0.55 -0.35
v 0.35 -0.45 -0.35
v 0.35 -0.05 -0.35
v 0.35 0.05 -0.35
v 0.35 0.15 -0.35
v 0.45 -0.55 -0.35
v 0.45 0.05 -0.35
v -0.35 -0.45 -0.45
v -0.35 -0.05 -0.45
v -0.25 -0.55 -0.45
v -0.25 -0.45 -0.45
v -0.25 -0.05 -0.45
v -0.25 0.05 -0.45
v 0.25 -0.55 -0.45
v 0.25 -0.45 -0.45
v 0.25 -0.05 -0.45
v 0.25 0.05 -0.45
v 0.35 -0.45 -0.45
v 0.35 -0.05 -0.45
v -0.25 -0.75 0.25
v 0.25 -0.75 0.25
v -0.25 -0.75 -0.25
v 0.25 -0.75 -0.25
v -0.35 -0.65 0.35
v 0.35 -0.65 0.35
v -0.25 -0.65 0.25
v 0.25 -0.65 0.25
v -0.25 -0.65 -0.25
v 0.25 -0.65 -0.25
v -0.35 -0.65 -0.35
v 0.35 -0.65 -0.35
v -0.25 -0.55 0.45
v 0.25 -0.55 0.45
v -0.25 -0.55 0.35
v 0.25 -0.55 0.35
v 0.35 -0.55 0.35
v 0.45 -0.55 0.35
v -0.45 -0.55 0.25
v -0.35 -0.55 0.25
v -0.45 -0.55 -0.25
v -0.35 -0.55 -0.25
v -0.25 -0.55 -0.35
v 0.25 -0.55 -0.35
v 0.35 -0.55 -0.35
v 0.45 -0.55 -0.35
v -0.25 -0.55 -0.45
v 0.25 -0.55 -0.45
v -0.35 -0.45 0.45
v -0.25 -0.45 0.45
v 0.25 -0.45 0.45
v 0.35 -0.45 0.45
v -0.45 -0.45 0.35
v -0.35 -0.45 0.35
v -0.25 -0.45 0.35
v 0.25 -0.45 0.35
v 0.35 -0.45 0.35
v -0.45 -0.45 0.25
v -0.35 -0.45 0.25
v -0.45 -0.45 -0.25
v -0.35 -0.45 -0.25
v -0.45 -0.45 -0.35
v -0.35 -0.45 -0.35
v -0.25 -0.45 -0.35
v 0.25 -0.45 -0.35
v 0.35 -0.45 -0.35
v -0.35 -0.45 -0.45
v -0.25 -0.45 -0.45
v 0.25 -0.45 -0.45
v 0.35 -0.45 -0.45
v -0.35 -0.05 0.45
v -0.25 -0.05 0.45
v 0.25 -0.05 0.45
v 0.35 -0.05 0.45
v -0.45 -0.05 0.35
v -0.35 -0.05 0.35
v -0.25 -0.05 0.35
v 0.25 -0.05 0.35
v 0.35 -0.05 0.35
v -0.45 -0.05 0.25
v -0.35 -0.05 0.25
v -0.45 -0.05 -0.25
v -0.35 -0.05 -0.25
v -0.45 -0.05 -0.35
v -0.35 -0.05 -0.35
v -0.25 -0.05 -0.35
v 0.25 -0.05 -0.35
v 0.35 -0.05 -0.35
v -0.35 -0.05 -0.45
v -0.25 -0.05 -0.45
v 0.25 -0.05 -0.45
v 0.35 -0.05 -0.45
v -0.25 0.05 0.45
v 0.25 0.05 0.45
v -0.25 0.05 0.35
v 0.25 0.05 0.35
v 0.35 0.05 0.35
v 0.45 0.05 0.35
v -0.45 0.05 0.25
v -0.35 0.05 0.25
v -0.45 0.05 -0.25
v -0.35 0.05 -0.25
v -0.25 0.05 -0.35
v 0.25 0.05 -0.35
v 0.35 0.05 -0.35
v 0.45 0.05 -0.35
v -0.25 0.05 -0.45
v 0.25 0.05 -0.45
v -0.35 0.15 0.35
v 0.35 0.15 0.35
v -0.25 0.15 0.25
v 0.25 0.15 0.25
v -0.25 0.15 -0.25
v 0.25 0.15 -0.25
v -0.35 0.15 -0.35
v 0.35 0.15 -0.35
v -0.25 0.25 0.25
v 0.25 0.25 0.25
v -0.15 0.25 0.15
v 0.15 0.25 0.15
v -0.15 0.25 -0.15
v 0.15 0.25 -0.15
v -0.25 0.25 -0.25
v 0.25 0.25 -0.25
v -0.15 0.35 0.15
v 0.15 0.35 0.15
v -0.05 0.35 0.05
v 0.05 0.35 0.05
v -0.05 0.35 -0.05
v 0.05 0.35 -0.05
v -0.15 0.35 -0.15
v 0.15 0.35 -0.15
v -0.05 0.55 0.05
v 0.05 0.55 0.05
v -0.05 0.55 -0.05
v 0.05 0.55 -0.05

# faces
f 4/3/1 2/3/1 1/3/1
f 5/3/1 2/3/1 4/3/1
f 7/3/1 4/3/1 3/3/1
f 7/3/1 6/3/1 5/3/1
f 7/3/1 5/3/1 4/3/1
f 8/3/1 6/3/1 7/3/1
f 9/3/1 6/3/1 8/3/1
f 10/3/1 6/3/1 9/3/1
f 11/3/1 9/3/1 8/3/1
f 12/3/1 9/3/1 11/3/1
f 15/3/1 14/3/1 13/3/1
f 16/3/1 14/3/1 15/3/1
f 18/3/1 15/3/1 13/3/1
f 19/3/1 15/3/1 18/3/1
f 20/3/1 14/3/1 16/3/1
f 21/3/1 14/3/1 20/3/1
f 23/3/1 18/3/1 17/3/1
f 24/3/1 18/3/1 23/3/1
f 27/3/1 22/3/1 21/3/1
f 28/3/1 22/3/1 27/3/1
f 29/3/1 25/3/1 24/3/1
f 30/3/1 27/3/1 26/3/1
f 31/3/1 29/3/1 24/3/1
f 31/3/1 30/3/1 29/3/1
f 32/3/1 27/3/1 30/3/1
f 32/3/1 30/3/1 31/3/1
f 35/3/1 34/3/1 33/3/1
f 36/3/1 34/3/1 35/3/1
f 41/3/1 38/3/1 37/3/1
f 42/3/1 38/3/1 41/3/1
f 43/3/1 40/3/1 39/3/1
f 44/3/1 40/3/1 43/3/1
f 49/3/1 46/3/1 45/3/1
f 50/3/1 46/3/1 49/3/1
f 51/3/1 48/3/1 47/3/1
f 52/3/1 48/3/1 51/3/1
f 55/3/1 54/3/1 53/3/1
f 56/3/1 54/3/1 55/3/1
f 59/1/1 58/1/1 57/1/1
f 60/1/1 58/1/1 59/1/1
f 63/5/1 62/5/1 61/5/1
f 64/5/1 62/5/1 63/5/1
f 65/5/2 66/5/2 67/5/2
f 67/5/2 66/5/2 68/5/2
f 69/1/2 70/1/2 71/1/2
f 71/1/2 70/1/2 72/1/2
f 73/3/2 74/3/2 75/3/2
f 75/3/2 74/3/2 76/3/2
f 77/3/2 78/3/2 81/3/2
f 81/3/2 78/3/2 82/3/2
f 79/3/2 80/3/2 83/3/2
f 83/3/2 80/3/2 84/3/2
f 85/3/2 86/3/2 89/3/2
f 89/3/2 86/3/2 90/3/2
f 87/3/2 88/3/2 91/3/2
f 91/3/2 88/3/2 92/3/2
f 93/3/2 94/3/2 95/3/2
f 95/3/2 94/3/2 96/3/2
f 97/3/2 98/3/2 99/3/2
f 99/3/2 98/3/2 100/3/2
f 101/3/2 102/3/2 105/3/2
f 105/3/2 102/3/2 106/3/2
f 103/3/2 104/3/2 107/3/2
f 107/3/2 104/3/2 108/3/2
f 109/3/2 110/3/2 111/3/2
f 111/3/2 110/3/2 112/3/2
f 113/3/2 114/3/2 115/3/2
f 115/3/2 114/3/2 116/3/2
f 120/3/3 118/3/3 117/3/3
f 121/3/3 118/3/3 120/3/3
f 123/3/3 120/3/3 119/3/3
f 123/3/3 122/3/3 121/3/3
f 123/3/3 121/3/3 120/3/3
f 124/3/3 122/3/3 123/3/3
f 125/3/3 122/3/3 124/3/3
f 126/3/3 122/3/3 125/3/3
f 127/3/3 125/3/3 124/3/3
f 128/3/3 125/3/3 127/3/3
f 132/3/3 130/3/3 129/3/3
f 133/3/3 130/3/3 132/3/3
f 135/3/3 132/3/3 131/3/3
f 136/3/3 132/3/3 135/3/3
f 137/3/3 134/3/3 133/3/3
f 138/3/3 134/3/3 137/3/3
f 139/3/3 135/3/3 131/3/3
f 142/3/3 134/3/3 138/3/3
f 143/3/3 140/3/3 139/3/3
f 143/3/3 139/3/3 131/3/3
f 144/3/3 140/3/3 143/3/3
f 145/3/3 140/3/3 144/3/3
f 146/3/3 142/3/3 141/3/3
f 147/3/3 134/3/3 142/3/3
f 147/3/3 142/3/3 146/3/3
f 148/3/3 134/3/3 147/3/3
f 149/3/3 145/3/3 144/3/3
f 149/3/3 146/3/3 145/3/3
f 149/3/3 147/3/3 146/3/3
f 150/3/3 147/3/3 149/3/3
f 155/3/3 152/3/3 151/3/3
f 156/3/3 152/3/3 155/3/3
f 157/3/3 154/3/3 153/3/3
f 158/3/3 154/3/3 157/3/3
f 163/3/3 160/3/3 159/3/3
f 164/3/3 160/3/3 163/3/3
f 165/3/3 162/3/3 161/3/3
f 166/3/3 162/3/3 165/3/3
f 169/1/3 168/1/3 167/1/3
f 170/1/3 168/1/3 169/1/3
f 173/5/3 172/5/3 171/5/3
f 174/5/3 172/5/3 173/5/3
f 175/5/4 176/5/4 177/5/4
f 177/5/4 176/5/4 178/5/4
f 179/1/4 180/1/4 181/1/4
f 181/1/4 180/1/4 182/1/4
f 183/3/4 184/3/4 187/3/4
f 187/3/4 184/3/4 188/3/4
f 185/3/4 186/3/4 189/3/4
f 189/3/4 186/3/4 190/3/4
f 191/3/4 192/3/4 195/3/4
f 195/3/4 192/3/4 196/3/4
f 193/3/4 194/3/4 197/3/4
f 197/3/4 194/3/4 198/3/4
f 199/3/4 200/3/4 202/3/4
f 202/3/4 200/3/4 203/3/4
f 201/3/4 202/3/4 205/3/4
f 205/3/4 202/3/4 206/3/4
f 203/3/4 204/3/4 207/3/4
f 207/3/4 204/3/4 208/3/4
f 201/3/4 205/3/4 209/3/4
f 208/3/4 204/3/4 212/3/4
f 209/3/4 210/3/4 213/3/4
f 201/3/4 209/3/4 213/3/4
f 213/3/4 210/3/4 214/3/4
f 214/3/4 210/3/4 215/3/4
f 211/3/4 212/3/4 216/3/4
f 212/3/4 204/3/4 217/3/4
f 216/3/4 212/3/4 217/3/4
f 217/3/4 204/3/4 218/3/4
f 214/3/4 215/3/4 219/3/4
f 215/3/4 216/3/4 219/3/4
f 216/3/4 217/3/4 219/3/4
f 219/3/4 217/3/4 220/3/4
f 221/3/4 222/3/4 224/3/4
f 224/3/4 222/3/4 225/3/4
f 223/3/4 224/3/4 227/3/4
f 225/3/4 226/3/4 227/3/4
f 224/3/4 225/3/4 227/3/4
f 227/3/4 226/3/4 228/3/4
f 228/3/4 226/3/4 229/3/4
f 229/3/4 226/3/4 230/3/4
f 228/3/4 229/3/4 231/3/4
f 231/3/4 229/3/4 232/3/4
f 235/3/5 234/3/5 233/3/5
f 236/3/5 234/3/5 235/3/5
f 239/3/5 238/3/5 237/3/5
f 240/3/5 238/3/5 239/3/5
f 241/3/5 239/3/5 237/3/5
f 242/3/5 238/3/5 240/3/5
f 243/3/5 241/3/5 237/3/5
f 243/3/5 242/3/5 241/3/5
f 244/3/5 238/3/5 242/3/5
f 244/3/5 242/3/5 243/3/5
f 247/3/5 246/3/5 245/3/5
f 248/3/5 246/3/5 247/3/5
f 253/3/5 252/3/5 251/3/5
f 254/3/5 252/3/5 253/3/5
f 257/3/5 250/3/5 249/3/5
f 258/3/5 250/3/5 257/3/5
f 259/3/5 256/3/5 255/3/5
f 260/3/5 256/3/5 259/3/5
f 266/3/5 262/3/5 261/3/5
f 267/3/5 262/3/5 266/3/5
f 268/3/5 264/3/5 263/3/5
f 269/3/5 264/3/5 268/3/5
f 270/3/5 266/3/5 265/3/5
f 271/3/5 266/3/5 270/3/5
f 274/3/5 273/3/5 272/3/5
f 275/3/5 273/3/5 274/3/5
f 279/3/5 276/3/5 275/3/5
f 280/3/5 276/3/5 279/3/5
f 281/3/5 278/3/5 277/3/5
f 282/3/5 278/3/5 281/3/5
f 283/3/6 284/3/6 288/3/6
f 288/3/6 284/3/6 289/3/6
f 285/3/6 286/3/6 290/3/6
f 290/3/6 286/3/6 291/3/6
f 287/3/6 288/3/6 292/3/6
f 292/3/6 288/3/6 293/3/6
f 294/3/6 295/3/6 296/3/6
f 296/3/6 295/3/6 297/3/6
f 297/3/6 298/3/6 301/3/6
f 301/3/6 298/3/6 302/3/6
f 299/3/6 300/3/6 303/3/6
f 303/3/6 300/3/6 304/3/6
f 305/3/6 306/3/6 307/3/6
f 307/3/6 306/3/6 308/3/6
f 311/3/6 312/3/6 313/3/6
f 313/3/6 312/3/6 314/3/6
f 309/3/6 310/3/6 317/3/6
f 317/3/6 310/3/6 318/3/6
f 315/3/6 316/3/6 319/3/6
f 319/3/6 316/3/6 320/3/6
f 321/3/6 322/3/6 323/3/6
f 323/3/6 322/3/6 324/3/6
f 321/3/6 323/3/6 325/3/6
f 324/3/6 322/3/6 326/3/6
f 321/3/6 325/3/6 327/3/6
f 325/3/6 326/3/6 327/3/6
f 326/3/6 322/3/6 328/3/6
f 327/3/6 326/3/6 328/3/6
f 329/3/6 330/3/6 331/3/6
f 331/3/6 330/3/6 332/3/6
f 329/3/6 331/3/6 333/3/6
f 332/3/6 330/3/6 334/3/6
f 329/3/6 333/3/6 335/3/6
f 333/3/6 334/3/6 335/3/6
f 334/3/6 330/3/6 336/3/6
f 335/3/6 334/3/6 336/3/6
f 337/1/6 338/1/6 339/1/6
f 339/1/6 338/1/6 340/1/6
f 337/1/6 339/1/6 341/1/6
f 340/1/6 338/1/6 342/1/6
f 337/1/6 341/1/6 343/1/6
f 341/1/6 342/1/6 343/1/6
f 342/1/6 338/1/6 344/1/6
f 343/1/6 342/1/6 344/1/6
f 345/5/6 346/5/6 347/5/6
f 347/5/6 346/5/6 348/5/6
