# MagicaVoxel @ Ephtracy

# group
o 

# material
mtllib Teste_Torre_Def_-2.mtl
usemtl palette

# normals
vn -1 0 0
vn 1 0 0
vn 0 0 1
vn 0 0 -1
vn 0 -1 0
vn 0 1 0

# texcoords
vt 0.474609 0.5
vt 0.482422 0.5
vt 0.501953 0.5

# verts
v -1.3 -0.1 0.2
v -1.3 -0.1 -0.2
v -1.3 0 0.1
v -1.3 0 -0.1
v -1.3 0.2 0.1
v -1.3 0.2 -0.1
v -1.3 0.3 0.2
v -1.3 0.3 -0.2
v -0.9 0.7 0.6
v -0.9 0.7 0.2
v -0.9 0.7 -0.2
v -0.9 0.7 -0.6
v -0.9 0.8 0.6
v -0.9 0.8 0.2
v -0.9 0.8 -0.2
v -0.9 0.8 -0.6
v -0.8 -0.4 0.8
v -0.8 -0.4 -0.8
v -0.8 -0.1 0.2
v -0.8 -0.1 -0.2
v -0.8 0 0.1
v -0.8 0 -0.1
v -0.8 0.2 0.1
v -0.8 0.2 -0.1
v -0.8 0.3 0.2
v -0.8 0.3 -0.2
v -0.8 0.4 0.5
v -0.8 0.4 0.3
v -0.8 0.4 -0.3
v -0.8 0.4 -0.5
v -0.8 0.7 0.6
v -0.8 0.7 0.5
v -0.8 0.7 0.3
v -0.8 0.7 0.2
v -0.8 0.7 -0.2
v -0.8 0.7 -0.3
v -0.8 0.7 -0.5
v -0.8 0.7 -0.6
v -0.8 0.8 0.6
v -0.8 0.8 0.2
v -0.8 0.8 -0.2
v -0.8 0.8 -0.6
v -0.8 1.2 0.8
v -0.8 1.2 -0.8
v -0.2 -1.5 0.5
v -0.2 -1.5 0.3
v -0.2 -1.5 -0.3
v -0.2 -1.5 -0.5
v -0.2 -1.4 0.5
v -0.2 -1.4 0.3
v -0.2 -1.4 -0.3
v -0.2 -1.4 -0.5
v -0.0999999 -1.4 0.5
v -0.0999999 -1.4 0.3
v -0.0999999 -1.4 -0.3
v -0.0999999 -1.4 -0.5
v -0.0999999 -0.4 0.5
v -0.0999999 -0.4 0.3
v -0.0999999 -0.4 -0.3
v -0.0999999 -0.4 -0.5
v 0.1 -1.5 0.5
v 0.1 -1.5 0.3
v 0.1 -1.5 -0.3
v 0.1 -1.5 -0.5
v 0.1 -0.4 0.5
v 0.1 -0.4 0.3
v 0.1 -0.4 -0.3
v 0.1 -0.4 -0.5
v 0.8 -0.4 0.8
v 0.8 -0.4 -0.8
v 0.8 1.2 0.8
v 0.8 1.2 -0.8
v -0.8 -0.4 0.8
v -0.8 1.2 0.8
v 0.8 -0.4 0.8
v 0.8 1.2 0.8
v -0.9 0.7 0.6
v -0.9 0.8 0.6
v -0.8 0.7 0.6
v -0.8 0.8 0.6
v -0.2 -1.5 0.5
v -0.2 -1.4 0.5
v -0.0999999 -1.4 0.5
v -0.0999999 -0.4 0.5
v 0.1 -1.5 0.5
v 0.1 -0.4 0.5
v -1.3 -0.1 0.2
v -1.3 0.3 0.2
v -0.8 -0.1 0.2
v -0.8 0.3 0.2
v -1.3 0 -0.1
v -1.3 0.2 -0.1
v -0.8 0 -0.1
v -0.8 0.2 -0.1
v -0.9 0.7 -0.2
v -0.9 0.8 -0.2
v -0.8 0.7 -0.2
v -0.8 0.8 -0.2
v -0.2 -1.5 -0.3
v -0.2 -1.4 -0.3
v -0.0999999 -1.4 -0.3
v -0.0999999 -0.4 -0.3
v 0.1 -1.5 -0.3
v 0.1 -0.4 -0.3
v -0.2 -1.5 0.3
v -0.2 -1.4 0.3
v -0.0999999 -1.4 0.3
v -0.0999999 -0.4 0.3
v 0.1 -1.5 0.3
v 0.1 -0.4 0.3
v -0.9 0.7 0.2
v -0.9 0.8 0.2
v -0.8 0.7 0.2
v -0.8 0.8 0.2
v -1.3 0 0.1
v -1.3 0.2 0.1
v -0.8 0 0.1
v -0.8 0.2 0.1
v -1.3 -0.1 -0.2
v -1.3 0.3 -0.2
v -0.8 -0.1 -0.2
v -0.8 0.3 -0.2
v -0.2 -1.5 -0.5
v -0.2 -1.4 -0.5
v -0.0999999 -1.4 -0.5
v -0.0999999 -0.4 -0.5
v 0.1 -1.5 -0.5
v 0.1 -0.4 -0.5
v -0.9 0.7 -0.6
v -0.9 0.8 -0.6
v -0.8 0.7 -0.6
v -0.8 0.8 -0.6
v -0.8 -0.4 -0.8
v -0.8 1.2 -0.8
v 0.8 -0.4 -0.8
v 0.8 1.2 -0.8
v -0.2 -1.5 0.5
v 0.1 -1.5 0.5
v -0.2 -1.5 0.3
v 0.1 -1.5 0.3
v -0.2 -1.5 -0.3
v 0.1 -1.5 -0.3
v -0.2 -1.5 -0.5
v 0.1 -1.5 -0.5
v -0.8 -0.4 0.8
v 0.8 -0.4 0.8
v -0.0999999 -0.4 0.5
v 0.1 -0.4 0.5
v -0.0999999 -0.4 0.3
v 0.1 -0.4 0.3
v -0.0999999 -0.4 -0.3
v 0.1 -0.4 -0.3
v -0.0999999 -0.4 -0.5
v 0.1 -0.4 -0.5
v -0.8 -0.4 -0.8
v 0.8 -0.4 -0.8
v -1.3 -0.1 0.2
v -0.8 -0.1 0.2
v -1.3 -0.1 -0.2
v -0.8 -0.1 -0.2
v -1.3 0.2 0.1
v -0.8 0.2 0.1
v -1.3 0.2 -0.1
v -0.8 0.2 -0.1
v -0.9 0.7 0.6
v -0.8 0.7 0.6
v -0.8 0.7 0.5
v -0.8 0.7 0.3
v -0.9 0.7 0.2
v -0.8 0.7 0.2
v -0.9 0.7 -0.2
v -0.8 0.7 -0.2
v -0.8 0.7 -0.3
v -0.8 0.7 -0.5
v -0.9 0.7 -0.6
v -0.8 0.7 -0.6
v -0.2 -1.4 0.5
v -0.0999999 -1.4 0.5
v -0.2 -1.4 0.3
v -0.0999999 -1.4 0.3
v -0.2 -1.4 -0.3
v -0.0999999 -1.4 -0.3
v -0.2 -1.4 -0.5
v -0.0999999 -1.4 -0.5
v -1.3 0 0.1
v -0.8 0 0.1
v -1.3 0 -0.1
v -0.8 0 -0.1
v -1.3 0.3 0.2
v -0.8 0.3 0.2
v -1.3 0.3 -0.2
v -0.8 0.3 -0.2
v -0.9 0.8 0.6
v -0.8 0.8 0.6
v -0.9 0.8 0.2
v -0.8 0.8 0.2
v -0.9 0.8 -0.2
v -0.8 0.8 -0.2
v -0.9 0.8 -0.6
v -0.8 0.8 -0.6
v -0.8 1.2 0.8
v 0.8 1.2 0.8
v -0.8 1.2 -0.8
v 0.8 1.2 -0.8

# faces
f 3/3/1 2/3/1 1/3/1
f 4/3/1 2/3/1 3/3/1
f 5/3/1 3/3/1 1/3/1
f 6/3/1 2/3/1 4/3/1
f 7/3/1 5/3/1 1/3/1
f 7/3/1 6/3/1 5/3/1
f 8/3/1 2/3/1 6/3/1
f 8/3/1 6/3/1 7/3/1
f 13/1/1 10/1/1 9/1/1
f 14/1/1 10/1/1 13/1/1
f 15/1/1 12/1/1 11/1/1
f 16/1/1 12/1/1 15/1/1
f 19/3/1 18/3/1 17/3/1
f 20/3/1 18/3/1 19/3/1
f 23/3/1 22/3/1 21/3/1
f 24/3/1 22/3/1 23/3/1
f 25/3/1 19/3/1 17/3/1
f 26/3/1 18/3/1 20/3/1
f 27/3/1 25/3/1 17/3/1
f 27/3/1 26/3/1 25/3/1
f 28/3/1 26/3/1 27/3/1
f 29/3/1 18/3/1 26/3/1
f 29/3/1 26/3/1 28/3/1
f 30/3/1 18/3/1 29/3/1
f 31/3/1 27/3/1 17/3/1
f 32/2/1 28/2/1 27/2/1
f 32/3/1 27/3/1 31/3/1
f 33/3/1 29/3/1 28/3/1
f 33/2/1 28/2/1 32/2/1
f 34/3/1 29/3/1 33/3/1
f 35/3/1 29/3/1 34/3/1
f 36/2/1 30/2/1 29/2/1
f 36/3/1 29/3/1 35/3/1
f 37/3/1 18/3/1 30/3/1
f 37/2/1 30/2/1 36/2/1
f 38/3/1 18/3/1 37/3/1
f 39/3/1 31/3/1 17/3/1
f 40/3/1 35/3/1 34/3/1
f 41/3/1 35/3/1 40/3/1
f 42/3/1 18/3/1 38/3/1
f 43/3/1 41/3/1 40/3/1
f 43/3/1 42/3/1 41/3/1
f 43/3/1 39/3/1 17/3/1
f 43/3/1 40/3/1 39/3/1
f 44/3/1 18/3/1 42/3/1
f 44/3/1 42/3/1 43/3/1
f 49/1/1 46/1/1 45/1/1
f 50/1/1 46/1/1 49/1/1
f 51/1/1 48/1/1 47/1/1
f 52/1/1 48/1/1 51/1/1
f 57/1/1 54/1/1 53/1/1
f 58/1/1 54/1/1 57/1/1
f 59/1/1 56/1/1 55/1/1
f 60/1/1 56/1/1 59/1/1
f 61/1/2 62/1/2 65/1/2
f 65/1/2 62/1/2 66/1/2
f 63/1/2 64/1/2 67/1/2
f 67/1/2 64/1/2 68/1/2
f 69/3/2 70/3/2 71/3/2
f 71/3/2 70/3/2 72/3/2
f 75/3/3 74/3/3 73/3/3
f 76/3/3 74/3/3 75/3/3
f 79/1/3 78/1/3 77/1/3
f 80/1/3 78/1/3 79/1/3
f 83/1/3 82/1/3 81/1/3
f 85/1/3 83/1/3 81/1/3
f 85/1/3 84/1/3 83/1/3
f 86/1/3 84/1/3 85/1/3
f 89/3/3 88/3/3 87/3/3
f 90/3/3 88/3/3 89/3/3
f 93/3/3 92/3/3 91/3/3
f 94/3/3 92/3/3 93/3/3
f 97/1/3 96/1/3 95/1/3
f 98/1/3 96/1/3 97/1/3
f 101/1/3 100/1/3 99/1/3
f 103/1/3 101/1/3 99/1/3
f 103/1/3 102/1/3 101/1/3
f 104/1/3 102/1/3 103/1/3
f 105/1/4 106/1/4 107/1/4
f 105/1/4 107/1/4 109/1/4
f 107/1/4 108/1/4 109/1/4
f 109/1/4 108/1/4 110/1/4
f 111/1/4 112/1/4 113/1/4
f 113/1/4 112/1/4 114/1/4
f 115/3/4 116/3/4 117/3/4
f 117/3/4 116/3/4 118/3/4
f 119/3/4 120/3/4 121/3/4
f 121/3/4 120/3/4 122/3/4
f 123/1/4 124/1/4 125/1/4
f 123/1/4 125/1/4 127/1/4
f 125/1/4 126/1/4 127/1/4
f 127/1/4 126/1/4 128/1/4
f 129/1/4 130/1/4 131/1/4
f 131/1/4 130/1/4 132/1/4
f 133/3/4 134/3/4 135/3/4
f 135/3/4 134/3/4 136/3/4
f 139/1/5 138/1/5 137/1/5
f 140/1/5 138/1/5 139/1/5
f 143/1/5 142/1/5 141/1/5
f 144/1/5 142/1/5 143/1/5
f 147/3/5 146/3/5 145/3/5
f 148/3/5 146/3/5 147/3/5
f 149/3/5 147/3/5 145/3/5
f 150/3/5 146/3/5 148/3/5
f 151/3/5 149/3/5 145/3/5
f 151/3/5 150/3/5 149/3/5
f 152/3/5 146/3/5 150/3/5
f 152/3/5 150/3/5 151/3/5
f 153/3/5 151/3/5 145/3/5
f 154/3/5 146/3/5 152/3/5
f 155/3/5 153/3/5 145/3/5
f 155/3/5 154/3/5 153/3/5
f 156/3/5 146/3/5 154/3/5
f 156/3/5 154/3/5 155/3/5
f 159/3/5 158/3/5 157/3/5
f 160/3/5 158/3/5 159/3/5
f 163/3/5 162/3/5 161/3/5
f 164/3/5 162/3/5 163/3/5
f 167/1/5 166/1/5 165/1/5
f 168/1/5 167/1/5 165/1/5
f 169/1/5 168/1/5 165/1/5
f 170/1/5 168/1/5 169/1/5
f 173/1/5 172/1/5 171/1/5
f 174/1/5 173/1/5 171/1/5
f 175/1/5 174/1/5 171/1/5
f 176/1/5 174/1/5 175/1/5
f 177/1/6 178/1/6 179/1/6
f 179/1/6 178/1/6 180/1/6
f 181/1/6 182/1/6 183/1/6
f 183/1/6 182/1/6 184/1/6
f 185/3/6 186/3/6 187/3/6
f 187/3/6 186/3/6 188/3/6
f 189/3/6 190/3/6 191/3/6
f 191/3/6 190/3/6 192/3/6
f 193/1/6 194/1/6 195/1/6
f 195/1/6 194/1/6 196/1/6
f 197/1/6 198/1/6 199/1/6
f 199/1/6 198/1/6 200/1/6
f 201/3/6 202/3/6 203/3/6
f 203/3/6 202/3/6 204/3/6
