# MagicaVoxel @ Ephtracy

# group
o 

# material
mtllib Torre_Bomber-0.mtl
usemtl palette

# normals
vn -1 0 0
vn 1 0 0
vn 0 0 1
vn 0 0 -1
vn 0 -1 0
vn 0 1 0

# texcoords
vt 0.357422 0.5
vt 0.380859 0.5
vt 0.607422 0.5
vt 0.693359 0.5
vt 0.994141 0.5

# verts
v -0.55 -0.05 0.15
v -0.55 -0.05 -0.15
v -0.55 0.05 0.05
v -0.55 0.05 -0.05
v -0.55 0.15 0.05
v -0.55 0.15 -0.05
v -0.55 0.25 0.15
v -0.55 0.25 -0.15
v -0.45 0.25 0.05
v -0.45 0.25 -0.05
v -0.45 0.35 0.05
v -0.45 0.35 -0.05
v -0.15 -0.55 0.25
v -0.15 -0.55 -0.25
v -0.15 -0.35 0.25
v -0.15 -0.35 0.15
v -0.15 -0.35 -0.15
v -0.15 -0.35 -0.25
v -0.15 -0.25 0.25
v -0.15 -0.25 0.15
v -0.15 -0.25 -0.15
v -0.15 -0.25 -0.25
v -0.15 -0.05 0.25
v -0.15 -0.05 0.15
v -0.15 -0.05 -0.15
v -0.15 -0.05 -0.25
v -0.05 -1.05 0.05
v -0.05 -1.05 -0.05
v -0.05 -0.95 0.15
v -0.05 -0.95 0.05
v -0.05 -0.95 -0.05
v -0.05 -0.95 -0.15
v -0.05 -0.85 0.15
v -0.05 -0.85 -0.15
v -0.05 -0.55 0.15
v -0.05 -0.55 -0.15
v 0.05 -1.25 0.15
v 0.05 -1.25 0.05
v 0.05 -1.25 -0.05
v 0.05 -1.25 -0.15
v 0.05 -1.05 0.05
v 0.05 -1.05 -0.05
v 0.05 -0.95 0.15
v 0.05 -0.95 0.05
v 0.05 -0.95 -0.05
v 0.05 -0.95 -0.15
v 0.05 -0.65 0.25
v 0.05 -0.65 0.15
v 0.05 -0.65 -0.15
v 0.05 -0.65 -0.25
v 0.05 -0.55 0.35
v 0.05 -0.55 0.25
v 0.05 -0.55 0.15
v 0.05 -0.55 -0.15
v 0.05 -0.55 -0.25
v 0.05 -0.55 -0.35
v 0.05 -0.45 0.45
v 0.05 -0.45 0.35
v 0.05 -0.45 0.25
v 0.05 -0.45 -0.25
v 0.05 -0.45 -0.35
v 0.05 -0.45 -0.45
v 0.05 -0.35 0.45
v 0.05 -0.35 0.35
v 0.05 -0.35 -0.35
v 0.05 -0.35 -0.45
v 0.45 -0.15 0.15
v 0.45 -0.15 -0.15
v 0.45 -0.05 0.25
v 0.45 -0.05 0.15
v 0.45 -0.05 -0.15
v 0.45 -0.05 -0.25
v 0.45 0.05 0.05
v 0.45 0.05 -0.05
v 0.45 0.15 0.05
v 0.45 0.15 -0.05
v 0.45 0.25 0.25
v 0.45 0.25 0.15
v 0.45 0.25 -0.15
v 0.45 0.25 -0.25
v 0.45 0.35 0.15
v 0.45 0.35 -0.15
v -0.35 0.25 0.05
v -0.35 0.25 -0.05
v -0.35 0.35 0.05
v -0.35 0.35 -0.05
v 0.15 -1.25 0.15
v 0.15 -1.25 0.05
v 0.15 -1.25 -0.05
v 0.15 -1.25 -0.15
v 0.15 -1.05 0.15
v 0.15 -1.05 0.05
v 0.15 -1.05 -0.05
v 0.15 -1.05 -0.15
v 0.15 -0.65 0.25
v 0.15 -0.65 0.15
v 0.15 -0.65 -0.15
v 0.15 -0.65 -0.25
v 0.15 -0.55 0.35
v 0.15 -0.55 0.25
v 0.15 -0.55 0.15
v 0.15 -0.55 -0.15
v 0.15 -0.55 -0.25
v 0.15 -0.55 -0.35
v 0.15 -0.45 0.45
v 0.15 -0.45 0.35
v 0.15 -0.45 0.25
v 0.15 -0.45 -0.25
v 0.15 -0.45 -0.35
v 0.15 -0.45 -0.45
v 0.15 -0.35 0.45
v 0.15 -0.35 0.35
v 0.15 -0.35 -0.35
v 0.15 -0.35 -0.45
v 0.25 -1.05 0.15
v 0.25 -1.05 -0.15
v 0.25 -0.85 0.15
v 0.25 -0.85 -0.15
v 0.25 -0.55 0.15
v 0.25 -0.55 -0.15
v 0.35 -0.55 0.25
v 0.35 -0.55 -0.25
v 0.35 -0.05 0.25
v 0.35 -0.05 0.15
v 0.35 -0.05 -0.15
v 0.35 -0.05 -0.25
v 0.75 -0.15 0.15
v 0.75 -0.15 -0.15
v 0.75 -0.05 0.25
v 0.75 -0.05 0.15
v 0.75 -0.05 -0.15
v 0.75 -0.05 -0.25
v 0.75 0.25 0.25
v 0.75 0.25 0.15
v 0.75 0.25 -0.15
v 0.75 0.25 -0.25
v 0.75 0.35 0.15
v 0.75 0.35 -0.15
v 0.05 -0.45 0.45
v 0.05 -0.35 0.45
v 0.15 -0.45 0.45
v 0.15 -0.35 0.45
v 0.05 -0.55 0.35
v 0.05 -0.45 0.35
v 0.15 -0.55 0.35
v 0.15 -0.45 0.35
v -0.15 -0.55 0.25
v -0.15 -0.35 0.25
v -0.15 -0.25 0.25
v -0.15 -0.05 0.25
v -0.05 -0.35 0.25
v -0.05 -0.25 0.25
v 0.05 -0.65 0.25
v 0.05 -0.55 0.25
v 0.05 -0.45 0.25
v 0.15 -0.65 0.25
v 0.15 -0.55 0.25
v 0.15 -0.45 0.25
v 0.35 -0.55 0.25
v 0.35 -0.05 0.25
v 0.45 -0.05 0.25
v 0.45 0.25 0.25
v 0.75 -0.05 0.25
v 0.75 0.25 0.25
v -0.55 -0.05 0.15
v -0.55 0.25 0.15
v -0.15 -0.05 0.15
v -0.05 -0.95 0.15
v -0.05 -0.85 0.15
v -0.05 -0.55 0.15
v 0.05 -1.25 0.15
v 0.05 -0.95 0.15
v 0.05 -0.65 0.15
v 0.05 -0.55 0.15
v 0.15 -1.25 0.15
v 0.15 -1.05 0.15
v 0.15 -0.95 0.15
v 0.15 -0.65 0.15
v 0.15 -0.55 0.15
v 0.25 -1.05 0.15
v 0.25 -0.85 0.15
v 0.25 -0.55 0.15
v 0.35 -0.05 0.15
v 0.45 -0.15 0.15
v 0.45 -0.05 0.15
v 0.45 0.25 0.15
v 0.45 0.35 0.15
v 0.75 -0.15 0.15
v 0.75 -0.05 0.15
v 0.75 0.25 0.15
v 0.75 0.35 0.15
v -0.45 0.25 0.05
v -0.45 0.35 0.05
v -0.35 0.25 0.05
v -0.35 0.35 0.05
v -0.05 -1.05 0.05
v -0.05 -0.95 0.05
v 0.05 -1.05 0.05
v 0.05 -0.95 0.05
v -0.55 0.05 -0.05
v -0.55 0.15 -0.05
v 0.05 -1.25 -0.05
v 0.05 -1.05 -0.05
v 0.15 -1.25 -0.05
v 0.15 -1.05 -0.05
v 0.45 0.05 -0.05
v 0.45 0.15 -0.05
v 0.05 -0.45 -0.35
v 0.05 -0.35 -0.35
v 0.15 -0.45 -0.35
v 0.15 -0.35 -0.35
v 0.05 -0.45 0.35
v 0.05 -0.35 0.35
v 0.15 -0.45 0.35
v 0.15 -0.35 0.35
v -0.55 0.05 0.05
v -0.55 0.15 0.05
v 0.05 -1.25 0.05
v 0.05 -1.05 0.05
v 0.15 -1.25 0.05
v 0.15 -1.05 0.05
v 0.45 0.05 0.05
v 0.45 0.15 0.05
v -0.45 0.25 -0.05
v -0.45 0.35 -0.05
v -0.35 0.25 -0.05
v -0.35 0.35 -0.05
v -0.05 -1.05 -0.05
v -0.05 -0.95 -0.05
v 0.05 -1.05 -0.05
v 0.05 -0.95 -0.05
v -0.55 -0.05 -0.15
v -0.55 0.25 -0.15
v -0.15 -0.05 -0.15
v -0.05 -0.95 -0.15
v -0.05 -0.85 -0.15
v -0.05 -0.55 -0.15
v 0.05 -1.25 -0.15
v 0.05 -0.95 -0.15
v 0.05 -0.65 -0.15
v 0.05 -0.55 -0.15
v 0.15 -1.25 -0.15
v 0.15 -1.05 -0.15
v 0.15 -0.95 -0.15
v 0.15 -0.65 -0.15
v 0.15 -0.55 -0.15
v 0.25 -1.05 -0.15
v 0.25 -0.85 -0.15
v 0.25 -0.55 -0.15
v 0.35 -0.05 -0.15
v 0.45 -0.15 -0.15
v 0.45 -0.05 -0.15
v 0.45 0.25 -0.15
v 0.45 0.35 -0.15
v 0.75 -0.15 -0.15
v 0.75 -0.05 -0.15
v 0.75 0.25 -0.15
v 0.75 0.35 -0.15
v -0.15 -0.55 -0.25
v -0.15 -0.35 -0.25
v -0.15 -0.25 -0.25
v -0.15 -0.05 -0.25
v -0.05 -0.35 -0.25
v -0.05 -0.25 -0.25
v 0.05 -0.65 -0.25
v 0.05 -0.55 -0.25
v 0.05 -0.45 -0.25
v 0.15 -0.65 -0.25
v 0.15 -0.55 -0.25
v 0.15 -0.45 -0.25
v 0.35 -0.55 -0.25
v 0.35 -0.05 -0.25
v 0.45 -0.05 -0.25
v 0.45 0.25 -0.25
v 0.75 -0.05 -0.25
v 0.75 0.25 -0.25
v 0.05 -0.55 -0.35
v 0.05 -0.45 -0.35
v 0.15 -0.55 -0.35
v 0.15 -0.45 -0.35
v 0.05 -0.45 -0.45
v 0.05 -0.35 -0.45
v 0.15 -0.45 -0.45
v 0.15 -0.35 -0.45
v 0.05 -1.25 0.15
v 0.15 -1.25 0.15
v 0.05 -1.25 0.05
v 0.15 -1.25 0.05
v 0.05 -1.25 -0.05
v 0.15 -1.25 -0.05
v 0.05 -1.25 -0.15
v 0.15 -1.25 -0.15
v 0.15 -1.05 0.15
v 0.25 -1.05 0.15
v -0.05 -1.05 0.05
v 0.05 -1.05 0.05
v 0.15 -1.05 0.05
v -0.05 -1.05 -0.05
v 0.05 -1.05 -0.05
v 0.15 -1.05 -0.05
v 0.15 -1.05 -0.15
v 0.25 -1.05 -0.15
v -0.05 -0.95 0.15
v 0.05 -0.95 0.15
v -0.05 -0.95 0.05
v 0.05 -0.95 0.05
v -0.05 -0.95 -0.05
v 0.05 -0.95 -0.05
v -0.05 -0.95 -0.15
v 0.05 -0.95 -0.15
v 0.05 -0.65 0.25
v 0.15 -0.65 0.25
v 0.05 -0.65 0.15
v 0.15 -0.65 0.15
v 0.05 -0.65 -0.15
v 0.15 -0.65 -0.15
v 0.05 -0.65 -0.25
v 0.15 -0.65 -0.25
v 0.05 -0.55 0.35
v 0.15 -0.55 0.35
v -0.15 -0.55 0.25
v 0.05 -0.55 0.25
v 0.15 -0.55 0.25
v 0.35 -0.55 0.25
v -0.05 -0.55 0.15
v 0.05 -0.55 0.15
v 0.15 -0.55 0.15
v 0.25 -0.55 0.15
v -0.05 -0.55 -0.15
v 0.05 -0.55 -0.15
v 0.15 -0.55 -0.15
v 0.25 -0.55 -0.15
v -0.15 -0.55 -0.25
v 0.05 -0.55 -0.25
v 0.15 -0.55 -0.25
v 0.35 -0.55 -0.25
v 0.05 -0.55 -0.35
v 0.15 -0.55 -0.35
v 0.05 -0.45 0.45
v 0.15 -0.45 0.45
v 0.05 -0.45 0.35
v 0.15 -0.45 0.35
v 0.05 -0.45 -0.35
v 0.15 -0.45 -0.35
v 0.05 -0.45 -0.45
v 0.15 -0.45 -0.45
v 0.45 -0.15 0.15
v 0.75 -0.15 0.15
v 0.45 -0.15 -0.15
v 0.75 -0.15 -0.15
v 0.45 -0.05 0.25
v 0.75 -0.05 0.25
v -0.55 -0.05 0.15
v -0.15 -0.05 0.15
v 0.35 -0.05 0.15
v 0.45 -0.05 0.15
v 0.75 -0.05 0.15
v -0.55 -0.05 -0.15
v -0.15 -0.05 -0.15
v 0.35 -0.05 -0.15
v 0.45 -0.05 -0.15
v 0.75 -0.05 -0.15
v 0.45 -0.05 -0.25
v 0.75 -0.05 -0.25
v -0.55 0.15 0.05
v 0.45 0.15 0.05
v -0.55 0.15 -0.05
v 0.45 0.15 -0.05
v 0.05 -0.45 0.35
v 0.15 -0.45 0.35
v 0.05 -0.45 0.25
v 0.15 -0.45 0.25
v 0.05 -0.45 -0.25
v 0.15 -0.45 -0.25
v 0.05 -0.45 -0.35
v 0.15 -0.45 -0.35
v 0.05 -0.35 0.45
v 0.15 -0.35 0.45
v 0.05 -0.35 0.35
v 0.15 -0.35 0.35
v 0.05 -0.35 -0.35
v 0.15 -0.35 -0.35
v 0.05 -0.35 -0.45
v 0.15 -0.35 -0.45
v -0.15 -0.05 0.25
v 0.35 -0.05 0.25
v -0.15 -0.05 0.15
v 0.35 -0.05 0.15
v -0.15 -0.05 -0.15
v 0.35 -0.05 -0.15
v -0.15 -0.05 -0.25
v 0.35 -0.05 -0.25
v -0.55 0.05 0.05
v 0.45 0.05 0.05
v -0.55 0.05 -0.05
v 0.45 0.05 -0.05
v 0.45 0.25 0.25
v 0.75 0.25 0.25
v -0.55 0.25 0.15
v 0.45 0.25 0.15
v 0.75 0.25 0.15
v -0.45 0.25 0.05
v -0.35 0.25 0.05
v -0.45 0.25 -0.05
v -0.35 0.25 -0.05
v -0.55 0.25 -0.15
v 0.45 0.25 -0.15
v 0.75 0.25 -0.15
v 0.45 0.25 -0.25
v 0.75 0.25 -0.25
v 0.45 0.35 0.15
v 0.75 0.35 0.15
v -0.45 0.35 0.05
v -0.35 0.35 0.05
v -0.45 0.35 -0.05
v -0.35 0.35 -0.05
v 0.45 0.35 -0.15
v 0.75 0.35 -0.15

# faces
f 3/3/1 2/3/1 1/3/1
f 4/3/1 2/3/1 3/3/1
f 5/3/1 3/3/1 1/3/1
f 6/3/1 2/3/1 4/3/1
f 7/3/1 5/3/1 1/3/1
f 7/3/1 6/3/1 5/3/1
f 8/3/1 2/3/1 6/3/1
f 8/3/1 6/3/1 7/3/1
f 11/3/1 10/3/1 9/3/1
f 12/3/1 10/3/1 11/3/1
f 15/1/1 14/1/1 13/1/1
f 16/1/1 14/1/1 15/1/1
f 17/1/1 14/1/1 16/1/1
f 18/1/1 14/1/1 17/1/1
f 19/5/1 16/5/1 15/5/1
f 20/1/1 17/1/1 16/1/1
f 20/5/1 16/5/1 19/5/1
f 21/5/1 18/5/1 17/5/1
f 21/1/1 17/1/1 20/1/1
f 22/5/1 18/5/1 21/5/1
f 23/1/1 20/1/1 19/1/1
f 23/1/1 21/1/1 20/1/1
f 23/1/1 22/1/1 21/1/1
f 24/1/1 22/1/1 23/1/1
f 25/1/1 22/1/1 24/1/1
f 26/1/1 22/1/1 25/1/1
f 30/2/1 28/2/1 27/2/1
f 31/2/1 28/2/1 30/2/1
f 33/2/1 30/2/1 29/2/1
f 33/2/1 32/2/1 31/2/1
f 33/2/1 31/2/1 30/2/1
f 34/2/1 32/2/1 33/2/1
f 35/1/1 34/1/1 33/1/1
f 36/1/1 34/1/1 35/1/1
f 41/1/1 38/1/1 37/1/1
f 42/1/1 40/1/1 39/1/1
f 43/1/1 41/1/1 37/1/1
f 44/1/1 41/1/1 43/1/1
f 45/1/1 40/1/1 42/1/1
f 46/1/1 40/1/1 45/1/1
f 52/1/1 48/1/1 47/1/1
f 53/1/1 48/1/1 52/1/1
f 54/1/1 50/1/1 49/1/1
f 55/1/1 50/1/1 54/1/1
f 58/1/1 52/1/1 51/1/1
f 59/1/1 52/1/1 58/1/1
f 60/1/1 56/1/1 55/1/1
f 61/1/1 56/1/1 60/1/1
f 63/1/1 58/1/1 57/1/1
f 64/1/1 58/1/1 63/1/1
f 65/1/1 62/1/1 61/1/1
f 66/1/1 62/1/1 65/1/1
f 70/4/1 68/4/1 67/4/1
f 71/4/1 68/4/1 70/4/1
f 75/3/1 74/3/1 73/3/1
f 76/3/1 74/3/1 75/3/1
f 77/4/1 70/4/1 69/4/1
f 78/4/1 70/4/1 77/4/1
f 79/4/1 72/4/1 71/4/1
f 80/4/1 72/4/1 79/4/1
f 81/4/1 79/4/1 78/4/1
f 82/4/1 79/4/1 81/4/1
f 83/3/2 84/3/2 85/3/2
f 85/3/2 84/3/2 86/3/2
f 87/1/2 88/1/2 91/1/2
f 91/1/2 88/1/2 92/1/2
f 89/1/2 90/1/2 93/1/2
f 93/1/2 90/1/2 94/1/2
f 95/1/2 96/1/2 100/1/2
f 100/1/2 96/1/2 101/1/2
f 97/1/2 98/1/2 102/1/2
f 102/1/2 98/1/2 103/1/2
f 99/1/2 100/1/2 106/1/2
f 106/1/2 100/1/2 107/1/2
f 103/1/2 104/1/2 108/1/2
f 108/1/2 104/1/2 109/1/2
f 105/1/2 106/1/2 111/1/2
f 111/1/2 106/1/2 112/1/2
f 109/1/2 110/1/2 113/1/2
f 113/1/2 110/1/2 114/1/2
f 115/2/2 116/2/2 117/2/2
f 117/2/2 116/2/2 118/2/2
f 117/1/2 118/1/2 119/1/2
f 119/1/2 118/1/2 120/1/2
f 121/1/2 122/1/2 123/1/2
f 123/1/2 122/1/2 124/1/2
f 124/1/2 122/1/2 125/1/2
f 125/1/2 122/1/2 126/1/2
f 127/4/2 128/4/2 130/4/2
f 130/4/2 128/4/2 131/4/2
f 129/4/2 130/4/2 133/4/2
f 131/4/2 132/4/2 133/4/2
f 130/4/2 131/4/2 133/4/2
f 133/4/2 132/4/2 134/4/2
f 134/4/2 132/4/2 135/4/2
f 135/4/2 132/4/2 136/4/2
f 134/4/2 135/4/2 137/4/2
f 137/4/2 135/4/2 138/4/2
f 141/1/3 140/1/3 139/1/3
f 142/1/3 140/1/3 141/1/3
f 145/1/3 144/1/3 143/1/3
f 146/1/3 144/1/3 145/1/3
f 151/1/3 148/1/3 147/1/3
f 151/5/3 149/5/3 148/5/3
f 152/1/3 150/1/3 149/1/3
f 152/5/3 149/5/3 151/5/3
f 154/1/3 151/1/3 147/1/3
f 154/1/3 152/1/3 151/1/3
f 155/1/3 152/1/3 154/1/3
f 156/1/3 154/1/3 153/1/3
f 157/1/3 154/1/3 156/1/3
f 158/1/3 152/1/3 155/1/3
f 159/1/3 158/1/3 157/1/3
f 160/1/3 150/1/3 152/1/3
f 160/1/3 158/1/3 159/1/3
f 160/1/3 152/1/3 158/1/3
f 163/4/3 162/4/3 161/4/3
f 164/4/3 162/4/3 163/4/3
f 167/3/3 166/3/3 165/3/3
f 172/2/3 169/2/3 168/2/3
f 173/1/3 170/1/3 169/1/3
f 174/1/3 170/1/3 173/1/3
f 175/1/3 172/1/3 171/1/3
f 176/1/3 172/1/3 175/1/3
f 177/2/3 169/2/3 172/2/3
f 177/1/3 172/1/3 176/1/3
f 178/1/3 173/1/3 169/1/3
f 180/2/3 177/2/3 176/2/3
f 181/1/3 179/1/3 178/1/3
f 181/2/3 177/2/3 180/2/3
f 181/2/3 169/2/3 177/2/3
f 181/1/3 178/1/3 169/1/3
f 182/1/3 179/1/3 181/1/3
f 183/3/3 166/3/3 167/3/3
f 185/3/3 166/3/3 183/3/3
f 186/3/3 166/3/3 185/3/3
f 188/4/3 185/4/3 184/4/3
f 189/4/3 185/4/3 188/4/3
f 190/4/3 187/4/3 186/4/3
f 191/4/3 187/4/3 190/4/3
f 194/3/3 193/3/3 192/3/3
f 195/3/3 193/3/3 194/3/3
f 198/2/3 197/2/3 196/2/3
f 199/2/3 197/2/3 198/2/3
f 204/1/3 203/1/3 202/1/3
f 205/1/3 203/1/3 204/1/3
f 206/3/3 201/3/3 200/3/3
f 207/3/3 201/3/3 206/3/3
f 210/1/3 209/1/3 208/1/3
f 211/1/3 209/1/3 210/1/3
f 212/1/4 213/1/4 214/1/4
f 214/1/4 213/1/4 215/1/4
f 218/1/4 219/1/4 220/1/4
f 220/1/4 219/1/4 221/1/4
f 216/3/4 217/3/4 222/3/4
f 222/3/4 217/3/4 223/3/4
f 224/3/4 225/3/4 226/3/4
f 226/3/4 225/3/4 227/3/4
f 228/2/4 229/2/4 230/2/4
f 230/2/4 229/2/4 231/2/4
f 232/3/4 233/3/4 234/3/4
f 235/2/4 236/2/4 239/2/4
f 236/1/4 237/1/4 240/1/4
f 240/1/4 237/1/4 241/1/4
f 238/1/4 239/1/4 242/1/4
f 242/1/4 239/1/4 243/1/4
f 239/2/4 236/2/4 244/2/4
f 243/1/4 239/1/4 244/1/4
f 236/1/4 240/1/4 245/1/4
f 243/2/4 244/2/4 247/2/4
f 245/1/4 246/1/4 248/1/4
f 247/2/4 244/2/4 248/2/4
f 244/2/4 236/2/4 248/2/4
f 236/1/4 245/1/4 248/1/4
f 248/1/4 246/1/4 249/1/4
f 234/3/4 233/3/4 250/3/4
f 250/3/4 233/3/4 252/3/4
f 252/3/4 233/3/4 253/3/4
f 251/4/4 252/4/4 255/4/4
f 255/4/4 252/4/4 256/4/4
f 253/4/4 254/4/4 257/4/4
f 257/4/4 254/4/4 258/4/4
f 259/1/4 260/1/4 263/1/4
f 260/5/4 261/5/4 263/5/4
f 261/1/4 262/1/4 264/1/4
f 263/5/4 261/5/4 264/5/4
f 259/1/4 263/1/4 266/1/4
f 263/1/4 264/1/4 266/1/4
f 266/1/4 264/1/4 267/1/4
f 265/1/4 266/1/4 268/1/4
f 268/1/4 266/1/4 269/1/4
f 267/1/4 264/1/4 270/1/4
f 269/1/4 270/1/4 271/1/4
f 264/1/4 262/1/4 272/1/4
f 271/1/4 270/1/4 272/1/4
f 270/1/4 264/1/4 272/1/4
f 273/4/4 274/4/4 275/4/4
f 275/4/4 274/4/4 276/4/4
f 277/1/4 278/1/4 279/1/4
f 279/1/4 278/1/4 280/1/4
f 281/1/4 282/1/4 283/1/4
f 283/1/4 282/1/4 284/1/4
f 287/1/5 286/1/5 285/1/5
f 288/1/5 286/1/5 287/1/5
f 291/1/5 290/1/5 289/1/5
f 292/1/5 290/1/5 291/1/5
f 297/2/5 294/2/5 293/2/5
f 298/2/5 296/2/5 295/2/5
f 298/2/5 297/2/5 296/2/5
f 299/2/5 297/2/5 298/2/5
f 300/2/5 294/2/5 297/2/5
f 300/2/5 297/2/5 299/2/5
f 301/2/5 294/2/5 300/2/5
f 302/2/5 294/2/5 301/2/5
f 305/2/5 304/2/5 303/2/5
f 306/2/5 304/2/5 305/2/5
f 309/2/5 308/2/5 307/2/5
f 310/2/5 308/2/5 309/2/5
f 313/1/5 312/1/5 311/1/5
f 314/1/5 312/1/5 313/1/5
f 317/1/5 316/1/5 315/1/5
f 318/1/5 316/1/5 317/1/5
f 322/1/5 320/1/5 319/1/5
f 323/1/5 320/1/5 322/1/5
f 325/1/5 322/1/5 321/1/5
f 326/1/5 322/1/5 325/1/5
f 327/1/5 324/1/5 323/1/5
f 328/1/5 324/1/5 327/1/5
f 329/1/5 325/1/5 321/1/5
f 332/1/5 324/1/5 328/1/5
f 333/1/5 330/1/5 329/1/5
f 333/1/5 329/1/5 321/1/5
f 334/1/5 330/1/5 333/1/5
f 335/1/5 332/1/5 331/1/5
f 336/1/5 324/1/5 332/1/5
f 336/1/5 332/1/5 335/1/5
f 337/1/5 335/1/5 334/1/5
f 338/1/5 335/1/5 337/1/5
f 341/1/5 340/1/5 339/1/5
f 342/1/5 340/1/5 341/1/5
f 345/1/5 344/1/5 343/1/5
f 346/1/5 344/1/5 345/1/5
f 349/4/5 348/4/5 347/4/5
f 350/4/5 348/4/5 349/4/5
f 356/4/5 352/4/5 351/4/5
f 357/4/5 352/4/5 356/4/5
f 358/3/5 354/3/5 353/3/5
f 359/3/5 354/3/5 358/3/5
f 360/3/5 356/3/5 355/3/5
f 361/3/5 356/3/5 360/3/5
f 363/4/5 362/4/5 361/4/5
f 364/4/5 362/4/5 363/4/5
f 367/3/5 366/3/5 365/3/5
f 368/3/5 366/3/5 367/3/5
f 369/1/6 370/1/6 371/1/6
f 371/1/6 370/1/6 372/1/6
f 373/1/6 374/1/6 375/1/6
f 375/1/6 374/1/6 376/1/6
f 377/1/6 378/1/6 379/1/6
f 379/1/6 378/1/6 380/1/6
f 381/1/6 382/1/6 383/1/6
f 383/1/6 382/1/6 384/1/6
f 385/1/6 386/1/6 387/1/6
f 387/1/6 386/1/6 388/1/6
f 389/1/6 390/1/6 391/1/6
f 391/1/6 390/1/6 392/1/6
f 393/3/6 394/3/6 395/3/6
f 395/3/6 394/3/6 396/3/6
f 397/4/6 398/4/6 400/4/6
f 400/4/6 398/4/6 401/4/6
f 399/3/6 400/3/6 402/3/6
f 402/3/6 400/3/6 403/3/6
f 399/3/6 402/3/6 404/3/6
f 403/3/6 400/3/6 405/3/6
f 399/3/6 404/3/6 406/3/6
f 404/3/6 405/3/6 406/3/6
f 405/3/6 400/3/6 407/3/6
f 406/3/6 405/3/6 407/3/6
f 407/4/6 408/4/6 409/4/6
f 409/4/6 408/4/6 410/4/6
f 413/3/6 414/3/6 415/3/6
f 415/3/6 414/3/6 416/3/6
f 411/4/6 412/4/6 417/4/6
f 417/4/6 412/4/6 418/4/6
